<svg id="b" xmlns="http://www.w3.org/2000/svg" viewBox="0 0 35 35"><g id="c"><path class="d" d="m17.5,35C7.85,35,0,27.15,0,17.5S7.85,0,17.5,0s17.5,7.85,17.5,17.5-7.85,17.5-17.5,17.5Zm0-33.65C8.59,1.35,1.35,8.59,1.35,17.5s7.25,16.15,16.15,16.15,16.15-7.25,16.15-16.15S26.41,1.35,17.5,1.35Z"/><polygon class="d" points="11.04 25.79 9.73 25.5 11.59 17.07 9.73 18.87 8.79 17.9 12.26 14.55 13.39 15.18 11.04 25.79"/><rect class="d" x="8.31" y="24.97" width="4.87" height="1.35"/><path class="d" d="m16.75,26.06c-.37.23-.8.35-1.3.35-.43,0-.77-.09-1.03-.27-.26-.18-.4-.43-.42-.76l.91-.46c.03.19.11.34.25.45.14.11.32.16.54.16.17,0,.31-.03.42-.09.12-.06.19-.15.22-.26.03-.13,0-.23-.11-.3-.11-.07-.29-.14-.55-.22-.25-.08-.46-.16-.61-.24s-.27-.19-.36-.34c-.09-.15-.1-.34-.04-.58.07-.27.21-.5.41-.7.2-.2.44-.35.72-.45.28-.1.56-.16.86-.16.4,0,.72.09.96.26.23.17.35.4.34.69l-.9.44c-.07-.34-.28-.51-.65-.51-.16,0-.29.03-.4.09s-.18.14-.21.25c-.03.12,0,.22.11.28s.28.13.53.21c.26.08.47.16.63.23.16.08.28.2.37.35.09.16.1.37.03.63-.11.4-.35.71-.72.95Z"/><path class="d" d="m20.67,26.08c-.32.22-.72.33-1.19.33-.44,0-.76-.12-.96-.35-.21-.23-.23-.64-.07-1.24l.44-1.63h-.72l.24-.91h.72l.33-1.24h1.08l-.33,1.24h1.21l-.24.91h-1.21l-.39,1.45c-.07.27-.08.47-.02.61s.19.21.39.21c.18,0,.37-.05.56-.16l.16.78Z"/><rect class="d" x="10.03" y="6.84" width="1.35" height="6.04" transform="translate(-3.83 9.17) rotate(-39.94)"/><rect class="d" x="14.52" y="4.45" width="1.35" height="6.13" transform="translate(-1.21 3.24) rotate(-11.71)"/><rect class="d" x="16.75" y="7.02" width="6.08" height="1.35" transform="translate(7.58 25.07) rotate(-76.14)"/><rect class="d" x="20.85" y="9.17" width="6.02" height="1.35" transform="translate(1.07 21.96) rotate(-50.41)"/><rect class="d" x="23.69" y="12.76" width="6.08" height="1.35" transform="translate(-3.17 12.37) rotate(-24.65)"/><rect class="d" x="27.1" y="14.85" width="1.35" height="6.13" transform="translate(9.42 45.41) rotate(-89.11)"/><rect class="d" x="25.64" y="19.75" width="1.35" height="6.04" transform="translate(-6.38 34.68) rotate(-60.88)"/></g></svg>