<svg id="b" xmlns="http://www.w3.org/2000/svg" viewBox="0 0 35 35"><g id="c"><path class="d" d="m17.5,35C7.85,35,0,27.15,0,17.5S7.85,0,17.5,0s17.5,7.85,17.5,17.5-7.85,17.5-17.5,17.5Zm0-33.65C8.59,1.35,1.35,8.59,1.35,17.5s7.25,16.15,16.15,16.15,16.15-7.25,16.15-16.15S26.41,1.35,17.5,1.35Z"/><polygon class="d" points="19.8 10.66 14.02 18.32 16.87 18.32 15.42 23.95 20.98 16.13 17.98 16.13 19.8 10.66"/><path class="d" d="m17.41,29.2c-.6,0-1.21-.05-1.82-.14-.37-.06-.62-.4-.56-.77.06-.37.4-.62.77-.56,4.36.69,8.69-1.47,10.77-5.36,2.71-5.05.8-11.36-4.24-14.07-.3-.16-.44-.53-.31-.85.13-.32.48-.49.81-.39l5.2,1.49c.36.1.56.48.46.83-.1.36-.47.56-.83.46l-1.77-.51c3.42,3.57,4.33,9.08,1.86,13.67-2.06,3.85-6.07,6.19-10.35,6.19Z"/><path class="d" d="m12.35,27.97c-.06,0-.12,0-.19-.03l-5.2-1.49c-.36-.1-.56-.48-.46-.83.1-.36.47-.57.83-.46l1.77.51c-3.42-3.57-4.33-9.08-1.86-13.67,2.36-4.39,7.25-6.82,12.17-6.05.37.06.62.4.56.77-.06.37-.4.62-.77.56-4.36-.69-8.69,1.47-10.77,5.36-2.71,5.05-.8,11.36,4.24,14.07.3.16.44.53.31.85-.11.26-.36.42-.62.42Z"/><path class="d" d="m23.78,12.03c-.29,0-.55-.19-.64-.47l-1.13-3.64c-.11-.35.09-.73.44-.84.36-.11.73.09.84.44l1.13,3.64c.11.35-.09.73-.44.84-.07.02-.13.03-.2.03Z"/><path class="d" d="m12.35,27.97c-.31,0-.58-.21-.66-.52l-.83-3.59c-.08-.36.14-.72.5-.81.36-.08.72.14.81.5l.83,3.59c.08.36-.14.72-.5.81-.05.01-.1.02-.15.02Z"/></g></svg>