<svg id="b" xmlns="http://www.w3.org/2000/svg" viewBox="0 0 35 35"><g id="c"><path class="d" d="m17.5,35C7.85,35,0,27.15,0,17.5S7.85,0,17.5,0s17.5,7.85,17.5,17.5-7.85,17.5-17.5,17.5Zm0-33.65C8.59,1.35,1.35,8.59,1.35,17.5s7.25,16.15,16.15,16.15,16.15-7.25,16.15-16.15S26.41,1.35,17.5,1.35Z"/><path class="d" d="m10.36,14.93c0,.77-.12,1.36-.37,1.78-.25.42-.63.69-1.15.82.52.13.9.4,1.15.82.25.42.37,1.01.37,1.78v1.95c0,.64.1,1.08.31,1.33.21.25.55.37,1.04.37h.47v1.27h-.37c-.97,0-1.7-.21-2.17-.62-.48-.41-.71-1.15-.71-2.21v-1.96c0-.53-.06-.94-.17-1.22-.11-.28-.29-.48-.54-.59s-.58-.17-1.01-.17v-1.49c.44,0,.79-.06,1.03-.18.24-.12.42-.32.53-.6.11-.28.16-.68.16-1.2v-1.96c0-1.06.24-1.8.71-2.21.48-.41,1.2-.62,2.17-.62h.37v1.27h-.47c-.49,0-.83.12-1.04.37-.21.25-.31.69-.31,1.33v1.95Z"/><path class="d" d="m18.31,16.79c.68.24,1.24.48,1.69.72.44.24.81.58,1.11,1,.3.42.45.95.45,1.59,0,.89-.29,1.63-.87,2.23-.58.6-1.37.95-2.38,1.05v2.16h-1.31v-2.17c-.93-.12-1.73-.45-2.39-1.01-.66-.55-1.09-1.25-1.29-2.11l1.12-.68c.44,1.38,1.3,2.2,2.56,2.45v-4.22c-.67-.23-1.23-.46-1.67-.71-.44-.24-.81-.58-1.11-1-.3-.42-.45-.96-.45-1.61,0-.94.3-1.7.91-2.28.61-.58,1.38-.92,2.32-1.01v-2.03h1.31v2.04c.81.13,1.49.44,2.04.93.55.49.88,1.05,1,1.68l-1.12.68c-.13-.48-.36-.88-.68-1.22-.32-.34-.74-.58-1.23-.71v4.22Zm-2.66-1.27c.31.3.76.57,1.35.8v-3.81c-.55.09-.99.29-1.32.62-.33.32-.49.74-.49,1.23s.16.87.47,1.17Zm2.66,6.52c.58-.08,1.03-.27,1.35-.59.31-.32.47-.72.47-1.21s-.16-.88-.47-1.18c-.31-.3-.76-.57-1.35-.8v3.78Z"/><path class="d" d="m24.64,12.98c0-.64-.1-1.08-.31-1.33-.21-.25-.55-.37-1.04-.37h-.47v-1.27h.37c.97,0,1.7.21,2.17.62.48.41.71,1.15.71,2.21v1.96c0,.52.05.92.16,1.2.11.28.28.48.53.6.24.12.59.18,1.03.18v1.49c-.43,0-.77.06-1.01.17-.24.11-.42.31-.54.59-.11.28-.17.69-.17,1.22v1.96c0,1.06-.24,1.8-.71,2.21-.48.41-1.2.62-2.17.62h-.37v-1.27h.47c.49,0,.83-.12,1.04-.37s.31-.69.31-1.33v-1.95c0-.77.12-1.36.37-1.78.25-.42.63-.69,1.15-.82-.52-.13-.9-.4-1.15-.82-.25-.42-.37-1.01-.37-1.78v-1.95Z"/></g></svg>