<svg id="b" xmlns="http://www.w3.org/2000/svg" viewBox="0 0 35 35"><g id="c"><path class="d" d="m17.5,35C7.85,35,0,27.15,0,17.5S7.85,0,17.5,0s17.5,7.85,17.5,17.5-7.85,17.5-17.5,17.5Zm0-33.65C8.59,1.35,1.35,8.59,1.35,17.5s7.25,16.15,16.15,16.15,16.15-7.25,16.15-16.15S26.41,1.35,17.5,1.35Z"/><path class="d" d="m10.31,23.31l-1.08-.54v-10.66l1.08-.54,7.15,5.33v1.08l-7.15,5.33Zm.27-9.85v7.97l5.35-3.99-5.35-3.99Z"/><rect class="d" x="18.63" y="11.43" width="1.35" height="11.88"/><rect class="d" x="22.01" y="11.43" width="1.35" height="11.88"/></g></svg>