<svg id="b" xmlns="http://www.w3.org/2000/svg" viewBox="0 0 35 35"><g id="c"><path class="d" d="m17.5,35C7.85,35,0,27.15,0,17.5S7.85,0,17.5,0s17.5,7.85,17.5,17.5-7.85,17.5-17.5,17.5Zm0-33.65C8.59,1.35,1.35,8.59,1.35,17.5s7.25,16.15,16.15,16.15,16.15-7.25,16.15-16.15S26.41,1.35,17.5,1.35Z"/><path class="d" d="m9.53,14.79c-.16,0-.33-.06-.46-.18l-1.91-1.75c-.27-.25-.29-.68-.04-.95.25-.27.68-.29.95-.04l1.44,1.33,4.65-4.45c.27-.26.69-.25.95.02.26.27.25.69-.02.95l-5.1,4.89c-.13.12-.3.19-.47.19Z"/><path class="d" d="m27.38,14.23h-10.6c-.37,0-.67-.3-.67-.67v-2.44c0-.37.3-.67.67-.67h10.6c.37,0,.67.3.67.67v2.44c0,.37-.3.67-.67.67Zm-9.92-1.35h9.25v-1.1h-9.25v1.1Z"/><path class="d" d="m9.53,20.62c-.16,0-.33-.06-.46-.18l-1.91-1.75c-.27-.25-.29-.68-.04-.95s.68-.29.95-.04l1.44,1.33,4.65-4.45c.27-.26.69-.25.95.02.26.27.25.69-.02.95l-5.1,4.89c-.13.12-.3.19-.47.19Z"/><path class="d" d="m27.38,20.06h-10.6c-.37,0-.67-.3-.67-.67v-2.44c0-.37.3-.67.67-.67h10.6c.37,0,.67.3.67.67v2.44c0,.37-.3.67-.67.67Zm-9.92-1.35h9.25v-1.1h-9.25v1.1Z"/><path class="d" d="m9.53,26.45c-.16,0-.33-.06-.46-.18l-1.91-1.75c-.27-.25-.29-.68-.04-.95s.68-.29.95-.04l1.44,1.33,4.65-4.45c.27-.26.69-.25.95.02.26.27.25.69-.02.95l-5.1,4.89c-.13.12-.3.19-.47.19Z"/><path class="d" d="m27.38,25.88h-10.6c-.37,0-.67-.3-.67-.67v-2.44c0-.37.3-.67.67-.67h10.6c.37,0,.67.3.67.67v2.44c0,.37-.3.67-.67.67Zm-9.92-1.35h9.25v-1.1h-9.25v1.1Z"/></g></svg>