<svg id="b" xmlns="http://www.w3.org/2000/svg" viewBox="0 0 35 35"><g id="c"><path class="d" d="m17.5,35C7.85,35,0,27.15,0,17.5S7.85,0,17.5,0s17.5,7.85,17.5,17.5-7.85,17.5-17.5,17.5Zm0-33.65C8.59,1.35,1.35,8.59,1.35,17.5s7.25,16.15,16.15,16.15,16.15-7.25,16.15-16.15S26.41,1.35,17.5,1.35Z"/><path class="d" d="m10.31,25.19h-2.58c-.84,0-1.53-.69-1.53-1.53v-8.98c0-.84.69-1.53,1.53-1.53h2.58c.84,0,1.53.69,1.53,1.53v8.98c0,.84-.69,1.53-1.53,1.53Zm-2.58-10.69c-.1,0-.18.08-.18.18v8.98c0,.1.08.18.18.18h2.58c.1,0,.18-.08.18-.18v-8.98c0-.1-.08-.18-.18-.18h-2.58Z"/><path class="d" d="m22.33,26.11c-1.15,0-2.44-.2-3.86-.41-1.61-.25-3.27-.5-4.96-.5-.37,0-.67-.3-.67-.67v-10.74c0-.37.3-.67.67-.67,3.29,0,3.52-6.31,3.52-6.38,0-.27.18-.51.43-.61,1.8-.69,2.86-.18,3.44.36,1.15,1.09,1.38,3.34.65,6.11l4.5-.06c.82,0,1.58.35,2.1.97.52.62.74,1.43.6,2.22l-1.06,6.17c-.33,1.91-1.74,3.48-3.6,4-.54.15-1.13.21-1.77.21Zm-8.15-2.25c1.56.06,3.11.29,4.49.5,2.05.31,3.82.58,5.06.24,1.36-.38,2.4-1.53,2.64-2.93l1.06-6.17c.07-.4-.04-.82-.31-1.13-.26-.31-.65-.49-1.06-.49l-5.41.07c-.2,0-.42-.1-.55-.27-.13-.17-.17-.4-.1-.61.83-2.55.81-4.81-.03-5.61-.36-.35-.91-.42-1.63-.22-.12,1.59-.78,6.57-4.17,7.15v9.46Z"/></g></svg>