<?xml version="1.0" encoding="UTF-8"?>
<svg id="_图层_4" data-name="图层 4" xmlns="http://www.w3.org/2000/svg" xmlns:xlink="http://www.w3.org/1999/xlink" viewBox="0 0 1417.32 737.01">
  <defs>
    <linearGradient id="_未命名的渐变_3" data-name="未命名的渐变 3" x1="38.21" y1="12366.8" x2="304.11" y2="12542.84" gradientTransform="translate(0 12752.62) scale(1 -1)" gradientUnits="userSpaceOnUse">
      <stop offset="0" stop-color="#006a63"/>
      <stop offset=".69" stop-color="#00b6a1"/>
      <stop offset="1" stop-color="#85e6d5"/>
    </linearGradient>
    <linearGradient id="_未命名的渐变_3-2" data-name="未命名的渐变 3" x1="292.65" y1="12345.87" x2="375.06" y2="12447.14" xlink:href="#_未命名的渐变_3"/>
    <linearGradient id="_未命名的渐变_3-3" data-name="未命名的渐变 3" x1="168.69" y1="12243.73" x2="312.62" y2="12466.69" xlink:href="#_未命名的渐变_3"/>
  </defs>
  <path d="M556.07,507.4l3.97-9.67h-37.14l31.15-22.34c7.91-5.77,14.12-13.55,17.99-22.54h-129.03l-5.71,13.44h98.08l-40.63,31.05h-3.58l-1.45-18.67h-29.02l1.45,18.67h-43.72l-6,14.03h54.94l-13.45,31.73c-5.7,13.31-14.57,25.03-25.83,34.14h31.73c3.31-.08,6.51-1.16,9.19-3.1,2.91-1.91,5.2-4.64,6.58-7.83l23.41-54.94h26.7l-13.35,17.22h28.44l9.67-11.99c2.28-2.8,4.16-5.89,5.61-9.19Z" style="fill: #005c6a;"/>
  <path d="M696.23,505.18c7.92,.08,15.08-4.67,18.09-11.99l16.93-39.75h-128.16l-2.03,4.84-20.02,46.91h48.36l-4.84,10.93h-55.71l-5.71,13.44h29.02l-49.52,45.27h29.02l39.46-36.08,3.19,2.22-15.67,37.05h30.47l18.76-44.01,9.67,40.82h30.76l-10.83-45.27h17.51c6.37,0,12.12-3.81,14.61-9.67l1.55-3.77h-55.81l4.84-10.93h36.08Zm-17.89-41.98h21.47l-4.93,10.93h-21.76l5.22-10.93Zm-8.9,20.89h21.57l-4.64,10.93h-21.86l4.93-10.93Zm-35.4,10.93h-21.28l4.55-10.93h22.05l-5.32,10.93Zm9-20.89h-21.86l4.93-10.93h21.76l-4.84,10.93Z" style="fill: #005c6a;"/>
  <path d="M871.69,498.12h-37.05l31.05-22.34c7.83-5.7,14.01-13.38,17.89-22.25h-128.94l-5.61,13.44h97.69l-40.63,31.05h-3.68l-1.35-18.67h-29.02l1.35,18.67h-43.72l-6,14.03h55.04l-13.54,31.73c-5.67,13.33-14.54,25.06-25.83,34.14h31.73c3.31-.07,6.52-1.15,9.19-3.1,2.94-1.88,5.23-4.61,6.58-7.83l23.5-54.94h26.79l-13.35,17.22h28.53l13.35-16.54,6-14.61Z" style="fill: #005c6a;"/>
  <path d="M989.99,484.58h-29.99l-18.38,43.62h-69.64l-5.61,13.06h50.68l-61.81,36.56h35.6l47.4-27.86,16.44,27.86h35.31l-20.02-36.56h28.24c6.37,0,12.12-3.81,14.61-9.67l1.45-3.48h-42.66l18.38-43.53Z" style="fill: #005c6a;"/>
  <polygon points="900.81 520.17 928.66 520.17 926.92 502.66 898.97 502.66 900.81 520.17" style="fill: #005c6a;"/>
  <polygon points="948.01 484.58 919.76 484.58 920.92 502.66 949.07 502.66 948.01 484.58" style="fill: #005c6a;"/>
  <path d="M994.24,449.95h-35.01l-1.64,4.45-2.51,6h-53.97l-10.25,23.89h26.79l4.64-11.41h88.02l-4.84,11.03h16.25c6.33-.04,12.04-3.84,14.51-9.67l6.19-14.32h-52.43l4.26-9.96Z" style="fill: #005c6a;"/>
  <path d="M461.38,428.96c8.48,1.26,17.06,1.84,25.63,1.74h36.76l7.54-23.6h-35.3c-9.48,1.17-19.06-1.21-26.89-6.67-4.68-7.01-5.62-15.87-2.51-23.7l7.64-23.7c1.79-4.6,3.86-9.09,6.19-13.44,1.71-3.51,3.89-6.76,6.48-9.67,3.78-3.6,8.35-6.25,13.35-7.74,6.96-1.21,14.03-1.63,21.09-1.26l19.35,.77c10.77-.02,20.29-6.97,23.6-17.22l2.03-6.48h-47.4c-7.76-.18-15.5,.7-23.02,2.61-6.69,2.16-12.97,5.43-18.57,9.67-18.28,12.77-24.76,31.44-32.21,54.46-6.67,20.8-13.25,36.66-7.16,48.36,4.73,8.81,13.48,14.74,23.41,15.86Z" style="fill: #005c6a;"/>
  <polygon points="483.05 377.02 534.5 376.34 542.05 352.64 492.91 351.19 483.05 377.02" style="fill: #005c6a;"/>
  <path d="M592.44,430.7c9.38,.22,18.76-.33,28.05-1.64,6.52-1.2,12.81-3.38,18.67-6.48,10.19-5.73,18.72-13.99,24.76-23.99,6.82-10.53,12.21-21.91,16.06-33.85,3.68-10.94,5.58-22.41,5.61-33.95,.47-12.69-7.37-24.21-19.35-28.44-10.09-3.23-20.66-4.64-31.24-4.16h-56.2l-42.66,132.51h56.29Zm6.96-108.82h28.05c7.87-1.07,15.8,1.41,21.67,6.77,2.76,4.28,4.05,9.34,3.68,14.41-.13,7.31-1.4,14.56-3.77,21.47-2.2,6.97-5.22,13.66-9,19.93-3.19,5.4-7.16,10.29-11.8,14.51-8.17,5.95-18.17,8.82-28.24,8.12h-27.95l27.37-85.22Z" style="fill: #005c6a;"/>
  <path d="M677.85,402.65c-.02,5.61,1.78,11.07,5.13,15.57,6.58,9,20.02,13.54,40.63,13.54,17.3,.51,34.34-4.29,48.85-13.74,6.08-4.39,11.27-9.91,15.28-16.25,4.9-7.96,8.77-16.51,11.51-25.44l25.05-78.15h-27.76l-25.63,79.51c-1.92,6.91-5,13.45-9.09,19.35-3.45,3.99-7.84,7.05-12.77,8.9-5.6,2.21-11.58,3.33-17.6,3.29-7.82,.93-15.57-2.16-20.6-8.22-1.75-2.67-2.63-5.81-2.51-9,.41-5.05,1.49-10.03,3.19-14.8l25.54-79.51h-27.95l-25.73,80.09c-3.06,7.97-4.92,16.34-5.51,24.86Z" style="fill: #005c6a;"/>
  <path d="M813.27,420.45c3.81,3.86,8.59,6.63,13.83,8.03,7.75,1.7,15.67,2.45,23.6,2.22h59.2l17.8-55.42c3.05-9.46-2.15-19.59-11.61-22.64-1.69-.54-3.45-.84-5.22-.86h-40.43l-8.12,25.44,37.24-1.06-9.67,31.44h-25.63c-5.33,.15-10.65-.53-15.77-2.03-3.5-.9-6.5-3.17-8.32-6.29-2.19-4.5-2.96-9.56-2.22-14.51,.59-7.45,2.12-14.79,4.55-21.86,2.61-12.62,9.02-24.13,18.38-32.98,7.93-5.78,17.57-8.71,27.37-8.32l32.21,.77c14.83,0,27.96-9.58,32.5-23.7h-58.04c-11.87-.29-23.69,1.68-34.82,5.8-9.94,4-18.82,10.26-25.92,18.28-10.85,12.37-18.93,26.91-23.7,42.66-8.51,25.99-7.58,44.33,2.81,55.04Z" style="fill: #005c6a;"/>
  <path d="M1074.91,318.11c-.92-4.99-3.59-9.49-7.54-12.67-5.8-4.74-17.89-7.16-36.47-7.16h-64.81l-42.56,132.51h27.76l16.15-50.2h22.73c7.29-.71,14.64,.66,21.18,3.97,3.24,2.28,5.44,5.76,6.09,9.67,.57,5.95,.01,11.96-1.64,17.7-1.56,6.35-2.59,12.82-3.1,19.35h31.63c.34-6.77,1.41-13.48,3.19-20.02,1.2-4.24,2.04-8.58,2.51-12.96,.18-3.04-.01-6.1-.58-9.09-.52-3.38-1.99-6.53-4.26-9.09-2.8-2.56-6.09-4.53-9.67-5.8,6.78-2.01,13.12-5.29,18.67-9.67,9.2-7.53,15.94-17.63,19.35-29.02,2.01-5.61,2.48-11.66,1.35-17.51Zm-33.56,20.51c-1.61,6.36-5.64,11.84-11.22,15.28-4.69,2.28-9.89,3.31-15.09,3h-39.56l11.22-34.92h39.56c3.55-.18,7.11,.21,10.54,1.16,5.61,2.13,7.16,7.35,4.55,15.38v.1Z" style="fill: #005c6a;"/>
  <path d="M1187.6,304.18c-10.22-4.88-21.47-7.21-32.79-6.77-17.95-.57-35.66,4.21-50.88,13.74-17.9,13.36-30.7,32.44-36.27,54.07-4.26,11.52-5.72,23.89-4.26,36.08,1.09,9.1,6.34,17.18,14.22,21.86,11.06,6.07,23.57,8.98,36.18,8.42,10.86,.09,21.66-1.68,31.92-5.22,13.52-4.91,25.38-13.53,34.24-24.86,7.97-10.55,14.06-22.39,17.99-35.01,3.99-11.23,5.92-23.1,5.71-35.01,.18-11.38-6.02-21.91-16.06-27.28Zm-20.02,60.36c-3.51,12.73-10.16,24.37-19.35,33.85-7.9,7.26-18.3,11.17-29.02,10.93-12.09,0-19.35-3.68-22.92-10.74-3.12-11.37-2.2-23.47,2.61-34.24,3.16-11.8,8.98-22.72,17.02-31.92,8.38-8.54,19.96-13.18,31.92-12.77,13.06,0,20.8,4.55,23.21,13.15,1.83,10.69,.62,21.68-3.48,31.73Z" style="fill: #005c6a;"/>
  <polygon points="1388.31 298.18 1326.4 397.91 1330.66 298.18 1299.32 298.18 1239.44 397.91 1241.67 298.18 1212.46 298.18 1212.75 430.7 1244.96 430.7 1303.09 335.13 1299.8 430.7 1332.01 430.7 1417.32 298.18 1388.31 298.18" style="fill: #005c6a;"/>
  <path d="M202.35,426.15H50.68c-34.82,0-59.2-24.67-47.88-48.36L76.31,224.29c14.9-31.24,55.71-52.23,101.56-52.23l179.14-13.06c-3.47,13.38-9.13,26.09-16.73,37.63-10.45,13.15-32.4,20.31-51.75,20.31l-91.7-4.26c-33.08,0-62.49,15.19-73.22,37.72l-56.97,118.88c-3.77,7.93,4.35,16.15,15.96,16.15l137.83-5.13-18.09,45.85Z" style="fill: url(#_未命名的渐变_3);"/>
  <path d="M337.86,301.57h0c12.28-25.73,36.56-36.47,68.29-35.11l35.79,2.51c-65.37,37.83-113.55,99.5-134.45,172.08" style="fill: url(#_未命名的渐变_3-2);"/>
  <path d="M272.18,571.05l-43.82-70.22,48.36-152.05c2.67-7.55-1.29-15.84-8.84-18.52-1.6-.57-3.29-.85-4.99-.83l-119.65,4.06,37.14-65.19,117.72,4.74c23.29-.03,42.2,18.83,42.22,42.12,0,4.25-.63,8.47-1.89,12.53l-66.26,243.36Z" style="fill: url(#_未命名的渐变_3-3);"/>
</svg>