<svg id="a" xmlns="http://www.w3.org/2000/svg" viewBox="0 0 500 500"><defs><style>.b{stroke-width:0px;}</style></defs><path class="b" d="m456.16,383.45h-11.46c-.82,4.59-1.04,29.49-.41,46.82h11.81c.12,8.08.02,15.98.06,24.25h-12.04v-11.76h-34.81v11.66c4.06.33,8-.19,11.85.29v11.84h-11.82c-.5,3.49.02,7.08-.32,10.77h-11.79v-34.68h-12.07v23.78h-23v-11.8h-12.07v22.86h-11.87c-.05,1.9-.13,3.83-.16,5.77-.03,1.97,0,3.95,0,6.09h-34.73v-11.73h23.55v-10.97h-23.74v-24.02h-10.8v11.53c-2.03.76-4.02.26-5.94.36-1.97.1-3.96.02-6.3.02v-24.06h12.03v-22.96h10.93c0,7.62,0,14.87,0,22.12,0,.16.08.33.18.47.1.14.25.25.39.37,3.82,0,7.64,0,11.54.07.08,3.87.08,7.81.08,11.72h22.67v-11.65c-7.69,0-15.26,0-22.75-.07-.08-11.74-.08-23.4-.08-35.06h11.92c.34-4.24-.17-8.18.32-12.21h10.73c0-1.97.05-3.77-.02-5.56-.07-1.74.35-3.54-.38-5.38h-10.53c-.02-8.08.01-15.98-.02-23.68h-12.02c0,2.15.02,4.13,0,6.1-.03,1.93-.1,3.85-.15,5.56h-11.76c-.37-4.06.21-8-.33-11.84h-10.72v-22.96c3.88,0,7.42,0,11.12,0v10.97c8.08-.16,15.99.19,23.69-.2v-10.76c-2.15,0-4.13.07-6.11-.02-1.92-.09-3.9.37-5.55-.19v-11.84h11.83c0-7.76,0-15.35.08-23.02,3.49-.08,7.06-.08,10.62-.08v-11.75h-10.55c0,4.04,0,7.98-.08,11.83-4.03.08-7.99.08-12.13.08v-12.07h-20.63v-24.1h8.74v-10.99h11.74v-11.79c-4.06-.33-8,.19-11.65-.27v-11.91h23.63v-11.85h-34.87v11.54c-2.66-5.59-6.92-7.53-11.71-8.73-.65-.88.37-2.2-.77-2.95-3.82,0-7.65,0-11.47,0v-22.96h-12.03v-12.03h24.06v23.79h46.84v-23.78c-8.08-.02-15.99.02-23.88-.02v-10.92h24.06v-12.03h10.93v11.75c1.84.63,3.82.17,5.74.26,1.97.09,3.95.02,6.29.02v10.93h-11.8v24.12h23.82v10.87h-12.03v12.03h-12.16v12.14h-10.8c0,7.73,0,15.29-.08,22.93-3.86.08-7.79.08-11.72.08v11.75h11.64c0-4.04,0-7.98.08-11.83,7.64-.08,15.2-.08,23.12-.08v-10.99h11.95v-11.97h12.03c0-2.34.07-4.31-.02-6.29-.08-1.92.37-3.9-.26-5.74h-11.75v-12.03h34.99v12.03h-12.03v24.06h-10.93v10.93h-12.03v24.06h-12.2v35.16h-11.59v22.96h23.95v11.69h11.86c0-2.15-.02-4.13,0-6.1.03-1.93.1-3.85.15-5.75h10.77v12.03h12.03v11.91c-4.24.36-8.18-.18-12.03.32v11.83h-10.93c0-2.35.07-4.33-.02-6.3-.09-1.91.4-3.9-.27-5.73-8.12,0-15.94,0-23.84-.08-.08-3.86-.08-7.79-.08-11.72h-11.75v11.64c4.04,0,7.98,0,11.83.08.08,7.67.08,15.26.08,23.04,2.33,0,4.3-.02,6.28,0,1.93.03,3.86.1,5.75.16v11.87h-24.09c.14,8.26-.16,16.17.2,24.06,4.22,0,8.04,0,11.94.09.07,7.49.07,15.06.07,22.66h23.79v-11.86h-11.95v-10.72c-4.11,0-8.05,0-11.92-.09-.07-4.04-.07-7.99-.07-11.99,4.24-.36,8.18.18,12.03-.32v-11.83h12.18v11.87h10.78v-34.84h12.18v10.78h11.88v-34.84h11.92c.35,8.27-.22,16.19.31,23.85h10.78v-23.92h12.07v-12.08h11.76v-10.73c-4.06-.28-8,.16-11.86-.24v-11.87h23.54c.11-.11.25-.23.35-.38.09-.14.17-.31.17-.47,0-7.26,0-14.52,0-21.94h10.82v10.69h11.92v12.09h-11.81v35.01h-22.96v34.99Zm-58.87,12.12v34.9c11.44,0,22.69,0,33.95,0,.16,0,.33-.08.47-.16.15-.09.27-.24.21-.19v-34.54h-34.63Z"/><path class="b" d="m69.07,301.44c3.64,0,7.29,0,11.01.08.08,3.86.08,7.79.08,11.72h11.75v-11.64c-4.04,0-7.98,0-11.83-.08-.08-3.53-.08-6.99-.08-10.94,7.88-.16,15.79,0,24.06-.1v-12h12.03v-12.03h10.93v12.03c2.34,0,4.31.07,6.29-.02,1.92-.08,3.9.37,5.74-.26v-11.75h23.84v12.08h-11.81v12.04c-11.57.07-23.15.07-34.76.07v10.8c11.47,0,22.71,0,33.94,0,.15,0,.33-.1.46-.19.14-.1.24-.26.36-.39v-10.27c3.95-.07,7.9-.07,11.88-.07.4,3.87-.17,7.46.35,10.74h10.7c.1-7.72-.08-15.26.1-22.77h11.96v22.96c2.33,0,4.31.07,6.29-.02,1.92-.09,3.9.38,5.74-.26v-22.68h8.92c-.98,4.21,2.24,7.12,2.05,10.9-.2,3.95-.04,7.92-.04,11.95,4.24.36,8.18-.19,11.82.29v23.95h-34.54v11h11.95v11.9h10.77v12.03h-10.93v12.03h-12.03v10.93h-12.03v-10.93h-10.93v-12.03h22.85v-12.08h-12v-11.73h-46.77v11.78c2.13,0,4.11-.02,6.08,0,1.94.03,3.87.1,5.78.16v11.87h-22.96v12.03h-35.98v-11.84h11.76c.06-2.09.13-4.02.16-5.96.03-1.97,0-3.95,0-6.26h-34.99v-11.81c3.84-.55,7.78.04,11.84-.34v-10.64c-3.66-.48-7.6.06-11.66-.28v-11.76c3.67-.44,7.61.06,11.85-.27v-11.92Zm46.92,24.24h-36c.07,3.72-.07,7.25.08,10.56h35.93v-10.56Zm11.22-12.13v11.98c8.08-.18,15.99.17,23.68-.2v-11.79h-23.68Z"/><path class="b" d="m139.05,454.53h-11.95v-11.91h-11.01v-12.14h58.02v-11.01h11.96v-36.01h12.03v24.07c7.9-.06,15.44.06,22.96-.07v-11.97h24.06c0,4.16,0,8.09-.08,12.11-3.86.08-7.79.08-11.72.08v11.75h11.64c0-4.04,0-7.98.08-11.83,3.72-.08,7.37-.08,11.01-.08v69.66c-1.64.68-3.45.24-5.19.31-1.79.07-3.59.02-5.58.02v11.76h-12.05v-22.6h11.74v-11.91h-23.9v11.81h-12.05v-36.08c4.15,0,8.09,0,12.11.07.08,3.87.08,7.81.08,11.72h23.76v-11.65c-8.06,0-15.99,0-23.84-.07-.08-3.67-.08-7.26-.08-10.9h-23.02v10.91h-11.73v12.09h11.78v8.3c0,2.55-.04,5.1.01,7.65.05,2.66-.24,5.35.19,7.97h10.74v10.93h-10.65c-.63,1.84-.17,3.82-.26,5.74-.09,1.97-.02,3.95-.02,6.11h-11.86c-.45-3.67.06-7.6-.28-11.84h-11.91v-34.4c-.12-.13-.22-.29-.36-.39-.13-.1-.31-.19-.46-.19-11.26,0-22.53,0-34.16,0v12.03Z"/><path class="b" d="m374.15,161.48h10.77c.42-3.86-.04-7.8.25-11.87h23.82v-12.07h12.07v-23h10.97v-12h24.09v11.89h12.07v10.95h-36.08c0,2.34-.08,4.33.02,6.3.1,1.91-.41,3.9.36,5.93h23.55v11.9h-23.79v11.7h36.08v-11.95h10.79v-11.86h11.43c.13.12.29.22.39.35.1.13.2.3.2.46,0,11.24,0,22.48,0,34.05h-34.99v12.16h-24.19v-11.91h-34.64v11.96h11.82v22.91h-12.03v-10.93c-7.62,0-14.87,0-22.12,0-.16,0-.33-.08-.47-.18-.14-.1-.25-.25-.37-.39v-11.46h10.93c0-2.34.07-4.31-.02-6.29-.08-1.92.36-3.9-.26-5.74h-10.66v-10.93Z"/><path class="b" d="m139.05,78.37v-10.37c.12-.13.23-.29.38-.38.13-.09.31-.17.47-.17,11.26,0,22.51,0,33.96,0v-11.5c-4.42-.78-29.39-.99-46.63-.37v11.66c-7.71.47-15.25.07-22.97.24v-23.72c-.06.07.04-.09.18-.19.13-.09.31-.18.47-.18,7.25,0,14.5,0,22.13,0v-12.03h11.52c.1-.11.24-.23.34-.38.09-.14.17-.31.17-.47,0-7.25,0-14.51,0-21.94h11.88v34.66h22.99v-11.78h24.09V8.51h23v11.88h12.07v10.95h-23.92v11.89h11.89v12.17h-11.82c-.53,3.84.04,7.78-.32,11.84h-22.61c-.57,7.68.02,15.23-.33,22.95h-11.91v-11.63h-10.78c-.51,3.65.07,7.58-.3,11.65h-11.75c-.05-1.71-.12-3.64-.15-5.56-.03-1.97,0-3.95,0-6.28h-12.03Zm59.04-22.96c-.02-4.01.08-8.02-.07-11.84h-11.95c0,2.16-.07,4.14.02,6.11.09,1.91-.39,3.89.27,5.72h11.73Z"/><path class="b" d="m91.87,8.39v81.9H10.02v-5.36c0-22.6.02-45.19-.02-67.79,0-3.95,1.83-6.44,5.32-8.17,1.09-.54,2.03-.56,3.05-.56,24.41-.02,48.81-.02,73.5-.02Zm-12.06,69.89V20.59c-18.05-.7-53.23-.44-57.57.38v57.31h57.57Z"/><path class="b" d="m491.15,90.24h-81.9V8.39h5.36c22.6,0,45.19.02,67.79-.02,3.95,0,6.44,1.83,8.17,5.32.54,1.09.56,2.03.56,3.05.02,24.41.02,48.81.02,73.5Zm-12.21-11.96V20.62c-14.6-.66-53.23-.42-57.6.32v57.34h57.6Z"/><path class="b" d="m10.02,407.67h81.9v81.85h-5.36c-22.6,0-45.19-.02-67.79.02-3.95,0-6.44-1.82-8.17-5.32-.54-1.09-.56-2.03-.56-3.05-.02-24.41-.02-48.81-.02-73.5Zm69.89,12.04H22.25c-.66,14.45-.42,53.23.32,57.6h57.34v-57.6Z"/><path class="b" d="m444.13,301.44v12.03h-11.97c-.22,7.9.21,15.45-.26,22.96h-22.76v-10.93h12.03c0-2.34.07-4.31-.02-6.29-.08-1.92.37-3.9-.26-5.74h-11.75v-47.02h22.96c0-4.16,0-8.1.08-12.11,3.85-.08,7.79-.08,11.72-.08v-10.66h-11.64c0,3.68,0,7.25-.08,10.74-3.65.08-7.22.08-11.01.08v-22.96h22.96v-12.03h23.89c.05,1.9.13,3.83.16,5.76.03,1.98,0,3.95,0,6.11h-11.77v12.08h11.69v10.99h10.81v11.72c.09-.1-.01.06-.15.16-.13.1-.31.19-.46.19-11.27,0-22.53,0-34.17,0v12.03h-12.03c0,2.33.07,4.31-.02,6.28-.08,1.92.36,3.9-.32,5.94h-10.5v10.74h22.86Z"/><path class="b" d="m174.04,125.39h11.52c.1-.11.24-.23.33-.38.09-.14.17-.31.17-.47,0-7.25,0-14.51,0-21.95h11.89v-24.06h10.97v23.76h12.07v-23.8h11.89v23.7c4.04.57,7.99-.01,12.23.37v22.83h-24.23v-10.75h-12.03v34.63h-10.66c-.32-4.06.19-8-.26-11.66h-11.92c.21,8.08-.2,15.99.26,24.06h11.85c-.17,7.72.23,15.26-.23,22.77h-11.83v-12.04h-12.03v-47Z"/><path class="b" d="m33.07,137.35c-3.54.07-7,.07-10.85.07-.42,3.86.04,7.8-.25,11.86h-11.68v-23.76h11.53v-10.98h-11.57v-12h22.54v11.1c.32.36.42.52.56.62.13.1.31.19.46.19,11.63,0,23.25,0,35.07,0v-11.35c.3-.27.42-.41.57-.5.14-.09.31-.17.47-.17,11.26,0,22.52,0,34.14,0v22.96c-4.01,0-8.02,0-12.11-.08-.08-3.49-.08-7.06-.08-10.62h-11.75v10.55c4.04,0,7.98,0,11.83.08.08,4.09.08,8.1.08,12.11h-22.86c-.32,4.23.16,8.17-.3,12.21h-23.76c-.33,4.06.19,8-.29,11.85h-11.84c0-8.02,0-16.04.08-24.13,7.85-.07,15.78-.07,23.74-.07v-11.78h-23.65c0,4.04,0,7.98-.08,11.85Z"/><path class="b" d="m292.14,90.4v12.03h45.93v34.99h-10.93v-11.76h-47.21v11.76c-11.44,0-22.7,0-33.96,0-.16,0-.33-.08-.47-.17-.15-.1-.25-.25-.38-.38v-11.46h22.38c.13-.12.29-.22.39-.36.1-.13.19-.31.19-.46,0-15.26,0-30.52,0-45.99h11.84c.52,3.64-.07,7.58.32,11.82h11.89Z"/><path class="b" d="m338.06,102.43v-59.05h23.99V8.62h12.1v46.79h-12.03v22.96h-12.03v24.06h-12.03Z"/><path class="b" d="m92.03,243.49v-11.83c-3.85-.5-7.79.04-12.03-.32v-11.91h12.03v-12.03h11.93c.31,8.26-.19,16.18.3,24.06h22.76v22.96h-10.93v12.03h-12.03v12.03h-24.06v-12.03h12.03v-12.03h12.03c0-2.15.05-3.95-.02-5.74-.07-1.74.35-3.54-.3-5.2h-11.71Z"/><path class="b" d="m444.13,207.4v12.03h-22.96v12.03h-12.03v34.99h-34.99v-12.03h10.93v-10.93h12.03v-24.06h12.03v-12.03h11.89c.38-3.87-.16-7.45.33-10.75h10.61c.4,3.69-.2,7.28.38,10.75h11.78Z"/><path class="b" d="m32.98,325.5v34.84h11.88v-11.88h12.18v24.06H22.08v22.76h-11.7c.09.08-.06-.02-.16-.16-.1-.13-.19-.31-.19-.46,0-15.26,0-30.52,0-46.16h11.92v-11.88h-11.53c-.72-1.85-.31-3.66-.37-5.4-.07-1.79-.01-3.59-.01-5.73h22.96Z"/><path class="b" d="m80,266.45h-10.77c-.05-1.9-.13-3.83-.16-5.76-.03-1.97,0-3.95,0-6.27h-36.08v-46.88h11.93v11.79h12.02v24.15h35.1v10.93h-12.03v12.03Z"/><path class="b" d="m80,219.43h-10.86v-11.91h-12.1v-11.05h12.03c0-2.34.07-4.31-.02-6.29-.08-1.92.37-3.9-.26-5.74h-11.75v-22.71h12.16v10.78h34.86c0,7.94,0,15.54,0,23.15,0,.15-.1.33-.2.46-.1.14-.26.24-.39.35-3.81,0-7.62,0-11.51-.08-.08-3.86-.08-7.79-.08-11.72h-11.75v11.64c4.04,0,7.98,0,11.83.08.08,3.72.08,7.37.08,11.01h-12.03v12.03Z"/><path class="b" d="m245.12,31.35v-10.63c1.67-.62,3.48-.23,5.23-.29,1.79-.06,3.58-.01,5.56-.01v-11.78h24.06v11.73h-11.79v35.04h11.92v11.52c-.1.09-.23.23-.38.33-.14.09-.31.17-.47.17-11.26,0-22.52,0-34.14,0v-24.06h10.93c0-2.34.07-4.31-.02-6.29-.08-1.92.36-3.9-.26-5.74h-10.66Z"/><path class="b" d="m292.14,407.51h-36.08v-12.16h12.11v-22.83h11.95v10.93c2.34,0,4.31.07,6.29-.02,1.92-.08,3.9.36,5.74-.26v-10.66h11.06v11.02h11.91v11.95h-22.96v12.03Z"/><path class="b" d="m138.86,454.53h24.21c.09,3.88,0,7.78.05,11.87h-11.9v22.97h-46.91v-22.66h11.68v10.66h10.98v-10.79h11.88v-12.05Z"/><path class="b" d="m104.06,125.39h12.03v12.03c2.15,0,3.95.05,5.74-.02,1.74-.07,3.54.35,5.2-.3v-11.71h12.03v24.17h-12.13v11.69h-10.92v-11.8h-23.98v-12.03h12.03v-12.03Z"/><path class="b" d="m22.05,278.67v11.83c2.46,0,4.94,0,7.42.01,2.55,0,5.1,0,7.65,0h7.73v10.82h-22.72v11.92h-12v-34.58h11.92Z"/><path class="b" d="m116.09,430.47h-11.47c-.8-4.53-1.02-31.22-.38-47.02h11.84v47.02Z"/><path class="b" d="m116.09,90.4h10.74c.5-3.85-.04-7.79.32-12.03h11.91v36.08h-12.03v-11.79c-3.48-.56-7.06.02-10.93-.38v-11.88Z"/><path class="b" d="m280.26,55.27v-23.8h11.81v11.83h22.79v11.97h-34.6Z"/><path class="b" d="m32.98,184.44h-10.73c-.52,3.84.04,7.78-.32,11.84h-11.79c-.29-7.7-.02-15.6-.16-23.68h11.8c.58-3.67.01-7.25.41-11.12h10.79v22.96Z"/><path class="b" d="m385.08,114.46v10.89h-10.86v12.08h-24.13v-11.91c4.24-.36,8.18.18,12.03-.32v-10.74h22.96Z"/><path class="b" d="m21.87,243.39h-11.68v-35.83c1.72-.05,3.65-.12,5.58-.15,1.97-.03,3.95,0,6.1,0v35.99Z"/><path class="b" d="m385.08,90.4v12.03h-22.96v-24.06h11.91c.36,4.24-.18,8.18.32,12.03h10.74Z"/><path class="b" d="m468.03,466.72v22.67h-23.66v-11.75h11.62v-10.91h12.04Z"/><path class="b" d="m385.26,8.49h11.67v34.74c-1.72.05-3.64.12-5.57.15-1.97.03-3.95,0-6.1,0V8.49Z"/><path class="b" d="m279.92,466.65h12.04v22.83c-7.7.1-15.59.01-23.68.05v-11.81c1.63-.6,3.61-.11,5.53-.2,1.97-.09,3.95-.02,6.11-.02v-10.84Z"/><path class="b" d="m456.16,184.44h11.98c.1,7.53,0,15.06.06,22.96h-24.07v-10.93c2.34,0,4.32.07,6.29-.02,1.92-.09,3.9.37,5.74-.26v-11.75Z"/><path class="b" d="m479.12,430.66v-10.94h11.75v22.6h-22.46c-.61-1.64-.12-3.62-.21-5.54-.1-1.97-.02-3.95-.02-6.12h10.94Z"/><path class="b" d="m468.35,466.73v-12.1h22.57v22.7h-11.64v-10.6h-10.93Z"/><path class="b" d="m151.08,114.46v-11.83c7.52-.44,15.07-.06,22.96-.24v23.01h-10.93v-10.93h-12.03Z"/><path class="b" d="m57.04,196.47h-24.06v-12.03h24.06v12.03Z"/><path class="b" d="m479.21,231.27v-23.68h11.8c.33,7.69.04,15.59.17,23.68h-11.97Z"/><path class="b" d="m479.26,348.63h11.78v23.65h-11.78v-23.65Z"/><path class="b" d="m350.09,172.41h24.06v12.03h-24.06v-12.03Z"/><path class="b" d="m385.08,67.44h11.83c.45,7.52.06,15.06.24,22.96h-12.07v-22.96Z"/><path class="b" d="m326.94,90.31h-11.66v-22.65c1.66-.57,3.64-.11,5.56-.2,1.97-.09,3.95-.02,6.11-.02v22.87Z"/><path class="b" d="m456.32,383.59h22.67v11.65h-22.67v-11.65Z"/><path class="b" d="m68.92,301.27h-11.78v-22.56h11.78v22.56Z"/><path class="b" d="m444.13,278.48h11.83c.45,7.52.06,15.06.24,22.96h-12.07v-22.96Z"/><path class="b" d="m32.98,254.42v24.06h-10.93v-24.06h10.93Z"/><path class="b" d="m326.96,31.21h-23.76v-10.56h23.76v10.56Z"/><path class="b" d="m432.1,466.55v22.64c-1.65.66-3.45.24-5.2.3-1.79.07-3.59.02-5.74.02v-22.96h10.93Z"/><path class="b" d="m221.22,55.57h11.75v11.64h-11.75v-11.64Z"/><path class="b" d="m115.93,90.24h-11.75v-11.64h11.75v11.64Z"/><path class="b" d="m397.11,114.46h-12.03v-12.03h12.03v12.03Z"/><path class="b" d="m350.09,137.42v12.03h-12.03v-12.03h12.03Z"/><path class="b" d="m373.99,161.32h-11.75v-11.64h11.75v11.64Z"/><path class="b" d="m91.84,395.39h-11.66v-11.73c1.65-.55,3.63-.11,5.55-.19,1.97-.09,3.95-.02,6.1-.02v11.94Z"/><path class="b" d="m491.05,184.62v11.67h-11.78c-.05-1.72-.12-3.65-.15-5.57-.03-1.97,0-3.94,0-6.09h11.93Z"/><path class="b" d="m456.25,419.35v-11.66h11.78c.05,1.71.12,3.64.15,5.57.03,1.97,0,3.94,0,6.1h-11.94Z"/><path class="b" d="m33.14,325.34v-11.75h11.64v11.75h-11.64Z"/><path class="b" d="m444.13,454.53v12.03h-12.03v-12.03h12.03Z"/><path class="b" d="m245.12,43.38h-12.03v-12.03h12.03v12.03Z"/><path class="b" d="m209.19,477.64h11.75v11.64h-11.75v-11.64Z"/><path class="b" d="m350.25,477.64h11.75v11.64h-11.75v-11.64Z"/><path class="b" d="m173.89,477.65v11.75h-10.55v-11.75h10.55Z"/><path class="b" d="m338.06,43.38h-10.93v-12.03h10.93v12.03Z"/><path class="b" d="m338.22,31.2v-10.66h11.64v10.66h-11.64Z"/><path class="b" d="m173.95,8.58v11.65h-10.62c-.58-1.64-.11-3.62-.2-5.54-.09-1.97-.02-3.95-.02-6.11h10.84Z"/><path class="b" d="m468.18,125.39h10.93v12.03h-10.93v-12.03Z"/><path class="b" d="m397.27,114.61h11.75v10.55h-11.75v-10.55Z"/><path class="b" d="m374.33,477.58h10.58v11.7c-1.48.56-3.29.16-5.03.22-1.79.06-3.58.01-5.55.01v-11.93Z"/><path class="b" d="m139.05,114.46h12.03v10.93h-12.03v-10.93Z"/><path class="b" d="m279.95,430.31h-11.75v-10.55h11.75v10.55Z"/><path class="b" d="m292.29,90.24v-11.75h10.55v11.75h-10.55Z"/><path class="b" d="m245.21,90.21v-11.65h10.62c.58,1.64.11,3.62.2,5.54.09,1.97.02,3.95.02,6.11h-10.84Z"/><path class="b" d="m374.15,55.41h10.93v12.03h-10.93v-12.03Z"/><path class="b" d="m57.2,372.67h11.75v10.55h-11.75v-10.55Z"/><path class="b" d="m126.87,31.2h-10.66v-10.55h10.66v10.55Z"/><path class="b" d="m116.09,125.39v-10.93h10.93v10.93h-10.93Z"/><path class="b" d="m116.09,383.45v-10.93h10.93v10.93h-10.93Z"/><path class="b" d="m163.11,196.47h10.74c.5-3.85-.04-7.79.32-12.03h11.91v12.03h47.02v10.93h-34.7c-.65,1.84-.18,3.82-.27,5.74-.09,1.97-.02,3.95-.02,6.12h10.75c-.72,2.23-1.64,4.16-1.92,6.17-.32,2.32-.07,4.72-.07,7.09v10.38c-.12.13-.22.29-.36.39-.13.1-.31.19-.46.19-10.53,0-21.07,0-31.98,0,0-4.11,0-8.07.07-12.11,3.87-.08,7.81-.08,11.72-.08v-23.76h-11.65c0,8.06,0,15.99-.07,23.84-3.53.08-6.98.08-10.91.08-.25-3.86,0-7.78-.14-11.85h-11.82v11.85h-24.23v-24.06h36.08v-10.93Z"/><path class="b" d="m280.11,348.46h-12.03v-22.67c-1.83-.66-3.82-.18-5.73-.27-1.97-.09-3.95-.02-6.3-.02v-12.03h12.03v-12.03h11.51c1.15-1.55.07-3.45.7-5.12,2.87-.51,5.84-1.48,7.69-3.53,2.05-2.27,4.24-2.3,6.76-2.28,2.69.02,5.38,0,8.19,0v10.84h-10.7v12.02h-12.13v35.09Z"/><path class="b" d="m245.12,348.46h-36.08v-11.87c7.88-.38,15.79,0,23.87-.23v-10.7c2.09-.06,4.02-.13,5.95-.16,1.97-.03,3.95,0,6.27,0v22.96Z"/><path class="b" d="m198.1,278.48h-12.03v-11.87c-1.89-.05-3.82-.13-5.75-.15-1.98-.03-3.95,0-6.1,0v-11.76h23.88v23.79Z"/><path class="b" d="m256.05,313.47h-22.86v-16.2h11.58c1.1.92-.14,2.55.69,4.17h10.59v12.03Z"/><path class="b" d="m292.14,372.52h-12.03v-24.06h12.03v24.06Z"/><path class="b" d="m268.08,348.46v12.03h-22.96v-12.03h22.96Z"/><path class="b" d="m139.22,254.28v-10.69h23.65v10.69h-23.65Z"/><path class="b" d="m127.02,266.45v-12.03h12.03v12.03h-12.03Z"/><path class="b" d="m256.05,172.41h-22.71c-.59-3.47.02-7.06-.41-10.93h-11.87v-11.92h23.91v11.92h11.08v10.93Z"/><path class="b" d="m303.07,161.48h-10.7c-.55,3.48.02,7.06-.38,10.93h-11.88v-22.79c7.52-.39,15.06-.06,22.96-.21v12.06Z"/><path class="b" d="m220.92,161.64v22.67h-11.65v-22.67h11.65Z"/><path class="b" d="m256.05,184.44v12.03h-22.96v-12.03h22.96Z"/><path class="b" d="m327.13,137.42v12.03h-11.75c-.62-1.84-.17-3.82-.26-5.74-.09-1.97-.02-3.95-.02-6.29h12.03Z"/><path class="b" d="m256.21,161.32v-11.75h11.64v11.75h-11.64Z"/><path class="b" d="m409.14,325.5h-12.03v10.93h-12.03v-22.64c-1.65-.66-3.45-.24-5.19-.31-1.79-.07-3.59-.02-5.57-.02v11.76h-12.21v-46.75h11.89c.35,3.85,0,7.78.2,12.03h10.87v10.86h11.92v12.1h12.14v12.03Z"/><path class="b" d="m385.24,290.35v-11.75h11.64v11.75h-11.64Z"/><path class="b" d="m397.11,336.43h12.03v12.03h-12.03v-12.03Z"/><path class="b" d="m421.07,407.69v11.65h-11.72c-.56-1.65-.11-3.63-.19-5.55-.09-1.97-.02-3.95-.02-6.11h11.94Z"/><path class="b" d="m362.12,219.43v12.03h-12.03v-12.03h12.03Z"/><path class="b" d="m127.02,383.45h11.87c.05,1.9.13,3.82.16,5.75.03,1.97,0,3.95,0,6.27h24.06v11.94c-7.88.21-15.79,0-23.87.13v11.72h-12.21v-35.81Z"/><path class="b" d="m163.11,383.45h10.93v12.03h-10.93v-12.03Z"/><path class="b" d="m151.08,360.49v12.03h-12.03v-12.03h12.03Z"/><path class="b" d="m163.11,360.49h-12.03v-11.75c1.84-.62,3.82-.17,5.74-.26,1.97-.09,3.95-.02,6.29-.02v12.03Z"/><path class="b" d="m163.11,372.52v10.93h-12.03v-10.93h12.03Z"/><path class="b" d="m245.12,360.49v22.96h-24.06v-10.93h11.83c.51-3.85-.04-7.79.32-12.03h11.91Z"/><path class="b" d="m209.03,372.52v-12.03h12.03v12.03h-12.03Z"/><path class="b" d="m209.03,383.45h-10.93v-10.93h10.93v10.93Z"/><path class="b" d="m221.06,395.48h-12.03v-12.03h12.03v12.03Z"/><path class="b" d="m68.88,67.34h-35.7V31.73c-.07.08.03-.08.17-.18.13-.09.31-.19.46-.19,11.63,0,23.25,0,35.07,0v35.99Z"/><path class="b" d="m432.19,67.26V31.53h35.64c-.06-.06.09.05.18.2.09.14.17.31.17.47,0,11.62,0,23.25,0,35.05h-35.99Z"/><path class="b" d="m33.16,430.56h35.73v35.63c.06-.06-.06.09-.21.18-.14.09-.31.17-.47.17-11.62,0-23.25,0-35.05,0v-35.99Z"/><path class="b" d="m151.08,125.39h12.03v11.75c-1.84.62-3.82.17-5.74.26-1.97.09-3.95.02-6.29.02v-12.03Z"/><path class="b" d="m91.87,149.6v11.75h-11.64v-11.75h11.64Z"/><path class="b" d="m162.95,196.31h-11.75v-11.64h11.75v11.64Z"/><path class="b" d="m127.02,196.47v-12.03h11.75c.62,1.84.17,3.82.26,5.74.09,1.97.02,3.95.02,6.29h-12.03Z"/><path class="b" d="m163.01,161.66v10.58h-11.7c-.56-1.48-.16-3.29-.22-5.03-.06-1.79-.01-3.58-.01-5.55h11.93Z"/><path class="b" d="m126.87,184.28h-10.66v-11.64h10.66v11.64Z"/><path class="b" d="m127.02,196.47v10.93h-10.62c-.65-1.65-.24-3.45-.3-5.2-.07-1.79-.01-3.59-.01-5.74h10.93Z"/><path class="b" d="m362.12,102.43v12.03h-12.03v-12.03h12.03Z"/><path class="b" d="m222.51,243.4c6.84,8.62,14.8,13.97,23.65,18.15,1.78-1.27,3.86-3.41,6.38-4.37,2.31-.88,1.66-2.49,1.23-3.34-1.35-2.61-2.91-5.21-4.84-7.42-4.26-4.86-7.75-10.51-13.64-13.8-1.06-.59-1.8-1.74-3.16-3.09,2.64-.07,4.85-.17,7.06-.18,5.45-.03,10.95.41,16.34-.14,4.13-.43,6.68,1.7,8.15,4.46,1.8,3.36,4.2,6.63,4.38,10.76,3.4.22,6.59-2.87,9.48-.73,2.09,1.55,5.5-1.02,6.33,2.78-2.18,2.19-3.31,5.34-4.76,8.32-2.65,5.42-6,10.41-10.42,14.54-6.17,5.77-13.46,9.01-22.01,9.09-1.89.02-3.78-.09-5.66.02-5.16.32-9.58-1.91-14.2-3.71-3.18-1.24-4.43-3.04-4.36-6.39.15-7.91.05-15.82.05-24.95Z"/></svg>