<?xml version="1.0" encoding="UTF-8"?><svg id="a" xmlns="http://www.w3.org/2000/svg" viewBox="0 0 500 500"><defs><style>.b,.c{stroke-width:0px;}.c{fill:#fff;}</style></defs><rect class="c" width="500" height="500"/><path class="b" d="m449.64,425.84h-11.46c-.61-16.81-.4-40.97.39-45.42h11.12v-33.95h22.28v-33.97h11.46v-11.73h-11.57v-10.37h-10.5c0,7.2,0,14.24,0,21.28,0,.15-.08.32-.16.46-.09.15-.23.26-.34.37h-22.83v11.51c3.75.39,7.57-.04,11.5.24v10.41h-11.41v11.72h-11.71v23.21h-10.46c-.52-7.43.04-15.12-.3-23.13h-11.57v33.8h-11.52v-10.46h-11.82v33.8h-10.46v-11.52h-11.81v11.48c-3.73.49-7.55-.04-11.67.31,0,3.88,0,7.72.07,11.63,3.75.08,7.58.08,11.56.08v10.4h11.59v11.5h-23.08c0-7.37,0-14.72-.07-21.98-3.78-.08-7.49-.08-11.58-.08-.35-7.65-.06-15.32-.19-23.34h23.37v-11.51c-1.84-.05-3.71-.12-5.58-.15-1.92-.03-3.83,0-6.09,0,0-7.55,0-14.91-.08-22.35-3.74-.08-7.56-.08-11.48-.08v-11.29h11.4c0,3.81,0,7.63.08,11.37,7.66.08,15.25.08,23.13.08.65,1.77.18,3.7.27,5.56.09,1.91.02,3.84.02,6.11h10.61v-11.48c3.73-.49,7.55.04,11.67-.31v-11.55h-11.67v-11.67h-10.45c-.05,1.84-.12,3.71-.15,5.58-.03,1.92,0,3.83,0,5.92h-11.51v-11.34h-23.24v-22.27h11.24v-34.11h11.84v-23.34h11.67v-10.61h10.61v-23.34h11.67v-11.67h-33.95v11.67h11.4c.6,1.79.17,3.71.25,5.57.08,1.91.02,3.83.02,6.1h-11.67v11.61h-11.59v10.66c-7.68,0-15.02,0-22.43.08-.08,3.74-.08,7.56-.08,11.48h-11.29v-11.4c3.81,0,7.63,0,11.37-.08.08-7.41.08-14.75.08-22.25h10.48v-11.78h11.8v-11.67h11.67v-10.55h-23.11v-23.4h11.44v-10.61c-2.27,0-4.19.07-6.1-.02-1.86-.08-3.78.36-5.57-.25v-11.4h-10.61v11.67h-23.34v10.59c7.65.04,15.33,0,23.16.02v23.07h-27.08c-2.81-1.25-5.91-1.96-9.18-1.96h-9.18v-21.12h-23.34v11.67h11.67v9.45h-11.67v-9.45h-22.28v9.45h-15.84c-3.5,0-6.81.8-9.76,2.22h-20.01v-11.67h-11.55c-.35,4.11.18,7.94-.31,11.67h-10.42v10.61h-35.01v23.34h23.5v-11.49h11.47c.14,3.95-.11,7.75.13,11.49,3.81,0,7.16,0,10.58-.08.07-7.61.07-15.31.07-23.13h11.3v23.05c-3.79,0-7.62,0-11.37.08-.07,3.92-.07,7.76-.07,11.75,6.41,0,12.68,0,18.91,0v10.87h-18.73v11.41c2.08,0,4-.02,5.92,0,1.87.03,3.74.1,5.58.15v11.51h7.24v11.39c0,3.96,1.03,7.68,2.82,10.91-1.3.09-2.65-.11-3.96-.05-1.91.09-3.83.02-6.1.02v-22.28h-11.6c-.17,7.29,0,14.6-.09,22.09h-10.38c-.51-3.19.05-6.66-.34-10.42-3.86,0-7.69,0-11.53.07v9.97c-.11.13-.21.28-.35.38-.13.09-.29.19-.44.19-10.9,0-21.8,0-32.93,0v-10.47c11.26,0,22.49,0,33.72-.07v-11.68h11.46v-11.72h-23.13v11.4c-1.79.6-3.71.17-5.57.25-1.91.08-3.83.02-6.1.02v-11.67h-10.61v11.67h-11.67v11.64c-8.02.1-15.69-.06-23.34.1,0,3.84,0,7.19.08,10.62,3.74.08,7.56.08,11.48.08v11.29h-11.4c0-3.81,0-7.63-.08-11.37-3.61-.08-7.15-.08-10.68-.08v11.56c-4.11.32-7.93-.17-11.49.26v11.41c3.94.33,7.76-.19,11.31.27v10.32c-3.94.36-7.76-.21-11.49.33v11.46h33.95c0,2.24.02,4.16,0,6.07-.03,1.88-.1,3.75-.16,5.78h-11.41v11.48h34.91v-11.67h22.28v-11.51c-1.85-.05-3.73-.12-5.61-.15-1.92-.03-3.83,0-5.9,0v-11.43h45.37v11.38h11.65v11.72h-22.17v11.67h10.61v10.61h11.67v-10.61h11.67v-11.67h10.61v-11.67h-10.45v-11.54h-11.59v-10.67h33.51v-11.75h11.97v.02h22.18v-.02h11.67v.02h-11.67v11.67c2.27,0,4.2-.07,6.11.02,1.86.09,3.78-.38,5.56.26v21.99h11.67v-33.97h9.18c.6,0,1.2-.03,1.79-.08h.8v-.07c11.23-1.28,19.95-10.81,19.95-22.38v-11.44h2.21v11.71c4.01,0,7.85,0,11.76-.08.07-3.74.07-7.55.07-11.48h10.23v11.4c-3.45,0-6.92,0-10.31.08-.07,7.44-.07,14.8-.07,22.33h-11.48v11.48c1.6.55,3.52.1,5.38.19,1.91.09,3.83.02,5.92.02v10.44c-7.47.38-15.14.05-22.98.2v-10.64c-3.59,0-7.02,0-10.79,0v22.28h10.4c.52,3.73-.04,7.55.32,11.49h11.4c.05-1.66.12-3.52.15-5.39.03-1.91,0-3.83,0-5.92h11.66c.03,7.47,0,15.13.02,22.97h10.22c.71,1.79.3,3.53.37,5.22.07,1.74.01,3.48.01,5.39h-10.41c-.48,3.92.02,7.74-.31,11.85h-11.56c0,11.32,0,22.63.08,34.02,7.26.07,14.61.07,22.07.07v11.3h-21.99c0-3.79,0-7.62-.08-11.37-3.79-.07-7.49-.07-11.2-.07-.13-.12-.28-.22-.37-.36-.09-.13-.17-.3-.17-.45,0-7.03,0-14.07,0-21.46h-10.61v22.28h-11.67v23.34c2.27,0,4.19.07,6.11-.02,1.86-.09,3.79.39,5.76-.35v-11.18h10.48v23.31h23.03v10.64h-22.84v11.38h33.69c0-2.08-.02-3.99,0-5.91.03-1.88.1-3.75.15-5.6h11.51v-22.18h11.71v11.45h22.32v-23.07h11.71v33.64h11.44c.33-3.58-.17-7.06.31-10.45h11.47v-11.48c-3.73-.47-7.56.04-11.49-.28v-11.31h33.77v11.41h11.68c-.04-8.02.05-15.69-.06-23.53Zm-329.95-91.22h-34.85c-.14-3.21,0-6.64-.08-10.25h34.93v10.25Zm33.86-10.58c-7.47.36-15.13.02-22.97.19v-11.63h22.97v11.43Zm67.66-54.45c.15-8.13.05-16.26.05-25.64,7.03,8.86,15.21,14.36,24.31,18.66,1.83-1.31,3.97-3.5,6.56-4.49,2.37-.91,1.71-2.56,1.26-3.44-1.39-2.69-2.99-5.36-4.97-7.62-4.38-4.99-7.96-10.8-14.01-14.18-1.09-.61-1.85-1.79-3.24-3.18,2.71-.07,4.98-.18,7.26-.19,5.6-.03,11.25.42,16.79-.15,4.24-.44,6.87,1.75,8.38,4.58,1.85,3.45,4.31,6.81,4.5,11.06,3.49.22,6.77-2.95,9.74-.75,2.14,1.59,5.65-1.05,6.5,2.86-2.24,2.25-3.4,5.49-4.89,8.55-2.72,5.57-6.16,10.7-10.71,14.95-6.34,5.93-13.83,9.26-22.62,9.34-1.94.02-3.89-.1-5.82.02-5.3.33-9.84-1.96-14.59-3.81-3.27-1.27-4.55-3.12-4.48-6.57Zm91.47-25.09h-2.06v-11.53c.68.01,1.37.04,2.06.1v11.43Zm-2.06-23.25v-1.92c0-3.42-.77-6.67-2.13-9.57h15.82v11.49h-13.68Zm115.36,204.61c-.13.08-.3.16-.46.16-10.92,0-21.84,0-32.94,0v-33.85h33.6v33.51c.06-.06-.06.09-.2.18Z"/><path class="b" d="m244.81,415.31h-11.29v-11.4c3.81,0,7.63,0,11.37-.08.08-3.89.08-7.71.08-11.74h-23.34v11.61c-7.3.13-14.61.01-22.28.07v-23.35h-11.67v34.94h-11.6v10.68h-56.29v11.78h10.68v11.56h11.41v11.69h-11.53v10.47h-10.66v-10.34h-11.33v21.98h45.5v-22.28h11.54c-.05-3.97.04-7.75-.05-11.51h-23.3v-11.67c11.29,0,22.22,0,33.14,0,.15,0,.32.09.45.18.14.1.24.25.35.38v33.38h11.56c.33,4.11-.17,7.93.27,11.49h11.51c0-2.09-.07-4.01.02-5.92.08-1.86-.36-3.78.25-5.56h10.34v-10.61h-10.42c-.42-2.54-.13-5.15-.18-7.73-.05-2.47-.01-4.95-.01-7.42v-8.05h-11.43v-11.73h11.38v-10.58h22.33c0,3.53,0,7.02.08,10.57,7.61.07,15.31.07,23.13.07v11.3h-23.05c0-3.79,0-7.62-.08-11.37-3.9-.07-7.73-.07-11.75-.07v35.01h11.69v-11.46h23.19v11.56h-11.39v21.92h11.69v-11.41c1.92,0,3.67.05,5.41-.02,1.69-.07,3.44.36,5.03-.3v-67.57c-3.54,0-7.07,0-10.68.08-.08,3.74-.08,7.56-.08,11.48Z"/><path class="b" d="m380.73,181.26c.08,1.91.02,3.83.02,6.1h-10.61v11.12c.12.13.22.28.36.37.13.09.3.17.45.17,7.03,0,14.07,0,21.46,0v10.61h11.67v-22.22h-11.46v-11.61h33.61v11.55h23.47v-11.8h33.95c0-11.22,0-22.13,0-33.03,0-.15-.1-.32-.19-.44-.1-.13-.25-.23-.38-.34h-11.09v11.5h-10.47v11.59h-35v-11.35h23.08v-11.55h-22.85c-.75-1.97-.26-3.9-.35-5.76-.1-1.92-.02-3.84-.02-6.11h35.01v-10.62h-11.71v-11.54h-23.37v11.64h-10.65v22.31h-11.71v11.7h-23.11c-.28,3.95.16,7.77-.25,11.51h-10.45v10.61h10.34c.6,1.79.17,3.71.25,5.57Z"/><path class="b" d="m153.74,90.55c.03,1.87.1,3.74.15,5.4h11.4c.36-3.94-.21-7.76.29-11.3h10.45v11.28h11.55c.33-7.49-.24-14.81.32-22.26h21.94c.35-3.94-.2-7.76.31-11.49h11.47v-11.8h-11.53v-11.54h23.2v-10.63h-11.71v-11.53h-22.31v22.25h-23.37v11.42h-22.31V16.74h-11.53c0,7.2,0,14.24,0,21.28,0,.15-.08.32-.16.46-.09.15-.23.26-.32.37h-11.17v11.67c-7.39,0-14.43,0-21.46,0-.15,0-.32.08-.45.17-.14.1-.24.25-.18.18v23.01c7.49-.17,14.8.21,22.29-.24v-11.31c16.73-.61,40.95-.4,45.24.36v11.16c-11.1,0-22.02,0-32.94,0-.15,0-.32.08-.45.17-.14.1-.25.25-.37.37v10.06h11.67c0,2.26-.02,4.18,0,6.09Zm33.96-33.92c-.09-1.91-.02-3.83-.02-5.93h11.6c.15,3.7.05,7.59.07,11.48h-11.38c-.64-1.77-.18-3.69-.26-5.55Z"/><path class="b" d="m16.89,90.82v5.2h79.4V16.57c-23.95,0-47.63,0-71.3.02-.99,0-1.9.02-2.96.54-3.39,1.68-5.16,4.09-5.16,7.93.03,21.92.02,43.84.02,65.77Zm11.85-62.05c4.21-.8,38.34-1.05,55.85-.37v55.96H28.75V28.77Z"/><path class="b" d="m483.62,24.67c0-.99-.02-1.9-.54-2.96-1.68-3.39-4.1-5.16-7.93-5.16-21.92.03-43.84.02-65.77.02h-5.2v79.4h79.45c0-23.95,0-47.63-.02-71.3Zm-11.82,59.7h-55.88V28.74c4.24-.72,41.72-.95,55.88-.31v55.94Z"/><path class="b" d="m16.91,475.22c0,.99.02,1.9.54,2.96,1.68,3.39,4.1,5.16,7.93,5.16,21.92-.03,43.84-.02,65.77-.02h5.2v-79.4H16.89c0,23.95,0,47.63.02,71.3Zm11.84-59.62h55.94v55.88H29.06c-.72-4.24-.95-41.86-.31-55.88Z"/><path class="b" d="m415.75,232.97v22.28c3.68,0,7.14,0,10.68-.07.08-3.39.08-6.85.08-10.42h11.29v10.35c-3.81,0-7.63,0-11.37.07-.08,3.89-.08,7.71-.08,11.74h-22.28v45.61h11.4c.6,1.79.17,3.71.25,5.57.08,1.91.02,3.83.02,6.1h-11.67v10.61h22.08c.45-7.29.04-14.61.25-22.28h11.62v-11.67h-22.18v-10.42h10.18c.66-1.97.23-3.9.31-5.76.08-1.91.02-3.83.02-6.1h11.67v-11.67c11.29,0,22.22,0,33.15,0,.15,0,.32-.09.45-.19.14-.1.23-.25.15-.15v-11.37h-10.49v-10.66h-11.34v-11.72h11.42c0-2.1.02-4.01,0-5.93-.03-1.87-.1-3.75-.15-5.59h-23.18v11.67h-22.28Z"/><path class="b" d="m187.68,175.67v11.68h11.48c.44-7.29.06-14.6.22-22.09h-11.5c-.44-7.83-.04-15.5-.25-23.34h11.56c.43,3.55-.06,7.38.25,11.31h10.34v-33.59h11.67v10.43h23.51v-22.15c-4.12-.37-7.94.19-11.87-.36v-22.99h-11.54v23.09h-11.7v-23.05h-10.65v23.34h-11.53c0,7.22,0,14.26,0,21.29,0,.15-.08.32-.16.46-.09.15-.23.26-.32.37h-11.17v45.6h11.67Z"/><path class="b" d="m50.94,153.58h23.05c.45-3.91-.02-7.74.29-11.84h22.17c0-3.89,0-7.78-.08-11.74-3.74-.07-7.55-.07-11.48-.07v-10.23h11.4c0,3.45,0,6.92.08,10.31,3.97.07,7.86.07,11.75.07v-22.28c-11.27,0-22.2,0-33.12,0-.15,0-.32.08-.46.16-.15.09-.26.23-.56.49v11.01c-11.46,0-22.74,0-34.02,0-.15,0-.32-.09-.45-.18-.14-.1-.24-.25-.55-.6v-10.77h-21.87v11.64h11.22v10.65h-11.19v23.05h11.33c.28-3.94-.16-7.76.25-11.5,3.74,0,7.09,0,10.53-.07.08-3.76.08-7.58.08-11.5h22.95v11.43c-7.72,0-15.41,0-23.03.07-.08,7.85-.08,15.63-.08,23.41h11.48c.47-3.73-.04-7.56.28-11.49Z"/><path class="b" d="m245.33,141.57c.13.09.3.17.46.17,10.92,0,21.84,0,32.94,0v-11.4h45.79v11.4h10.61v-33.95h-44.55v-11.67h-11.54c-.38-4.12.19-7.94-.31-11.47h-11.49c0,15,0,29.81,0,44.62,0,.15-.09.32-.18.45-.1.14-.25.24-.38.35h-21.71v11.12c.12.13.23.28.37.37Z"/><path class="b" d="m346.8,84.46h11.67v-22.28h11.67V16.79h-11.74v33.72h-23.27v57.28h11.67v-23.34Z"/><path class="b" d="m119.79,266.92v-11.67h10.61v-22.28h-22.08c-.48-7.64.01-15.32-.29-23.34h-11.58v11.67h-11.67v11.55c4.11.35,7.94-.18,11.67.31v11.48h11.36c.63,1.6.23,3.35.29,5.04.07,1.74.01,3.48.01,5.57h-11.67v11.67h-11.67v11.67h23.34v-11.67h11.67Z"/><path class="b" d="m426.23,199.21h-10.29c-.48,3.2.04,6.67-.32,10.43h-11.54v11.67h-11.67v23.34h-11.67v10.61h-10.61v11.67h33.95v-33.95h11.67v-11.67h22.28v-11.67h-11.43c-.56-3.37.02-6.84-.37-10.43Z"/><path class="b" d="m50.69,358h-11.52v-33.8h-22.28c0,2.08-.05,3.82.01,5.56.06,1.69-.33,3.44.36,5.24h11.19v11.52h-11.57c0,15.17,0,29.97,0,44.78,0,.15.09.32.19.45.1.14.25.23.16.15h11.35v-22.08h33.91v-23.34h-11.82v11.52Z"/><path class="b" d="m96.45,255.25v-10.61h-34.05v-23.43h-11.66v-11.44h-11.57v45.48h35.01c0,2.25-.02,4.16,0,6.08.03,1.87.1,3.75.15,5.59h10.45v-11.67h11.67Z"/><path class="b" d="m96.45,209.63c0-3.54,0-7.07-.08-10.68-3.74-.08-7.56-.08-11.48-.08v-11.29h11.4c0,3.81,0,7.63.08,11.37,3.77.08,7.47.08,11.17.08.13-.11.28-.21.38-.34.09-.13.19-.29.19-.44,0-7.38,0-14.76,0-22.45h-33.81v-10.46h-11.8v22.03h11.4c.6,1.79.17,3.71.25,5.57.08,1.91.02,3.83.02,6.1h-11.67v10.72h11.74v11.56h10.54v-11.67h11.67Z"/><path class="b" d="m255.55,44.42c.08,1.91.02,3.83.02,6.1h-10.61v23.34c11.27,0,22.2,0,33.12,0,.15,0,.32-.08.46-.17.15-.09.27-.23.37-.32v-11.18h-11.57V28.19h11.43v-11.38h-23.34v11.43c-1.92,0-3.66-.05-5.4.01-1.7.06-3.46-.32-5.08.28v10.32h10.34c.6,1.79.17,3.71.25,5.57Z"/><path class="b" d="m312.85,392.09v-11.59h-11.55v-10.69h-10.72v10.34c-1.79.6-3.71.17-5.57.25-1.91.08-3.83.02-6.1.02v-10.61h-11.59v22.14h-11.75v11.8h35.01v-11.67h22.28Z"/><path class="b" d="m96.45,141.74v11.67h23.26v11.45h10.59v-11.34h11.77v-23.45h-11.67v11.36c-1.6.63-3.35.23-5.04.29-1.74.07-3.48.01-5.57.01v-11.67h-11.67v11.67h-11.67Z"/><path class="b" d="m16.99,312.32h11.64v-11.56h22.04v-10.5h-7.5c-2.47,0-4.95,0-7.42,0-2.41,0-4.81,0-7.2-.01v-11.47h-11.57v33.55Z"/><path class="b" d="m108.3,380.42c-.62,15.33-.41,41.22.36,45.61h11.12v-45.61h-11.49Z"/><path class="b" d="m142.07,84.46h-11.55c-.35,4.11.18,7.94-.31,11.67h-10.42v11.53c3.76.39,7.23-.17,10.61.37v11.44h11.67v-35.01Z"/><path class="b" d="m312.63,50.43h-22.11v-11.48h-11.46v23.09h33.57v-11.61Z"/><path class="b" d="m28.7,165.08c-.38,3.76.17,7.23-.39,10.79h-11.45c.14,7.84-.13,15.51.15,22.97h11.44c.34-3.94-.2-7.76.31-11.49h10.41v-22.28h-10.47Z"/><path class="b" d="m358.47,129.88c-3.73.49-7.55-.04-11.67.31v11.55h23.41v-11.72h10.54v-10.56h-22.28v10.42Z"/><path class="b" d="m22.48,209.64c-1.87.03-3.74.1-5.41.15v34.76h11.33v-34.91c-2.08,0-4-.02-5.91,0Z"/><path class="b" d="m370.02,84.46h-11.55v23.34h22.28v-11.67h-10.42c-.49-3.73.04-7.55-.31-11.67Z"/><path class="b" d="m449.54,471.79h-11.27v11.4h22.95v-21.99h-11.68v10.59Z"/><path class="b" d="m386.84,50.51c1.87-.03,3.74-.1,5.4-.15V16.66h-11.32v33.85c2.09,0,4,.02,5.92,0Z"/><path class="b" d="m278.72,471.65c-2.1,0-4.02-.07-5.93.02-1.86.09-3.78-.38-5.36.2v11.46c7.85-.04,15.5.05,22.97-.05v-22.14h-11.68v10.52Z"/><path class="b" d="m444.13,199.01c-1.91.09-3.83.02-6.1.02v10.61h23.35c-.05-7.66.04-14.98-.05-22.28h-11.63v11.4c-1.78.61-3.71.17-5.57.25Z"/><path class="b" d="m461.59,437.52h21.79v-21.92h-11.4v10.62h-10.61c0,2.1-.07,4.02.02,5.93.09,1.86-.39,3.78.2,5.37Z"/><path class="b" d="m461.53,461.21h10.6v10.29h11.29v-22.02h-21.89v11.73Z"/><path class="b" d="m165.4,130.07h10.61v-22.32c-7.66.18-14.98-.2-22.28.23v11.48h11.67v10.61Z"/><path class="b" d="m39.17,187.36v11.67h23.34v-11.67h-23.34Z"/><path class="b" d="m483.5,209.82h-11.44v22.97h11.61c-.12-7.84.16-15.51-.16-22.97Z"/><path class="b" d="m472.11,369.59h11.43v-22.95h-11.43v22.95Z"/><path class="b" d="m370.14,187.36v-11.67h-23.34v11.67h23.34Z"/><path class="b" d="m392.45,96.13c-.18-7.67.2-14.98-.23-22.28h-11.48v22.28h11.71Z"/><path class="b" d="m313.03,74.06v21.98h11.31v-22.19c-2.09,0-4.01-.07-5.92.02-1.86.08-3.78-.36-5.39.19Z"/><path class="b" d="m471.85,380.56h-21.99v11.3h21.99v-11.3Z"/><path class="b" d="m74.03,278.81h-11.43v21.89h11.43v-21.89Z"/><path class="b" d="m449.74,300.86c-.18-7.67.2-14.98-.23-22.28h-11.48v22.28h11.71Z"/><path class="b" d="m28.56,278.58h10.61v-23.34h-10.61v23.34Z"/><path class="b" d="m324.36,28.46h-23.05v10.24h23.05v-10.24Z"/><path class="b" d="m415.75,483.32c2.09,0,3.83.05,5.57-.01,1.69-.06,3.44.34,5.04-.3v-21.97h-10.61v22.28Z"/><path class="b" d="m233.18,73.63v-11.29h-11.4v11.29h11.4Z"/><path class="b" d="m119.64,84.68h-11.4v11.29h11.4v-11.29Z"/><path class="b" d="m392.41,119.47v-11.67h-11.67v11.67h11.67Z"/><path class="b" d="m335.13,153.41h11.67v-11.67h-11.67v11.67Z"/><path class="b" d="m369.98,164.93v-11.29h-11.4v11.29h11.4Z"/><path class="b" d="m90.35,380.44c-1.86.08-3.78-.35-5.39.19v11.38h11.31v-11.58c-2.09,0-4.01-.06-5.92.02Z"/><path class="b" d="m483.55,198.85v-11.32h-11.58c0,2.08-.02,4,0,5.91.03,1.87.1,3.74.15,5.41h11.43Z"/><path class="b" d="m449.79,403.93v11.32h11.58c0-2.09.02-4,0-5.91-.03-1.87-.1-3.74-.15-5.4h-11.43Z"/><path class="b" d="m50.61,324.05v-11.4h-11.29v11.4h11.29Z"/><path class="b" d="m426.36,461.04h11.67v-11.67h-11.67v11.67Z"/><path class="b" d="m244.96,50.51v-11.67h-11.67v11.67h11.67Z"/><path class="b" d="m210.11,483.09h11.4v-11.29h-11.4v11.29Z"/><path class="b" d="m346.95,483.09h11.4v-11.29h-11.4v11.29Z"/><path class="b" d="m165.63,483.2h10.23v-11.4h-10.23v11.4Z"/><path class="b" d="m324.52,38.84v11.67h10.61v-11.67h-10.61Z"/><path class="b" d="m346.57,28.35h-11.29v10.35h11.29v-10.35Z"/><path class="b" d="m165.61,28.05h10.31v-11.3h-10.52c0,2.1-.07,4.02.02,5.93.09,1.86-.37,3.78.19,5.37Z"/><path class="b" d="m471.97,141.74v-11.67h-10.61v11.67h10.61Z"/><path class="b" d="m403.97,119.61h-11.4v10.23h11.4v-10.23Z"/><path class="b" d="m370.31,483.32c1.91,0,3.65.05,5.38-.01,1.69-.06,3.44.32,4.88-.22v-11.35h-10.26v11.58Z"/><path class="b" d="m153.73,130.07v-10.61h-11.67v10.61h11.67Z"/><path class="b" d="m278.75,415.65h-11.4v10.23h11.4v-10.23Z"/><path class="b" d="m300.96,95.97v-11.4h-10.23v11.4h10.23Z"/><path class="b" d="m255.36,84.64h-10.31v11.3h10.52c0-2.1.07-4.02-.02-5.93-.09-1.86.37-3.78-.19-5.37Z"/><path class="b" d="m380.74,73.85v-11.67h-10.61v11.67h10.61Z"/><path class="b" d="m62.66,369.96v10.23h11.4v-10.23h-11.4Z"/><path class="b" d="m130.24,28.46h-10.34v10.23h10.34v-10.23Z"/><path class="b" d="m130.4,119.47h-10.61v10.61h10.61v-10.61Z"/><path class="b" d="m130.4,369.81h-10.61v10.61h10.61v-10.61Z"/><path class="b" d="m244.96,324.2c-2.25,0-4.17-.02-6.08,0-1.87.03-3.75.1-5.77.16v10.38c-7.84.23-15.51-.15-23.15.22v11.51h35.01v-22.28Z"/><path class="b" d="m290.58,369.81v-23.34h-11.67v23.34h11.67Z"/><path class="b" d="m244.96,358.14h22.28v-11.67h-22.28v11.67Z"/><path class="b" d="m165.18,244.74h-22.95v10.37h22.95v-10.37Z"/><path class="b" d="m130.4,255.25v11.67h11.67v-11.67h-11.67Z"/><path class="b" d="m244.83,165.08v-11.56h-23.2v11.56h11.52c.42,3.76-.18,7.24.39,10.61h22.04v-10.61h-10.75Z"/><path class="b" d="m278.91,153.58v22.11h11.53c.39-3.76-.17-7.23.37-10.61h10.38v-11.7c-7.67.14-14.98-.18-22.28.2Z"/><path class="b" d="m210.18,187.23h11.3v-21.99h-11.3v21.99Z"/><path class="b" d="m312.85,141.74c0,2.27-.07,4.19.02,6.1.08,1.86-.35,3.79.25,5.57h11.4v-11.67h-11.67Z"/><path class="b" d="m267.01,153.52h-11.29v11.4h11.29v-11.4Z"/><path class="b" d="m392.41,324.2h11.67v-11.67h-11.78v-11.74h-11.56v-10.54h-10.55c-.2-4.12.14-7.93-.19-11.67h-11.54v45.35h11.84v-11.41c1.92,0,3.66-.05,5.4.01,1.69.06,3.44-.35,5.04.3v21.97h11.67v-10.61Z"/><path class="b" d="m392.19,278.7h-11.29v11.4h11.29v-11.4Z"/><path class="b" d="m392.41,334.81v11.67h11.67v-11.67h-11.67Z"/><path class="b" d="m404.1,409.86c.08,1.86-.36,3.78.19,5.38h11.37v-11.3h-11.58c0,2.09-.07,4.01.02,5.92Z"/><path class="b" d="m346.8,232.97h11.67v-11.67h-11.67v11.67Z"/><path class="b" d="m142.06,386c-.03-1.87-.1-3.74-.15-5.58h-11.51v34.74h11.85v-11.37c7.84-.12,15.51.08,23.16-.12v-11.58h-23.34c0-2.26.02-4.17,0-6.09Z"/><path class="b" d="m165.4,392.09h10.61v-11.67h-10.61v11.67Z"/><path class="b" d="m153.73,369.81v-11.67h-11.67v11.67h11.67Z"/><path class="b" d="m159.3,346.49c-1.86.08-3.79-.35-5.57.25v11.4h11.67v-11.67c-2.27,0-4.19-.07-6.1.02Z"/><path class="b" d="m153.73,380.42h11.67v-10.61h-11.67v10.61Z"/><path class="b" d="m233.1,369.81h-11.48v10.61h23.34v-22.28h-11.55c-.35,4.11.18,7.94-.31,11.67Z"/><path class="b" d="m221.62,369.81v-11.67h-11.67v11.67h11.67Z"/><path class="b" d="m209.96,380.42v-10.61h-10.61v10.61h10.61Z"/><path class="b" d="m209.96,392.09h11.67v-11.67h-11.67v11.67Z"/><path class="b" d="m39.52,39.03c-.14.1-.24.25-.17.17v34.55h34.64v-34.92c-11.46,0-22.74,0-34.02,0-.15,0-.32.09-.45.18Z"/><path class="b" d="m426.45,39.02v34.66h34.92c0-11.45,0-22.72,0-34,0-.15-.08-.32-.16-.46-.09-.15-.23-.26-.18-.2h-34.57Z"/><path class="b" d="m73.8,460.87c.15-.09.26-.24.2-.18v-34.57h-34.66v34.92c11.45,0,22.72,0,34,0,.15,0,.32-.08.46-.16Z"/><path class="b" d="m153.73,141.74c2.27,0,4.19.07,6.1-.02,1.86-.08,3.79.35,5.57-.25v-11.4h-11.67v11.67Z"/><path class="b" d="m96.3,153.56h-11.29v11.4h11.29v-11.4Z"/><path class="b" d="m153.85,198.87h11.4v-11.29h-11.4v11.29Z"/><path class="b" d="m142.05,192.93c-.08-1.86.35-3.79-.25-5.57h-11.4v11.67h11.67c0-2.27.07-4.19-.02-6.1Z"/><path class="b" d="m153.97,175.51h11.35v-10.26h-11.58c0,1.91-.05,3.64.01,5.38.06,1.69-.32,3.44.22,4.88Z"/><path class="b" d="m130.25,175.91h-10.35v11.29h10.35v-11.29Z"/><path class="b" d="m119.79,199.02c0,2.09-.05,3.83.01,5.57.06,1.69-.34,3.44.29,5.04h10.3v-10.61h-10.61Z"/><path class="b" d="m346.8,107.8v11.67h11.67v-11.67h-11.67Z"/></svg>