<?xml version="1.0" encoding="UTF-8"?>
<svg id="_图层_1" data-name="图层 1" xmlns="http://www.w3.org/2000/svg" viewBox="0 0 400 200">
  <path d="M113.02,98.48c.58,.06,1.18,.09,1.78,.09,4.97,0,10.24-2.05,12.29-4.2l.85-.89v-19.69h-12.59v6.17h6.42v10.72c-1.63,.87-5.03,2.04-8.23,1.64-2.12-.26-3.61-1.16-4.57-2.73-4.49-7.39-3.33-21.44-.25-26.01,.74-1.1,3.46-4.03,7.11-4.37,1.6-.15,3.23,.23,4.87,1.14,2.37,1.31,5.3,.98,7.22-.93l.68-.68c-4.18-4.21-8.68-6.12-13.35-5.68-5.81,.55-10.06,4.7-11.65,7.07-4.58,6.79-5.45,23.53,.1,32.66,1.99,3.28,5.22,5.24,9.34,5.68Z"/>
  <path d="M156.45,75.22c3.61-4.77,3.54-11.39-.17-16.08-2.51-3.16-6.26-4.98-10.3-4.98h-12.34v43.67h6.3v-17.22h5.9c.08,0,.16-.01,.24-.01l6.42,14.97c.59,1.38,1.94,2.27,3.44,2.27h4.82l-8.53-18.93c1.6-.9,3.05-2.13,4.22-3.68Zm-16.51-14.76h6.04c2.1,0,4.05,.94,5.36,2.59,1.93,2.44,1.97,5.88-.04,8.54-1.28,1.7-3.32,2.71-5.45,2.71h-5.9v-13.84Z"/>
  <path d="M295.86,75.22c3.61-4.77,3.54-11.39-.17-16.08-2.51-3.16-6.26-4.98-10.3-4.98h-12.34v43.67h6.3v-17.22h5.9c.08,0,.16-.01,.24-.01l6.42,14.97c.59,1.38,1.94,2.27,3.44,2.27h4.82l-8.53-18.93c1.6-.9,3.05-2.13,4.22-3.68Zm-16.51-14.76h6.04c2.1,0,4.05,.94,5.36,2.59,1.93,2.44,1.97,5.88-.04,8.54-1.28,1.7-3.32,2.71-5.45,2.71h-5.9v-13.84Z"/>
  <polygon points="170.79 79.14 183.28 79.14 184.48 72.84 170.79 72.84 170.79 60.46 185.68 60.46 186.88 54.16 164.48 54.16 164.48 97.83 185.68 97.83 186.88 91.52 170.79 91.52 170.79 79.14"/>
  <polygon points="204.95 72.84 192.45 72.84 191.26 79.14 204.95 79.14 204.95 91.52 190.05 91.52 188.86 97.83 211.25 97.83 211.25 54.16 190.05 54.16 188.86 60.46 204.95 60.46 204.95 72.84"/>
  <polygon points="210.29 109.46 210.29 120.48 216.59 121.68 216.59 109.46 230.52 109.46 230.52 122.88 236.82 124.08 236.82 103.14 190.05 103.14 190.05 122.88 196.36 124.08 196.36 109.46 210.29 109.46"/>
  <polygon points="216.59 140.7 216.59 129.65 210.29 128.46 210.29 140.7 196.36 140.7 196.36 127.25 190.05 126.06 190.05 147 236.82 147 236.82 127.25 230.52 126.06 230.52 140.7 216.59 140.7"/>
  <polygon points="254.71 79.14 267.21 79.14 267.21 72.84 254.71 72.84 254.71 60.46 269.25 60.46 269.25 54.16 248.41 54.16 248.41 97.83 269.61 97.83 269.61 91.52 254.71 91.52 254.71 79.14"/>
  <path d="M237.01,89.58l-9.3-32.7c-.46-1.61-1.93-2.72-3.6-2.72h-7.75v43.67h6.3V62.17l9.37,32.94c.46,1.61,1.93,2.72,3.6,2.72h7.68V54.16h-6.3v35.42Z"/>
  <path d="M108.19,103.14h-6.62v43.86h6.62c7.99,0,15.34-4.34,19.2-11.34,3.66-6.63,3.66-14.55,0-21.18-3.86-6.99-11.21-11.34-19.2-11.34Zm13.61,29.44c-2.73,4.96-7.95,8.04-13.61,8.04h-.24v-31.09h.24c5.66,0,10.88,3.08,13.61,8.04,2.59,4.7,2.59,10.32,0,15.02Z"/>
  <path d="M142.1,103.16l-12.26,43.84h7.24l2.21-9.45h11.99l1.59,6.59c.41,1.68,1.91,2.86,3.64,2.86h4.31l-11.86-41.14c-.46-1.61-1.94-2.71-3.61-2.71h-3.26Zm-1.34,28.1l4.42-18.95,4.58,18.95h-9Z"/>
  <polygon points="170.79 103.14 164.48 103.14 164.48 146.99 185.46 146.99 185.46 140.69 170.79 140.69 170.79 103.14"/>
</svg>