<svg id="a" xmlns="http://www.w3.org/2000/svg" viewBox="0 0 444 444"><defs><style>.b{stroke-width:0px;}</style></defs><rect class="b" x="174.91" width="13.45" height="13.45"/><polygon class="b" points="269.09 0 255.64 0 242.18 0 228.73 0 215.27 0 215.27 13.45 215.27 26.91 228.73 26.91 228.73 13.45 242.18 13.45 242.18 26.91 255.64 26.91 269.09 26.91 269.09 13.45 269.09 0"/><path class="b" d="m430.55,0h-80.73v94.18h94.18V0h-13.45Zm0,26.91v53.82h-67.27V13.45h67.27v13.45Z"/><polygon class="b" points="174.91 13.45 161.45 13.45 161.45 26.91 148 26.91 148 40.36 148 53.82 134.55 53.82 134.55 67.27 134.55 80.73 134.55 94.18 148 94.18 148 80.73 161.45 80.73 161.45 67.27 161.45 53.82 161.45 40.36 174.91 40.36 188.36 40.36 188.36 26.91 174.91 26.91 174.91 13.45"/><rect class="b" x="188.36" y="13.45" width="13.45" height="13.45"/><polygon class="b" points="309.45 26.91 309.45 40.36 322.91 40.36 322.91 53.82 336.36 53.82 336.36 40.36 336.36 26.91 322.91 26.91 322.91 13.45 336.36 13.45 336.36 0 322.91 0 309.45 0 296 0 282.55 0 282.55 13.45 282.55 26.91 296 26.91 309.45 26.91"/><polygon class="b" points="134.55 26.91 134.55 13.45 134.55 0 121.09 0 107.64 0 107.64 13.45 121.09 13.45 121.09 26.91 121.09 40.36 107.64 40.36 107.64 53.82 121.09 53.82 134.55 53.82 134.55 40.36 134.55 26.91"/><rect class="b" x="201.82" y="26.91" width="13.45" height="13.45"/><polygon class="b" points="390.18 26.91 376.73 26.91 376.73 40.36 376.73 53.82 376.73 67.27 390.18 67.27 403.64 67.27 417.09 67.27 417.09 53.82 417.09 40.36 417.09 26.91 403.64 26.91 390.18 26.91"/><polygon class="b" points="309.45 40.36 296 40.36 296 53.82 282.55 53.82 282.55 67.27 269.09 67.27 269.09 80.73 269.09 94.18 282.55 94.18 282.55 80.73 296 80.73 296 67.27 309.45 67.27 309.45 80.73 322.91 80.73 322.91 67.27 322.91 53.82 309.45 53.82 309.45 40.36"/><polygon class="b" points="53.82 67.27 67.27 67.27 67.27 53.82 67.27 40.36 67.27 26.91 53.82 26.91 40.36 26.91 26.91 26.91 26.91 40.36 26.91 53.82 26.91 67.27 40.36 67.27 53.82 67.27"/><polygon class="b" points="242.18 67.27 242.18 53.82 255.64 53.82 255.64 67.27 269.09 67.27 269.09 53.82 282.55 53.82 282.55 40.36 282.55 26.91 269.09 26.91 269.09 40.36 255.64 40.36 242.18 40.36 228.73 40.36 228.73 53.82 215.27 53.82 215.27 67.27 228.73 67.27 228.73 80.73 242.18 80.73 242.18 67.27"/><path class="b" d="m26.91,94.18h67.27V0H0v94.18h26.91Zm-13.45-26.91V13.45h67.27v67.27H13.45v-13.45Z"/><rect class="b" x="107.64" y="80.73" width="13.45" height="13.45"/><polygon class="b" points="255.64 80.73 242.18 80.73 242.18 94.18 242.18 107.64 255.64 107.64 269.09 107.64 269.09 94.18 255.64 94.18 255.64 80.73"/><rect class="b" x="296" y="80.73" width="13.45" height="13.45"/><polygon class="b" points="148 94.18 148 107.64 161.45 107.64 161.45 121.09 174.91 121.09 174.91 107.64 174.91 94.18 174.91 80.73 161.45 80.73 161.45 94.18 148 94.18"/><polygon class="b" points="322.91 107.64 322.91 121.09 322.91 134.55 336.36 134.55 336.36 121.09 349.82 121.09 349.82 107.64 336.36 107.64 336.36 94.18 336.36 80.73 322.91 80.73 322.91 94.18 322.91 107.64"/><polygon class="b" points="228.73 107.64 228.73 94.18 228.73 80.73 215.27 80.73 215.27 94.18 215.27 107.64 201.82 107.64 201.82 94.18 201.82 80.73 188.36 80.73 188.36 94.18 188.36 107.64 188.36 121.09 201.82 121.09 215.27 121.09 215.27 134.55 228.73 134.55 228.73 121.09 228.73 107.64"/><rect class="b" x="390.18" y="107.64" width="13.45" height="13.45"/><polygon class="b" points="430.55 121.09 430.55 134.55 417.09 134.55 417.09 148 430.55 148 430.55 161.45 430.55 174.91 417.09 174.91 417.09 188.36 403.64 188.36 403.64 174.91 390.18 174.91 390.18 188.36 390.18 201.82 403.64 201.82 417.09 201.82 417.09 215.27 430.55 215.27 430.55 228.73 430.55 242.18 430.55 255.64 430.55 269.09 417.09 269.09 417.09 282.55 417.09 296 430.55 296 430.55 309.45 444 309.45 444 296 444 282.55 444 269.09 444 255.64 444 242.18 444 228.73 444 215.27 444 201.82 444 188.36 444 174.91 444 161.45 444 148 444 134.55 444 121.09 444 107.64 430.55 107.64 430.55 121.09"/><rect class="b" x="134.55" y="121.09" width="13.45" height="13.45"/><rect class="b" x="349.82" y="121.09" width="13.45" height="13.45"/><rect class="b" x="403.64" y="121.09" width="13.45" height="13.45"/><polygon class="b" points="40.36 134.55 53.82 134.55 53.82 148 67.27 148 67.27 134.55 80.73 134.55 80.73 121.09 94.18 121.09 94.18 107.64 80.73 107.64 67.27 107.64 53.82 107.64 53.82 121.09 40.36 121.09 40.36 107.64 26.91 107.64 26.91 121.09 26.91 134.55 13.45 134.55 0 134.55 0 148 0 161.45 0 174.91 13.45 174.91 26.91 174.91 26.91 161.45 13.45 161.45 13.45 148 26.91 148 26.91 161.45 40.36 161.45 40.36 148 40.36 134.55"/><rect class="b" x="148" y="134.55" width="13.45" height="13.45"/><rect class="b" x="228.73" y="134.55" width="13.45" height="13.45"/><polygon class="b" points="336.36 148 336.36 161.45 349.82 161.45 349.82 148 349.82 134.55 336.36 134.55 336.36 148"/><rect class="b" x="376.73" y="134.55" width="13.45" height="13.45"/><polygon class="b" points="296 148 296 134.55 309.45 134.55 309.45 121.09 309.45 107.64 296 107.64 296 94.18 282.55 94.18 282.55 107.64 282.55 121.09 269.09 121.09 255.64 121.09 255.64 134.55 269.09 134.55 269.09 148 282.55 148 282.55 161.45 269.09 161.45 269.09 148 255.64 148 242.18 148 242.18 161.45 228.73 161.45 228.73 148 215.27 148 201.82 148 201.82 134.55 188.36 134.55 188.36 148 188.36 161.45 174.91 161.45 161.45 161.45 161.45 174.91 174.91 174.91 174.91 188.36 188.36 188.36 188.36 174.91 201.82 174.91 201.82 161.45 215.27 161.45 215.27 174.91 228.73 174.91 228.73 188.36 242.18 188.36 242.18 174.91 255.64 174.91 255.64 188.36 269.09 188.36 282.55 188.36 282.55 174.91 296 174.91 296 188.36 309.45 188.36 309.45 174.91 309.45 161.45 296 161.45 296 148"/><rect class="b" x="309.45" y="148" width="13.45" height="13.45"/><rect class="b" x="201.82" y="174.91" width="13.45" height="13.45"/><rect class="b" x="26.91" y="188.36" width="13.45" height="13.45"/><rect class="b" x="161.45" y="188.36" width="13.45" height="13.45"/><rect class="b" x="188.36" y="188.36" width="13.45" height="13.45"/><rect class="b" x="215.27" y="188.36" width="13.45" height="13.45"/><polygon class="b" points="282.55 201.82 269.09 201.82 255.64 201.82 255.64 215.27 242.18 215.27 242.18 201.82 228.73 201.82 228.73 215.27 228.73 228.73 228.73 242.18 228.73 255.64 228.73 269.09 215.27 269.09 215.27 255.64 215.27 242.18 201.82 242.18 188.36 242.18 188.36 255.64 201.82 255.64 201.82 269.09 201.82 282.55 201.82 296 215.27 296 215.27 282.55 228.73 282.55 228.73 296 242.18 296 255.64 296 255.64 282.55 269.09 282.55 269.09 296 255.64 296 255.64 309.45 269.09 309.45 282.55 309.45 282.55 296 282.55 282.55 296 282.55 296 269.09 309.45 269.09 309.45 255.64 309.45 242.18 296 242.18 296 255.64 282.55 255.64 282.55 269.09 269.09 269.09 269.09 255.64 269.09 242.18 255.64 242.18 255.64 255.64 242.18 255.64 242.18 242.18 242.18 228.73 255.64 228.73 269.09 228.73 282.55 228.73 282.55 242.18 296 242.18 296 228.73 309.45 228.73 309.45 215.27 322.91 215.27 322.91 201.82 309.45 201.82 296 201.82 296 188.36 282.55 188.36 282.55 201.82"/><polygon class="b" points="376.73 188.36 376.73 174.91 376.73 161.45 363.27 161.45 349.82 161.45 349.82 174.91 336.36 174.91 336.36 161.45 322.91 161.45 322.91 174.91 322.91 188.36 336.36 188.36 336.36 201.82 349.82 201.82 349.82 188.36 363.27 188.36 363.27 201.82 363.27 215.27 376.73 215.27 390.18 215.27 390.18 201.82 376.73 201.82 376.73 188.36"/><polygon class="b" points="13.45 201.82 13.45 188.36 0 188.36 0 201.82 0 215.27 13.45 215.27 13.45 201.82"/><rect class="b" x="40.36" y="201.82" width="13.45" height="13.45"/><polygon class="b" points="148 215.27 148 228.73 161.45 228.73 161.45 242.18 174.91 242.18 188.36 242.18 188.36 228.73 201.82 228.73 201.82 215.27 188.36 215.27 174.91 215.27 161.45 215.27 161.45 201.82 148 201.82 134.55 201.82 134.55 215.27 148 215.27"/><rect class="b" x="201.82" y="201.82" width="13.45" height="13.45"/><rect class="b" x="26.91" y="215.27" width="13.45" height="13.45"/><rect class="b" x="53.82" y="215.27" width="13.45" height="13.45"/><polygon class="b" points="349.82 228.73 336.36 228.73 336.36 242.18 349.82 242.18 349.82 255.64 363.27 255.64 376.73 255.64 376.73 242.18 363.27 242.18 363.27 228.73 363.27 215.27 349.82 215.27 349.82 228.73"/><rect class="b" x="13.45" y="228.73" width="13.45" height="13.45"/><rect class="b" y="242.18" width="13.45" height="13.45"/><polygon class="b" points="417.09 255.64 417.09 242.18 417.09 228.73 403.64 228.73 390.18 228.73 390.18 242.18 403.64 242.18 403.64 255.64 417.09 255.64"/><rect class="b" x="376.73" y="255.64" width="13.45" height="13.45"/><rect class="b" y="269.09" width="13.45" height="13.45"/><rect class="b" x="390.18" y="269.09" width="13.45" height="13.45"/><polygon class="b" points="53.82 282.55 53.82 296 53.82 309.45 67.27 309.45 67.27 296 80.73 296 80.73 282.55 67.27 282.55 53.82 282.55"/><rect class="b" y="296" width="13.45" height="13.45"/><rect class="b" x="80.73" y="296" width="13.45" height="13.45"/><rect class="b" x="215.27" y="296" width="13.45" height="13.45"/><polygon class="b" points="296 309.45 309.45 309.45 309.45 296 309.45 282.55 296 282.55 296 296 296 309.45"/><polygon class="b" points="363.27 296 363.27 282.55 363.27 269.09 349.82 269.09 349.82 282.55 349.82 296 349.82 309.45 363.27 309.45 363.27 296"/><polygon class="b" points="403.64 296 390.18 296 390.18 309.45 403.64 309.45 417.09 309.45 417.09 296 403.64 296"/><rect class="b" x="13.45" y="309.45" width="13.45" height="13.45"/><polygon class="b" points="148 322.91 148 336.36 161.45 336.36 161.45 322.91 161.45 309.45 161.45 296 174.91 296 188.36 296 188.36 282.55 188.36 269.09 174.91 269.09 174.91 282.55 161.45 282.55 148 282.55 134.55 282.55 134.55 269.09 148 269.09 161.45 269.09 161.45 255.64 161.45 242.18 148 242.18 134.55 242.18 134.55 228.73 121.09 228.73 107.64 228.73 107.64 215.27 107.64 201.82 121.09 201.82 134.55 201.82 134.55 188.36 121.09 188.36 121.09 174.91 121.09 161.45 134.55 161.45 148 161.45 148 148 134.55 148 134.55 134.55 121.09 134.55 121.09 121.09 121.09 107.64 107.64 107.64 107.64 121.09 107.64 134.55 94.18 134.55 80.73 134.55 80.73 148 94.18 148 107.64 148 107.64 161.45 107.64 174.91 107.64 188.36 94.18 188.36 80.73 188.36 80.73 174.91 94.18 174.91 94.18 161.45 80.73 161.45 67.27 161.45 67.27 174.91 53.82 174.91 53.82 161.45 40.36 161.45 40.36 174.91 40.36 188.36 53.82 188.36 67.27 188.36 67.27 201.82 67.27 215.27 80.73 215.27 80.73 201.82 94.18 201.82 94.18 215.27 80.73 215.27 80.73 228.73 94.18 228.73 94.18 242.18 80.73 242.18 80.73 228.73 67.27 228.73 67.27 242.18 53.82 242.18 40.36 242.18 40.36 255.64 26.91 255.64 13.45 255.64 13.45 269.09 26.91 269.09 26.91 282.55 13.45 282.55 13.45 296 26.91 296 40.36 296 40.36 282.55 40.36 269.09 53.82 269.09 67.27 269.09 80.73 269.09 80.73 255.64 94.18 255.64 107.64 255.64 121.09 255.64 121.09 269.09 107.64 269.09 94.18 269.09 80.73 269.09 80.73 282.55 94.18 282.55 107.64 282.55 121.09 282.55 121.09 296 134.55 296 134.55 309.45 148 309.45 148 322.91"/><rect class="b" x="282.55" y="309.45" width="13.45" height="13.45"/><path class="b" d="m322.91,322.91v26.91h-13.45v26.91h13.45v26.91h13.45v-13.45h40.36v13.45h-13.45v13.45h-13.45v13.45h13.45v13.45h26.91v-13.45h-13.45v-13.45h26.91v-13.45h-13.45v-40.36h13.45v-40.36h-26.91v-13.45h-13.45v13.45h-13.45v-13.45h-40.36v13.45h13.45Zm40.36,13.45h13.45v40.36h-40.36v-40.36h26.91Z"/><rect class="b" x="417.09" y="309.45" width="13.45" height="13.45"/><rect class="b" y="322.91" width="13.45" height="13.45"/><polygon class="b" points="40.36 336.36 53.82 336.36 67.27 336.36 67.27 322.91 53.82 322.91 40.36 322.91 26.91 322.91 26.91 336.36 40.36 336.36"/><rect class="b" x="80.73" y="322.91" width="13.45" height="13.45"/><polygon class="b" points="228.73 336.36 242.18 336.36 255.64 336.36 269.09 336.36 269.09 322.91 255.64 322.91 242.18 322.91 242.18 309.45 228.73 309.45 228.73 322.91 228.73 336.36"/><polygon class="b" points="215.27 336.36 215.27 322.91 215.27 309.45 201.82 309.45 201.82 296 188.36 296 188.36 309.45 174.91 309.45 174.91 322.91 174.91 336.36 161.45 336.36 161.45 349.82 148 349.82 148 336.36 134.55 336.36 134.55 322.91 134.55 309.45 121.09 309.45 121.09 322.91 121.09 336.36 107.64 336.36 107.64 349.82 121.09 349.82 121.09 363.27 134.55 363.27 134.55 376.73 148 376.73 148 363.27 161.45 363.27 174.91 363.27 174.91 349.82 188.36 349.82 188.36 336.36 188.36 322.91 201.82 322.91 201.82 336.36 201.82 349.82 215.27 349.82 228.73 349.82 228.73 336.36 215.27 336.36"/><polygon class="b" points="430.55 349.82 417.09 349.82 417.09 363.27 430.55 363.27 430.55 376.73 444 376.73 444 363.27 444 349.82 444 336.36 444 322.91 430.55 322.91 430.55 336.36 430.55 349.82"/><path class="b" d="m67.27,349.82H0v94.18h94.18v-94.18h-26.91Zm13.45,26.91v53.82H13.45v-67.27h67.27v13.45Z"/><rect class="b" x="349.82" y="349.82" width="13.45" height="13.45"/><polygon class="b" points="107.64 376.73 107.64 390.18 121.09 390.18 121.09 376.73 121.09 363.27 107.64 363.27 107.64 376.73"/><rect class="b" x="188.36" y="363.27" width="13.45" height="13.45"/><polygon class="b" points="40.36 376.73 26.91 376.73 26.91 390.18 26.91 403.64 26.91 417.09 40.36 417.09 53.82 417.09 67.27 417.09 67.27 403.64 67.27 390.18 67.27 376.73 53.82 376.73 40.36 376.73"/><polygon class="b" points="174.91 390.18 174.91 403.64 188.36 403.64 188.36 417.09 188.36 430.55 201.82 430.55 201.82 417.09 201.82 403.64 201.82 390.18 188.36 390.18 188.36 376.73 174.91 376.73 174.91 390.18"/><rect class="b" x="296" y="376.73" width="13.45" height="13.45"/><polygon class="b" points="417.09 390.18 417.09 403.64 430.55 403.64 430.55 417.09 444 417.09 444 403.64 444 390.18 430.55 390.18 430.55 376.73 417.09 376.73 417.09 390.18"/><polygon class="b" points="134.55 390.18 134.55 403.64 148 403.64 161.45 403.64 161.45 390.18 161.45 376.73 148 376.73 148 390.18 134.55 390.18"/><path class="b" d="m282.55,403.64h-13.45v-13.45h13.45v-13.45h13.45v-26.91h13.45v-13.45h-40.36v13.45h13.45v13.45h-26.91v-13.45h-26.91v13.45h-13.45v80.73h13.45v-13.45h13.45v-26.91h13.45v13.45h26.91v13.45h-40.36v13.45h53.82v-53.82h-13.45v13.45Zm-40.36-13.45v-13.45h13.45v13.45h-13.45Z"/><polygon class="b" points="107.64 403.64 107.64 417.09 121.09 417.09 134.55 417.09 134.55 403.64 121.09 403.64 107.64 403.64"/><polygon class="b" points="322.91 403.64 309.45 403.64 309.45 417.09 309.45 430.55 309.45 444 322.91 444 336.36 444 336.36 430.55 336.36 417.09 322.91 417.09 322.91 403.64"/><rect class="b" x="336.36" y="403.64" width="13.45" height="13.45"/><polygon class="b" points="417.09 430.55 403.64 430.55 403.64 444 417.09 444 430.55 444 444 444 444 430.55 430.55 430.55 430.55 417.09 417.09 417.09 417.09 430.55"/><polygon class="b" points="134.55 430.55 121.09 430.55 121.09 444 134.55 444 148 444 161.45 444 161.45 430.55 148 430.55 134.55 430.55"/><rect class="b" x="174.91" y="430.55" width="13.45" height="13.45"/></svg>