<svg id="a" xmlns="http://www.w3.org/2000/svg" viewBox="0 0 500 500"><defs><style>.b{stroke-width:0px;}</style></defs><path fill="currentColor" d="m473.97,460.11h12.71v26.66h13.09v12.83h-39.06c-.19-3.9-.39-8.03-.62-12.82h-13.13v-27.32h-13.57v-12.99h-13.77v13.69h13.06v39.42h-39.94v-26.58h-13.47c0-4.3,0-8.59-.01-12.89h26.5v-14.22h-26.54v-26.48h-13.74v27.16h13.02c.02,4.28.04,8.56.07,12.83h-13.05v14.28h13.04v13.1h-26.77l.09.12v-27.16h-27.16l.1.1v-13.63h-27.16l.1.1v-13.53c-4.65-.26-8.76-.49-12.99-.72-.22-4.57-.41-8.49-.63-12.95h-27.05l.11.11v-13.5h40.56l-.1-.1v13.63h13.63l-.1-.1v14.13h26.54c.24,4.87.43,8.83.62,12.8h14.03v-53.2h12.38c.22,4.38.43,8.33.64,12.51h14.03v-26.15c4.63-.25,8.58-.47,12.7-.7v-13.25h-26.76c-.24,4.47-.46,8.44-.67,12.46h-12.81v-26.25c-4.78-.22-8.91-.4-13.55-.61v-12.94l-.09.12h27.06c.24-4.55.45-8.49.7-13.26h53.42c.24-4.76.44-8.71.66-13.1h12.87v26.34l.12-.09h-13.29v40.45h40.89v-26.82h12.99l-.12-.09v27.2h13.62l-.11-.11v26.76h-13.06v-12.99h-13.77v13.69h13.06c0,17.79,0,35.58,0,53.38h-13v13.77h13.69v-13.06Zm-81.39-67.99v40.48h40.12v-40.48h-40.12Zm-.32-40.56v-13.25h-13.13v13.25h13.13Zm67.84,67.76h-13.49v13.13h13.49v-13.13Zm-54.07,67.31h13.28v-13.22h-13.28v13.22Z"/><path fill="currentColor" d="m392.77,121.8c4.4-.09,8.8-.17,13.21-.26l-.09-.12c0,13.57,0,27.13,0,40.7l.1-.1h-13.29v13.63h13.29l-.1-.1v27.03h-40.6v13.67l.1-.1c-4.21-.19-8.41-.38-13-.58-.22-4.56-.42-8.7-.61-12.67h-13.94v26.01h-12.98v-12.57c-2.75-.34-4.9-.6-7.17-.89v-11.98c2.72-.45,4.84-.8,6.85-1.13v-13.39h-13.3c-12.39-9.97-26.75-3.42-39.88-6.47-.3-2.23-.58-4.37-.88-6.64h-13.21c-.48,2.68-.86,4.8-1.24,6.9h-25.3v-7.14h13.37v-26.46c4.63-.24,8.58-.45,12.68-.66v-13.53c-4.54-.21-8.5-.39-13.1-.61v-26.74h-40.36c0-4.29,0-8.58,0-12.88h13.15c.25-5.05.45-8.98.69-13.81h12.9l-.1-.1v13.29h13.63v-13.29l-.09.12c4.4.08,8.8.17,13.19.25v13h13.77v-13.69h-13.06v-13.09h26.78l-.09-.12v40.7h13.63l-.1-.1c0,4.54,0,9.09,0,13.63l.1-.1h-26.84v27.16h13.3l-.1-.1v26.86h40.46v-13.32c-4.57-.21-8.68-.4-13.3-.62v-12.92l-.1.1h13.63v-13.63l-.1.1h13.63v-13.63l-.1.1h12.96c.24,5.03.43,9.14.64,13.37h13.57v-27l-.09.12h26.79v13.08h-13v27.29h13.69v-26.58Zm-54.55,67.22h13.53c.26-4.49.5-8.61.74-12.85,4.6-.21,8.55-.39,12.54-.57v-13.59c-4.56-.21-8.5-.39-12.62-.58-.23-4.58-.42-8.53-.63-12.6h-13.56v40.19Z"/><path fill="currentColor" d="m67.7,202.71v-13.03h27.07v-14.12l-.12.09h13.53c.25-4.62.47-8.58.7-12.79h12.29c.22,4.42.42,8.38.66,13.24h26.25v25.95c-4.38.23-8.34.44-12.51.66v27.05c4.53.22,8.5.41,12.65.61.23,4.56.43,8.52.66,12.9,4.56.22,8.69.42,13.47.65v26.93h21.26c0,8.9.29,16.99-.07,25.05-.51,11.2,9.7,21.45,20.85,20.93,3.75-.18,7.51-.03,11.3-.03.43,3.17.72,5.31,1.02,7.5h13.08c.38-2.56.71-4.7,1.07-7.1h52.49v7.21h-39.67v26.82h13.46c.21-4.57.4-8.53.59-12.53h25.85c.22,4.48.43,8.61.66,13.38h26.82v26.22h13.76c.21-4.57.4-8.53.58-12.54h12.09v25.8c-4.44.21-8.4.41-13.25.64v26.96h-13.06l.1.1v-13.63h-13.63l.1.1v-40.33h-41.26v26.15c-4.62.23-8.58.42-12.93.63-.22,4.61-.41,8.74-.6,12.77h-12.86v-53.45h-13.64l.1.1v-13.63h-13.63l.1.1v-14.11h-39.89v-12.39c4.38-.23,8.33-.43,12.52-.65v-27.52h-40.01v-12.67h13.04v-14.28h-13.04v-13.76h-13.91v-39.74h-13.49c-.23,4.5-.43,8.46-.66,12.95h-12.49v-13.26h-27.49l.12.09Z"/><path fill="currentColor" d="m202.99,419.12h-27.23v26.82h-13.02v-13.59h-13.59v-12.95h-27.24v13.64h26.53v13.58h13.58v12.7h-26.86v40.39h-13.01v-53.37c-4.82-.25-8.78-.46-13.17-.69v-52.9c1.95-.1,4.08-.2,6.22-.31,1.98-.1,3.96-.21,6.62-.35v-13.53l-.12.09h40.58c.27-4.66.52-8.78.77-13.01,4.6-.21,8.55-.39,12.87-.58.21-4.67.4-8.79.61-13.51h12.92c.22-4.76.42-8.88.63-13.49h12.92l-.1-.1v13.63h13.63l-.1-.1c-.19,4.21-.38,8.42-.58,13-4.58.22-8.71.42-12.93.62-.22,4.76-.4,8.72-.61,13.32h-26.74v13.33h-26.53v13.78h27.21v-13.07h12.56c.23,4.87.42,8.79.63,13.29h13.52l-.11-.11c.01,4.53.03,9.07.04,13.6l.09-.12Z"/><path fill="currentColor" d="m26.66,256.47H.71v-12.59c3.96-.18,8.09-.37,12.64-.59v-27.08c-4.01-.18-7.97-.35-12.49-.55v-12.64h39.64c.25-4.82.45-8.77.68-13.14h12.31c.18,3.96.36,8.09.58,12.83h13.63l-.12-.09c-.18,4.19-.37,8.38-.57,12.99-4.52.22-8.63.42-12.75.62v13.83h26.52v13.05h14.28v-13.04h12.48v26.54h-53.77v40.42h-13.04v14.28h13.04c.09,4.4.19,8.81.28,13.21l.09-.12h-26.44c-.22-4.6-.42-8.72-.64-13.47H.84v-40.21h26.51v-13.53h13v-40.82h-13.69v40.11Z"/><path fill="currentColor" d="m446.46,229.69v40.08h-27.06v13.37c-4.75.28-8.88.52-13.66.8v26.21h-12.45v-39.21c3.84-.17,7.8-.35,12.35-.56v-13.47h-67.46v13.44l.11-.11h-13.28v54.21c4.04.19,8.16.39,13.21.64v12.97l.09-.12h-40.03v-20.39c16.01-4.95,19.32-13.48,18.89-26.25-.44-13.29-.11-26.61-.08-39.92,0-2.41.22-4.82.38-8h34.26c.26-4.74.47-8.7.71-13.08,4.51-.22,8.64-.42,12.92-.62v-13.54l-.1.1c4.2.19,8.41.37,13,.58.22,4.56.42,8.69.62,12.7h13.48c.24-4.45.45-8.4.67-12.53h25.75v12.14c-4.44.22-8.57.42-12.7.62v13.55c4.57.21,8.69.41,12.77.6.25,4.82.45,8.77.65,12.72h14.04v-26.84h13.02l-.12-.09Z"/><path fill="currentColor" d="m284.19,67.41c0-4.55.02-9.1.03-13.64l-.12.09h13.63v-27.16l-.09.12h13.06v26.85h27.66v-13.41l-.11.11c13.54,0,27.09,0,40.63,0l-.11-.11v13.51c4.3.2,8.43.4,12.91.61v39.15h-12.26v-25.88h-14.14v40.36l.09-.12c-4.19-.18-8.39-.37-13.41-.59v-39.83h-13.75v54.05l.1-.1h-13.63v13.63l.1-.1h-13.63v13.63l.1-.1c-9.05,0-18.11,0-27.16,0l.1.1c.19-4.21.37-8.41.58-13,4.56-.22,8.69-.42,12.95-.63v-13.54l-.1.1h13.29v-13.63h-13.29l.1.1v-26.3h12.91c.2,4.45.38,8.4.58,12.62h13.24v-27.02h-40.36l.09.12Z"/><path fill="currentColor" d="m432.96,175.67h12.94c.21,4.64.4,8.78.61,13.32h13.59v-53.14h26.38c.22,4.05.43,8.01.67,12.65,4.13.19,8.1.37,12.63.58v25.75h-12.05c-.17-3.93-.36-8.07-.56-12.62h-13.38v40.39c3.93.2,7.88.41,12.43.64v12.33c-3.84.18-7.81.37-12.35.59v67.91h26.04v12.46h-66.16v-12.19h26.18v-54.65h-13.47l.12.09v-12.98c5.1-.24,9.23-.44,13.29-.63v-14.05h-39.68v-12.42c4.51-.21,8.63-.4,12.85-.6v-13.56l-.09.12Z"/><path fill="currentColor" d="m93.95,93.79H.71V.55h93.24v93.23Zm-80.44-13.1h67.51V13.53H13.51v67.15Z"/><path fill="currentColor" d="m406.68.31h93.25v93.24h-93.25V.31Zm80.44,13.1h-67.52v67.16h67.52V13.41Z"/><path fill="currentColor" d="m94.07,406.4v93.25H.82v-93.25h93.24Zm-13,13.07H13.72v67.23h67.35v-67.23Z"/><path fill="currentColor" d="m121.83,378.55h-13.04v-54.15h-14.13l.09.12c.09-4.4.18-8.8.28-13.21,8.79-.02,17.57-.04,26.36-.06v26.52h13.78v-27.21h-13.07c.01-4.28.02-8.55.04-12.83h26.03v53.19c-4.45.22-8.58.42-12.85.63-.25,4.67-.45,8.62-.68,12.93-4.56.22-8.68.42-12.92.63v13.53l.12-.09Z"/><path fill="currentColor" d="m67.67,364.99h-13.53c-.21,4.27-.41,8.4-.63,12.94-4.32.23-8.27.43-12.9.68-.2,4.11-.39,8.06-.62,12.61H.79v-12.18h26.19c.23-4.74.44-8.86.66-13.33,4.38-.23,8.33-.44,12.94-.69v-12.84c4.74-.23,8.86-.43,13.57-.66v-27.13l-.09.12c4.21.19,8.41.37,13,.57.22,4.57.42,8.7.62,12.96h13.54l-.12-.09c0,4.54,0,9.08,0,13.62l.12-.09h-13.63v13.63l.09-.12Z"/><path fill="currentColor" d="m270.66,40.21h-12.93c-.21-4.62-.39-8.75-.6-13.45-4.31-.2-8.27-.37-12.74-.58V.41h12.09c.19,4.02.39,8.15.6,12.68h13.54c.18-4.11.36-8.06.56-12.55h39.29v12.07c-3.95.18-8.08.36-12.82.57v13.63l.09-.12h-27.16v13.63l.09-.12Z"/><path fill="currentColor" d="m203.02,40.32v-13.53c-4.28-.2-8.41-.4-12.9-.62v-12.13h39.39v39.7c4.73.24,8.86.45,13.99.7v26.5l.09-.12c-4.54,0-9.09,0-13.63,0l.1.1v-13.54c-4.66-.25-8.76-.48-13.64-.74v-26.42h-13.52l.12.09Z"/><path fill="currentColor" d="m324.79,473.25h-27.1v26.37h-40.53v-12.82l-.12.09h13.61c.22-4.74.41-8.86.63-13.6h13.47v-27h12.99l-.1-.1v13.63h27.16l-.1-.1c0,4.54,0,9.09,0,13.63l.09-.12Z"/><path fill="currentColor" d="m378.89,40.37V13.5h-13.51c-.22,4.17-.42,8.13-.65,12.5h-12.31c-.18-3.98-.37-8.12-.58-12.77-4.35-.2-8.31-.38-12.75-.59V.37h52.51v39.28c-4.38.21-8.59.41-12.8.61l.11.11Z"/><path fill="currentColor" d="m446.6,338.04v-26.43h26.32c.24,4.13.47,8.24.75,12.98h26.18v12.77c-4.05.21-8,.41-12.69.64-.2,4.25-.4,8.37-.62,12.91-4.61.2-8.81.39-13.01.57l.12.09v-13.63h-27.16l.12.09Z"/><path fill="currentColor" d="m189.49,459.83v-26.45c4.64-.22,8.76-.41,13.51-.64v-13.62l-.09.12c4.21.19,8.42.38,12.77.57v52.82h-12.14c-.21-4.47-.41-8.61-.61-12.89h-13.54l.12.09Z"/><path fill="currentColor" d="m162.42,67.39V27.45h12.79c.23,4.07.46,8.2.73,12.88h27.08l-.12-.09v26.38h-12.92c-.21-4.51-.4-8.61-.58-12.59h-13.5c-.23,4.43-.44,8.37-.69,13.28h-12.91l.12.09Z"/><path fill="currentColor" d="m121.83,13.26V.57h53.22v12.16h-26.16c-.23,4.72-.43,8.85-.68,13.95h-12.97l.09.12v-13.63h-13.63l.12.09Z"/><path fill="currentColor" d="m54.16,121.52v-13.51h54.1l-.09-.12c-.09,4.4-.18,8.81-.27,13.21h-27.11v13.58h-12.56c-.23-4.88-.42-8.8-.63-13.25h-13.55l.12.09Z"/><path fill="currentColor" d="m405.98,121.54c.19-4.2.37-8.4.57-12.93h25.8c.22,4.18.43,8.3.66,12.81,4.37.23,8.33.43,12.73.66v26.39h-12.8l.09.12v-13.52c-4.63-.26-8.73-.5-12.98-.74-.22-4.52-.42-8.44-.64-12.9h-13.54l.09.12Z"/><path fill="currentColor" d="m94.76,175.56h-26.44c-.26-4.88-.47-8.82-.73-13.63h-26.96v-13.43l-.12.09c13.44.11,26.88.21,40.32.32v13.14c5.05.25,8.98.45,13.81.69v12.91l.12-.09Z"/><path fill="currentColor" d="m243.48,486.81v12.9h-53.99v-12.9l-.12.09c18.08,0,36.15,0,54.23,0l-.12-.09Z"/><path fill="currentColor" d="m351.9,297.41c0-4.52,0-9.05,0-13.57l-.11.11h13.51c.2-4.31.4-8.44.61-12.92h12.13v39.14h-12.09c-.17-3.92-.36-8.05-.57-12.86h-13.59l.11.11Z"/><path fill="currentColor" d="m257.15,486.81c-4.56,0-9.11,0-13.67,0l.12.09v-13.58c-4.7-.22-8.82-.42-12.89-.61v-12.84h26.39l-.11-.11c.01,9.04.03,18.09.04,27.13l.12-.09Z"/><path fill="currentColor" d="m108.27,108.01v-40.6h13.53l-.09-.12c-.16,13.35-.33,26.71-.49,40.6h-13.04l.09.12Z"/><path fill="currentColor" d="m432.96,148.47c0,9.07,0,18.14,0,27.2l.09-.12c-9.05,0-18.11,0-27.17,0l.1.1c0-4.54,0-9.09,0-13.63l-.1.1h13.62c.21-4.76.4-8.89.61-13.53h12.94l-.09-.12Z"/><path fill="currentColor" d="m135.27,40.37h13.48v27.02l.12-.09c-9.05,0-18.11,0-27.16,0l.09.12v-12.95c4.63-.21,8.75-.4,13.58-.63v-13.58l-.11.11Z"/><path fill="currentColor" d="m13.52,175.52H.84v-26.18h12.56v26.28l.11-.11Z"/><path fill="currentColor" d="m.47,350.65v-11.83h25.84v11.83H.47Z"/><path fill="currentColor" d="m432.93,338.04c4.56,0,9.11,0,13.67,0l-.12-.09v26.4h-13.43v-26.4l-.12.09Z"/><path fill="currentColor" d="m189.49,486.81c-4.54-.02-9.08-.03-13.62-.05l.11.11v-26.44c5.12-.23,9.32-.41,13.51-.6l-.12-.09c0,9.06,0,18.11,0,27.17l.12-.09Z"/><path fill="currentColor" d="m175.87,486.76c-.2,4.21-.4,8.42-.61,12.96h-25.64v-12.85h26.35l-.11-.11Z"/><path fill="currentColor" d="m27.05,134.92H.63v-12.65h26.32v12.76l.11-.11Z"/><path fill="currentColor" d="m351.79,297.31v12.72h-12.72v-12c4.41-.21,8.62-.41,12.83-.61l-.11-.11Z"/><path fill="currentColor" d="m40.63,148.5c-4.2-.19-8.4-.37-12.96-.57-.22-4.61-.42-8.81-.62-13.01l-.11.11c4.55.02,9.11.04,13.66.05l-.09-.12c0,4.54,0,9.09,0,13.63l.12-.09Z"/><path fill="currentColor" d="m94.65,324.39c-.18,4.2-.37,8.39-.57,12.99-4.6.2-8.79.38-12.99.57l.12.09v-13.53h13.53l-.09-.12Z"/><path fill="currentColor" d="m81.09,351.57c4.17.19,8.34.37,12.89.57v12.21c-4.19.21-8.53.43-12.87.64l.09.12c0-4.54,0-9.09,0-13.63l-.12.09Z"/><path fill="currentColor" d="m81.18,378.5h-12.92c-.23-5.14-.41-9.32-.59-13.51l-.09.12c4.54,0,9.09,0,13.63,0l-.09-.12c-.02,4.54-.03,9.08-.05,13.62l.11-.11Z"/><path fill="currentColor" d="m40.61,135.08c.18-4.2.37-8.39.57-12.99,4.6-.2,8.79-.38,12.99-.57l-.12-.09v13.53h-13.53l.09.12Z"/><path fill="currentColor" d="m487.15,378.68v-12.72h12.72v12c-4.41.21-8.62.41-12.83.61l.11.11Z"/><path fill="currentColor" d="m81.07,378.61h12.72v12.72h-12c-.21-4.41-.41-8.62-.61-12.83l-.11.11Z"/><path fill="currentColor" d="m486.27,120.87h-11.94v-12.25h11.94v12.25Z"/><path fill="currentColor" d="m500,257.6v12.05h-12.01v-12.05h12.01Z"/><path fill="currentColor" d="m148.75,67.39c4.56,0,9.11,0,13.67,0l-.12-.09c-.09,4.4-.18,8.81-.27,13.21-4.29,0-8.58,0-12.88,0-.09-4.4-.19-8.81-.28-13.21l-.12.09Z"/><path fill="currentColor" d="m284.21,53.77c-4.2-.18-8.39-.37-12.98-.57-.21-4.6-.39-8.79-.58-12.99l-.09.12h13.53v13.53l.12-.09Z"/><path fill="currentColor" d="m13.41,175.62c4.21.2,8.43.4,12.96.61v12.11h-12.25c-.21-4.4-.41-8.61-.6-12.82l-.11.11Z"/><path fill="currentColor" d="m338.36,40.26h-12.71v-12.72h12c.21,4.41.41,8.62.61,12.83l.11-.11Z"/><path fill="currentColor" d="m351.9,283.84c-4.2-.2-8.41-.4-13-.61-.21-4.59-.41-8.79-.61-12.99l-.11.11c4.2.2,8.39.4,12.99.62.22,4.59.42,8.79.61,12.99l.11-.11Z"/><path fill="currentColor" d="m135.38,40.26c-4.2-.2-8.39-.4-13.55-.64v-12.92l-.12.09c4.54,0,9.09,0,13.63,0l-.09-.12c0,4.56.02,9.13.03,13.69l.11-.11Z"/><path fill="currentColor" d="m121.82,26.7h-12.89v-12.81c4.21-.21,8.55-.42,12.89-.64l-.12-.09c0,4.54,0,9.09,0,13.63l.12-.09Z"/><path fill="currentColor" d="m324.83,486.87c-.02-4.54-.03-9.08-.05-13.62l-.09.12h13.53v13.53l.09-.12c-4.53,0-9.06-.01-13.6-.02,0,0,.11.11.11.11Z"/><path fill="currentColor" d="m324.72,486.76c-.2,4.21-.4,8.42-.61,12.96h-12.11v-12.25c4.41-.21,8.62-.41,12.83-.6l-.11-.11Z"/><path fill="currentColor" d="m351.76,486.78v12.9h-12.8c-.21-4.21-.43-8.56-.64-12.9l-.09.12c4.54,0,9.09,0,13.63,0l-.09-.12Z"/><path fill="currentColor" d="m148.47,81.23v26.53h14.24v-26.54h12.55c.2,4.44.38,8.39.62,13.55h13.2v13.53h13.53v13.3h26.6v40.38h-12.74l.11.11v-13.31h-27.13c-.19,3.94-.38,8.07-.63,13.22h-12.97l.09.12c.09-8.91.18-17.82.27-26.73h13v-13.77h-13.69v13.06h-13.21v27.44l.09-.12h-13.03v-26.82h-14.07c-.18,3.98-.35,7.93-.55,12.46h-12.41v-13h-13.78c0-4.28.01-8.56.02-12.83h26.78v-40.59h13.11Z"/><path fill="currentColor" d="m183.18,203.46v11.83c-2.38.36-4.52.69-7.48,1.14v12.62h-12.51v-25.59h20Z"/><path fill="currentColor" d="m81.51,135.36c8.79,0,17.58,0,26.37.01v12.81h-26.38c0-4.27,0-8.55.01-12.82Z"/><path fill="currentColor" d="m175.84,162v26.41h-13.45v-26.41l-.09.12c4.54,0,9.09,0,13.63,0l-.09-.12Z"/><path fill="currentColor" d="m216.46,161.98c-.2,4.21-.4,8.43-.61,12.96h-12.11v-12.25c4.41-.21,8.62-.41,12.83-.6l-.11-.11Z"/><path fill="currentColor" d="m257.06,419.1c-.2,4.21-.4,8.41-.62,12.97-4.35.23-8.3.44-12.9.68v12.63h-12.77v-26.18h26.39l-.11-.11Z"/><path fill="currentColor" d="m271.21,391.23v-11.86h12.23v11.86h-12.23Z"/><path fill="currentColor" d="m257.1,459.87c.2-4.21.4-8.42.61-12.96h12.11v12.25c-4.41.21-8.62.41-12.83.61,0,0,.11.11.11.11Z"/><path fill="currentColor" d="m202.97,405.74c.2-4.21.4-8.42.61-12.96h12.11v12.25c-4.41.21-8.62.41-12.83.61l.11.11Z"/><path fill="currentColor" d="m406.62,418.4v-12.08h12v12.08h-12Z"/><path fill="currentColor" d="m202.6,94.06c-4.28,0-8.56,0-12.84,0v-12.44h12.84v12.45Z"/><path fill="currentColor" d="m121.41,297.05c-8.79,0-17.58,0-26.38-.01v-13.28h-26.58v-12.71h39.14c.19,3.99.39,8.12.62,12.87h13.2v13.13Z"/><path fill="currentColor" d="m94.34,229.38c-4.28,0-8.56,0-12.84,0v-12.81h12.85c0,4.27,0,8.55,0,12.82Z"/><path fill="currentColor" d="m134.94,257.15c0,4.28,0,8.56,0,12.84h-12.37v-12.84h12.38Z"/><path fill="currentColor" d="m54.44,310.58c0-4.28,0-8.56,0-12.84h12.37v12.84h-12.38Z"/><path fill="currentColor" d="m94.34,297.75c0,4.28,0,8.56-.01,12.84h-12.44v-12.84h12.45Z"/><path fill="currentColor" d="m27.77,27.38h39.12v39.11H27.77V27.38Z"/><path fill="currentColor" d="m472.89,66.69h-39.19V27.57h39.19v39.11Z"/><path fill="currentColor" d="m27.81,433.38h39.04v39.04H27.81v-39.04Z"/><polygon class="b" points="221.37 265.3 225.76 265.3 223.53 256.04 221.37 265.3"/><path fill="currentColor" d="m205.45,254.69h-.11v15.19h.11c2.77,0,5.31-1.5,6.65-3.93,1.27-2.3,1.27-5.04,0-7.34-1.34-2.42-3.88-3.93-6.65-3.93Z"/><path fill="currentColor" d="m226.51,236.15c.98-1.3.97-2.98.02-4.17-.64-.8-1.59-1.27-2.62-1.27h-2.95v6.76h2.88c1.04,0,2.03-.49,2.66-1.32Z"/><path fill="currentColor" d="m294.65,231.98c-.64-.8-1.59-1.27-2.62-1.27h-2.95v6.76h2.88c1.04,0,2.03-.49,2.66-1.32.98-1.3.97-2.98.02-4.17Z"/><path fill="currentColor" d="m309.55,250.4c0-14.43.04-28.85-.01-43.28-.04-11.19-4.95-16.27-16-16.3-28.63-.07-57.26-.06-85.88,0-11.24.02-16.54,5.34-16.56,16.6-.05,28.4-.06,56.81,0,85.21.02,11.29,5.3,16.6,16.54,16.62,28.63.06,57.26.06,85.88,0,11.04-.02,15.97-5.06,16.02-16.25.06-14.2.01-28.4.01-42.6Zm-91.67-22.77h6.03c1.97,0,3.81.89,5.03,2.43,1.82,2.29,1.85,5.52.09,7.86-.57.76-1.28,1.36-2.06,1.8l4.17,9.25h-2.35c-.73,0-1.39-.44-1.68-1.11l-3.14-7.31s-.08,0-.12,0h-2.88v8.41h-3.08v-21.34Zm-14.68,2.92c.78-1.16,2.85-3.19,5.69-3.45,2.28-.21,4.48.72,6.52,2.78l-.33.33c-.94.93-2.37,1.09-3.53.45-.8-.44-1.6-.63-2.38-.56-1.78.17-3.11,1.6-3.48,2.14-1.5,2.23-2.07,9.1.12,12.71.47.77,1.2,1.21,2.23,1.34,1.56.19,3.23-.38,4.02-.8v-5.24h-3.14v-3.02h6.15v9.62l-.41.44c-1,1.05-3.57,2.05-6,2.05-.29,0-.58-.01-.87-.05-2.01-.22-3.59-1.18-4.56-2.78-2.71-4.46-2.28-12.64-.05-15.96Zm2.25,42.44h-3.23v-21.43h3.23c3.9,0,7.5,2.12,9.38,5.54,1.79,3.24,1.79,7.11,0,10.35-1.89,3.42-5.48,5.54-9.38,5.54Zm23.61,0c-.84,0-1.58-.58-1.78-1.4l-.78-3.22h-5.86l-1.08,4.62h-3.54l5.99-21.42h1.59c.82,0,1.54.53,1.76,1.32l5.79,20.1h-2.11Zm14.14,0h-10.25v-21.42h3.08v18.34h7.17v3.08Zm-.48-36.23l-.59,3.08h-6.1v6.05h7.86l-.59,3.08h-10.36v-21.34h10.94l-.59,3.08h-7.28v6.05h6.69Zm3.31,3.08l.59-3.08h6.1v-6.05h-7.86l.59-3.08h10.36v21.34h-10.94l.59-3.08h7.28v-6.05h-6.69Zm22.26,33.15h-22.85v-10.23l3.08.59v6.57h6.81v-5.98l3.08.59v5.4h6.81v-7.15l3.08.59v9.65Zm0-11.2l-3.08-.59v-6.56h-6.81v5.97l-3.08-.59v-5.39h-6.81v7.14l-3.08-.59v-9.64h22.85v10.23Zm3.17-12.83h-3.75c-.82,0-1.54-.54-1.76-1.33l-4.58-16.09v17.42h-3.08v-21.34h3.79c.82,0,1.54.54,1.76,1.33l4.54,15.98v-17.31h3.08v21.34Zm12.85,0h-10.36v-21.34h10.18v3.08h-7.1v6.05h6.1v3.08h-6.1v6.05h7.28v3.08Zm12.58,0c-.73,0-1.39-.44-1.68-1.11l-3.14-7.31s-.08,0-.12,0h-2.88v8.41h-3.08v-21.34h6.03c1.97,0,3.81.89,5.03,2.43,1.82,2.29,1.85,5.52.09,7.86-.57.76-1.28,1.36-2.06,1.8l4.17,9.25h-2.35Z"/></svg>