<svg viewBox="0 0 1400 750" fill="none">
  <path d="M86.9,341c3.9,0.5,7.8,0.7,11.7,0.7c32.8,0,67.7-15.4,81.1-31.5l5.6-6.7V155.9h-83.1v46.3h42.4v80.4   c-10.7,6.6-33.2,15.3-54.3,12.3c-14-2-23.8-8.7-30.1-20.5c-29.6-55.4-22-160.8-1.7-195.1c4.9-8.2,22.9-30.2,47-32.8   c11.2-1,22.4,2,32.1,8.5c15.5,10,34.9,7.2,47.6-6.9l4.5-5.1c-27.6-31.6-57.2-45.9-88.1-42.6c-38.3,4.1-66.3,35.3-76.9,53   c-30.2,51-35.9,176.5,0.6,245C38.5,323,59.8,337.7,86.9,341z" fill="currentColor"/>
	<path d="M264.5,207h38.9c0.5,0,1.1-0.1,1.6-0.1l42.4,112.3c3.9,10.3,12.8,17,22.7,17h31.8l-56.4-142   c10.9-6.9,20.4-16.3,28-27.6c28.9-43.4,21.3-105.2-16.8-138c-15-12.9-33.4-19.9-52.3-19.9H223v327.5h41.6V207z M304.3,55.9   c13.8,0,26.8,7.1,35.4,19.4c12.7,18.3,13,44.1-0.3,64.1c-8.5,12.8-21.8,20.3-35.9,20.3h-38.9l-0.1-103.9H304.3z" fill="currentColor"/>
	<path d="M1265.5,194.2c10.8-6.9,20.3-16.3,27.8-27.6c28.9-43.4,21.4-105.2-16.8-138c-15.1-13-33.4-20-52.3-20h-81.4   v327.5h41.6V207h38.9c0.5,0,1.1-0.1,1.6-0.1l42.4,112.3c3.9,10.3,12.8,17,22.7,17h31.8L1265.5,194.2z M1223.2,159.7h-38.9   l-0.1-103.9h39.8c13.8,0,26.8,7.1,35.3,19.4c12.7,18.3,13,44.1-0.3,64.1C1250.6,152.2,1237.3,159.7,1223.2,159.7z" fill="currentColor"/>
	<polygon points="566.4,55.9 574.3,8.6 426.5,8.6 426.5,336.2 566.4,336.2 574.3,288.9 468.1,288.9 468.1,196    550.5,196 558.4,148.7 468.1,148.7 468.1,55.9  " fill="currentColor"/>
	<polygon points="595.2,288.9 587.3,336.2 735.1,336.2 735.1,8.6 595.2,8.6 587.3,55.9 693.5,55.9 693.5,148.7    611.1,148.7 603.1,196 693.5,196 693.5,288.9  " fill="currentColor"/>
	<polygon points="595.2,524.1 636.8,533.1 636.8,423.4 728.7,423.4 728.7,506.1 770.3,515.1 770.3,423.4 862.2,423.4    862.2,524.1 903.8,533.1 903.8,376 595.2,376  " fill="currentColor"/>
	<polygon points="862.2,657.7 770.3,657.7 770.3,574.9 728.7,565.9 728.7,657.7 636.8,657.7 636.8,556.9 595.2,547.9    595.2,705 903.8,705 903.8,556.9 862.2,547.9  " fill="currentColor"/>
	<polygon points="1021.8,196 1104.2,196 1104.2,148.7 1021.8,148.7 1021.8,55.9 1117.7,55.9 1117.7,8.6 980.2,8.6    980.2,336.2 1120.1,336.2 1120.1,288.9 1021.8,288.9  " fill="currentColor"/>
	<path d="M905,274.3L843.7,29c-3-12.1-12.7-20.4-23.8-20.4h-51.1v327.5h41.6V68.7l61.8,247c3,12.1,12.7,20.4,23.8,20.4   h50.7V8.6H905V274.3z" fill="currentColor"/>
	<path d="M55.1,376H11.4v329h43.7c79.9,0,144.7-73.7,144.7-164.5C199.8,449.6,135,376,55.1,376z M144.9,596.8   L144.9,596.8c-18,37.1-52.4,60.2-89.8,60.2h-1.5V423.9h1.5c56.6,0,102.6,52.2,102.6,116.6C157.7,560.2,153.3,579.6,144.9,596.8z" fill="currentColor"/>
	<path d="M300.4,376.1l-21.5,0.1L198,705h47.7l14.5-70.9h79.2l10.4,49.5c2.7,12.6,12.6,21.4,24,21.4h28.5l-78.2-308.6   C321.1,384.3,311.4,376.1,300.4,376.1z M269.9,586.8l29.2-142.1l30.2,142.1L269.9,586.8z" fill="currentColor"/>
	<polygon points="468.1,376 426.5,376 426.5,704.9 564.9,704.9 564.9,657.6 468.1,657.6  " fill="currentColor"/>
</svg>
