<svg id="a" xmlns="http://www.w3.org/2000/svg" viewBox="0 0 1400 656.86"><defs><style>.b{stroke-width:0px;}</style></defs><path class="b" d="m90.56,312.54c4.01.43,8.1.64,12.2.64,34.19,0,70.41-14.08,84.47-28.88l5.83-6.14v-135.33h-86.57v42.43h44.14v73.69c-11.19,6-34.6,14.03-56.6,11.29-14.55-1.8-24.82-7.95-31.4-18.78-30.85-50.82-22.92-147.39-1.75-178.81,5.09-7.56,23.8-27.69,48.9-30.06,11.01-1.04,22.21,1.58,33.47,7.81,16.26,9,36.41,6.72,49.61-6.36l4.68-4.64C168.84,10.46,137.9-2.64,105.79.35,65.87,4.13,36.66,32.68,25.7,48.95c-31.46,46.69-37.45,161.77.66,224.53,13.67,22.52,35.87,36.03,64.19,39.06Z"/><path class="b" d="m389.1,152.67c24.84-32.82,24.35-78.27-1.2-110.54-17.24-21.75-43.04-34.24-70.79-34.24h-84.83v300.19h43.33v-118.38h40.57c.55,0,1.1-.09,1.65-.1l44.15,102.9c4.06,9.45,13.35,15.58,23.64,15.58h33.1l-58.63-130.13c11-6.2,20.95-14.64,29-25.28Zm-113.49-101.45h41.5c14.43,0,27.86,6.49,36.82,17.8,13.28,16.78,13.54,40.43-.3,58.72-8.83,11.66-22.83,18.63-37.45,18.63h-40.57V51.23Z"/><path class="b" d="m1347.45,152.67c24.84-32.82,24.35-78.27-1.2-110.54-17.24-21.75-43.04-34.24-70.79-34.24h-84.83v300.19h43.33v-118.38h40.57c.55,0,1.1-.09,1.65-.1l44.15,102.9c4.06,9.45,13.35,15.58,23.64,15.58h33.1l-58.63-130.13c11-6.2,20.95-14.64,29-25.28Zm-113.49-101.45h41.5c14.43,0,27.86,6.49,36.82,17.8,13.28,16.78,13.54,40.43-.3,58.72-8.83,11.66-22.83,18.63-37.45,18.63h-40.57V51.23Z"/><polygon class="b" points="487.69 179.66 573.57 179.66 581.8 136.32 487.69 136.32 487.69 51.23 590.07 51.23 598.3 7.89 444.35 7.89 444.35 308.08 590.07 308.08 598.3 264.75 487.69 264.75 487.69 179.66"/><polygon class="b" points="722.5 136.32 636.62 136.32 628.39 179.66 722.5 179.66 722.5 264.75 620.13 264.75 611.9 308.08 765.84 308.08 765.84 7.89 620.13 7.89 611.9 51.23 722.5 51.23 722.5 136.32"/><polygon class="b" points="759.2 388.02 759.2 463.81 802.53 472.04 802.53 388.02 898.28 388.02 898.28 480.3 941.61 488.53 941.61 344.63 620.13 344.63 620.13 480.3 663.46 488.53 663.46 388.02 759.2 388.02"/><polygon class="b" points="802.53 602.77 802.53 526.86 759.2 518.62 759.2 602.77 663.46 602.77 663.46 510.36 620.13 502.13 620.13 646.1 941.61 646.1 941.61 510.36 898.28 502.13 898.28 602.77 802.53 602.77"/><polygon class="b" points="1064.6 179.66 1150.48 179.66 1150.48 136.32 1064.6 136.32 1064.6 51.23 1164.53 51.23 1164.53 7.89 1021.26 7.89 1021.26 308.08 1166.97 308.08 1166.97 264.75 1064.6 264.75 1064.6 179.66"/><path class="b" d="m942.91,251.39l-63.94-224.81c-3.15-11.06-13.25-18.69-24.75-18.69h-53.28v300.19h43.33V62.98l64.4,226.42c3.15,11.06,13.25,18.69,24.75,18.69h52.82V7.89h-43.33v243.5Z"/><path class="b" d="m57.37,344.63H11.88v301.47h45.49c54.89,0,105.46-29.87,131.98-77.93,25.15-45.59,25.15-100.02,0-145.61-26.52-48.07-77.09-77.94-131.98-77.94Zm93.56,202.36c-18.79,34.07-54.65,55.24-93.56,55.24h-1.62v-213.72h1.62c38.91,0,74.77,21.17,93.57,55.25,17.83,32.32,17.83,70.91,0,103.23Z"/><path class="b" d="m290.5,344.75l-84.25,301.35h49.74l15.16-64.95h82.45l10.93,45.27c2.79,11.55,13.12,19.68,25,19.68h29.66l-81.49-282.82c-3.18-11.04-13.3-18.63-24.79-18.6l-22.41.07Zm-9.23,193.07l30.41-130.26,31.46,130.26h-61.87Z"/><polygon class="b" points="487.69 344.63 444.35 344.63 444.35 646.04 588.54 646.04 588.54 602.71 487.69 602.71 487.69 344.63"/></svg>