<svg id="a" xmlns="http://www.w3.org/2000/svg" viewBox="0 0 500 500"><path fill="currentColor" d="m182.71,152.48h-30.27v14.93h-15.08v30.2h-15.53v-14.73h-14.8v14.71h-15.42v-15.13h14.76v-14.81h-29.63v60.23h-30.78v-14.74h-14.66v45.08h-15.64v-14.95H.52v-15.25h14.8v-14.96H.56v-15.34h45.27v-15.26h15.01v-14.88h-14.77v-15.44h14.88v-30.3h45.95v14.88h14.78v-14.84h30.64v14.79h14.79v-29.73h-14.99v-30.26h-15.15v-15.14h-15.09v-15.69h15.01v-15.14h15.07v-14.55h-30.06V.5h30.36v15h15.11v15.64h-14.84v14.66h29.92v15.64h-14.73v44.98h14.68v-30.05h15.4v45.34h15.11v15h14.9v-29.72h-14.8v-15.6h14.81v-14.64h-14.93v-15.13h-15.13v-30.82h30.03v-14.59h-14.8V.52h60.45v14.81h30.31V.52h75.55v30.66h-14.86v15.08h-15.05v75.24h14.88v-29.9h15.2v30.09h15.12v15.17h15v15.35h-14.81v-14.81h-15.18v29.89h-15.18v-29.98h-15.08v-15.18h-45.47v-30.13h-15.05v44.79h45.2v15.65l.06-.08h-45.32v15.13h-15.28l.05.05v-30.42h-15.31v-30.05h-15v3.15c0,11.48,0,22.96,0,34.44,0,2.52.08,5.04.12,7.55l-.17.19h-45.28v14.97c-.06.07-.13.14-.2.21h-15.09v-15.19c3.63-.1,7.26-.2,10.89-.28,1.28-.03,2.56,0,3.91,0v-29.81h-14.7v30.19Zm151.18-91.42V16.31h-15.06v30.13h-29.99v29.53h15.06v-14.91h29.99Zm-75.46-14.49h-15.01v44.87h14.99v14.97h15.13v-15.15h14.91v-14.68h-30.02v-30.01Zm.03-.9h29.99v-14.59h-15.05v-14.82h-14.94v29.41Zm-121.13,91.66v14.61h14.59v-14.61h-14.59Zm-30.28,15.2v14.53h14.53v-14.53h-14.53Zm-.72-.53v-14.61h-14.35v14.61h14.35Zm227.63-60.05h-14.79v14.43h14.79v-14.43ZM46.51,212.63h14.37v-14.68h-14.37v14.68Zm196.46-120.63h-14.71v14.37h14.71v-14.37Zm61.03-15.22v14.46h14.74v-14.46h-14.74Zm-61.1-31.01v-14.35h-14.61v14.35h14.61Z"/><path fill="currentColor" d="m197.78,409.78v15.12h15.02v15.22h-30.13c-.12-5.01-.24-10.01-.35-14.98h-44.96v14.97h15.11v14.98h14.86v-15.07h15.44v15.12h14.88v15.08h-45.08v15.18h45.02v14.5h-60.59v-29.43h-15.09v-15.26h14.82v-15.01h-14.82v-30.4h14.81v-15.11h-14.95v-15.12h-45.45v-15.05h-14.68v14.75h-30.88v-14.78h-14.54v14.82H.53v-14.84h14.83v-15.17H.6v-15.17h14.78v-30.21H.57v-15.17h14.82v-15.06h15.69v14.82h-14.81v15.18h14.75v30.32h-14.78v15.08h14.94v15.12h29.72v-45.21h-14.86v-15.1h14.96v-15.21h30.29v-15.04h15.63v14.84h29.8v-14.88h-14.98v-15.14h-44.99v14.79h-30.72v-14.81h14.95v-15.22h61v14.91h14.96v-45.39h15.08v-15.03h15.15v-15.12h15.31v30.21h-29.95v15.07h29.99v30.31h-15.21v-14.9h-14.86v14.92h-15v15.18h29.91v15.08h-14.81v30.5h15.07l-.08-.07v14.96h-30.59v-29.94h-29.88v14.77h-15.63v-14.8h-14.64v45.05h14.53v-14.72h15.52v14.83h15.08v15.07h14.94v-14.86h45.48v-15.19h15.5l-.08-.06v15.2h15.21l-.06-.06v15.2l.06-.06h-75.54v15.27h30.13v30.22h30.26l-.05-.05Zm-91.47-106.08v-14.87h-14.31v14.87h14.31Zm.1,45.72h-14.4v14.76h14.4v-14.76Z"/><path fill="currentColor" d="m334.13,212.99v-30.22h-30.14v-15.46h30.11v-14.94l-.06.08c2.03-.11,4.06-.28,6.09-.32,2.89-.06,5.78-.01,8.96-.01v30.35h3.55c27.99,0,55.99,0,83.98.01,1.19,0,2.39.19,3.58.3,0,0-.07-.07-.07-.07,0,5.05,0,10.1.01,15.14h-15.01v14.81h14.91v-14.92h15.15v14.91h15.12v-14.87h29.59v30.18h-44.49v15.07h14.92v15.23h15.05v30.32h14.56v15.08h-14.25v15.18h14.18v45.49h-14.4l.08.08v-15.31h-15.35v-60.56h-15.05v-14.99h-15.11v-45.26h-15.2v14.99h-15v30.26h-14.99v15.07h14.99v15.29h-15.14v30.21h-15.28v-45.6h-14.9v-15.05h14.8v-15.14h-30.13l.08.08c0-5.07,0-10.14,0-15.21,0,0-.06.07-.06.07,1.02-.05,2.05-.13,3.07-.13,13.08,0,26.16,0,39.24,0,.99,0,1.98,0,3.2,0v-15.19h14.94v-15.06h-30.26v-14.92h-30.21v14.97h-15.11l.07.08Z"/><path fill="currentColor" d="m198.65,198.53h104.35v104.45h-104.35v-104.45Zm81.7,55.96c3.92-.64,7.76-.49,9.86.39v6.3c-2.07.13-3.95.25-5.87.37.23,2.71,1.46,4.36,3.6,5.27,4.08,1.76,8.57-1.07,8.76-5.67.17-4.01.04-8.03,0-12.04,0-.34-.21-.68-.45-1.4h-6.93c0-2.46.11-4.51-.03-6.55-.18-2.86-2.03-4.58-4.89-4.73-1.2-.06-2.41-.01-3.65-.01-.3-.76-.56-1.41-.77-1.94h-5.65c-.27.76-.47,1.34-.64,1.82-1.18.12-2.16.22-3.08.32v5.99c1.2.09,2.2.16,3.22.24v5.03h-5.81v6.14c2.05.1,3.95.2,6.13.31v12.77h6.18v-12.6Zm-24.96-11.68v18.5h-5.83c-.97,1.98-1.87,3.83-2.88,5.91h20.96c.14-1.88.27-3.69.41-5.7-2.16-.12-4.05-.23-5.9-.34v-18.36c1.33-.08,2.43-.15,3.66-.23v-5.99h-13.6v6.01c1.09.07,2,.13,3.18.2Zm-7.8-8.41h-6.27c-1.75,3.58-3.58,7.13-5.2,10.77-.87,1.96.22,3.43,2.42,3.68.77.09,1.54.13,2.53.22-1.15,2.27-2.22,4.22-3.13,6.25-.88,1.98.08,3.57,2.25,3.69,2.21.12,4.43.03,6.6.03,1.11-1.97,2.09-3.7,3.16-5.6-1.67-.18-2.89-.31-4.51-.48,1.86-3.61,3.52-6.82,5.35-10.36-2.77.11-5.04-.62-7.39.69,1.33-2.81,2.65-5.61,4.2-8.88Zm-35.15,27.97c-.14,3.81,2.2,6.1,5.56,5.62,2.46-.35,4.09-2.29,4.1-5.16.04-8.94.02-17.89,0-26.83,0-.52-.2-1.03-.29-1.47h-5.6v27.54c-1.44.12-2.62.21-3.77.31Zm-6.4-19.66c-.83,5.33-1.6,10.28-2.45,15.77,1.01,1.69,2.32,3.91,3.68,6.18,3.02-3.34,5.12-15.77,3.82-21.95h-5.05Zm25.88.04h-5.73c.3,7.57.32,14.95,3.87,22.5,1.54-2.86,2.76-5.1,3.48-6.44-.6-5.94-1.09-10.9-1.61-16.07Zm11.56,24.46c1.02-1.81,2.04-3.63,3.36-5.96h-10.44c-.92,1.7-2.01,3.7-3.23,5.96h10.31Zm47.48-25.56c2.13.33,4.11.72,5.38-1.35.69-1.12.53-2.35-.41-3.33-.9-.94-2-1.36-3.26-.72-2.25,1.13-1.85,3.16-1.71,5.4Z"/><path fill="currentColor" d="m334.13,364.33h-15v30.23h14.74v15.17h-29.92v15.08h14.81v30.27h-14.82v-15.03h-15.32l.08.08v-15.11h-30.18v-15.07h15.03v-15.32l-.08.08h15.32v-15.28h15.07v-30.32h14.93v-14.83h-30.26v14.81h-30.22v-15.03h-15.12l.07.07v-15.04h75.56v-106.1h15.3l-.07-.08c.03,4.97.06,9.94.09,15.13h15.05v15.22l.06-.07h-14.98v15.21h14.99l-.08-.08c0,15.17,0,30.34,0,45.5l.08-.08h-15.22v60.66l.08-.08Z"/><path fill="currentColor" d="m455.27,440.04h-15.09v30.29h-15.09v15.05h14.82v14.55h-30.03v-14.3h-15.26v-15.3h15.31v-15.19h14.85v-14.87h-30.08v30.14c-5.07-.03-10.14-.06-15.21-.09l.08.08v-15.1h-15.14v-45.4h-14.96v-15.15h14.96v-30.42l-.08.08h15.28v-15.22h15.09v14.97h30.31v-30.1h15.15v-30.04h14.93v45.25h-14.82v45.43h15l-.08-.08v15.12h-14.95v15.07h14.95v15.31l.08-.08Zm-75.55-60.41v45.09h45.08v-45.09h-45.08Z"/><path fill="currentColor" d="m.49,106.73V.54h105.2v106.19H.49ZM90,14.6H14.63v75.37h75.37V14.6Z"/><path fill="currentColor" d="m.58,393.65h105.09v106.22H.58v-106.22Zm89.41,14.1H14.62v75.38h75.37v-75.38Z"/><path fill="currentColor" d="m498.79,106.81h-105.11V.59h105.11v106.22Zm-15.64-92.22h-75.37v75.38h75.37V14.59Z"/><path fill="currentColor" d="m440.21,182.77v-15.12h-15.08v-15.5h29.9v-14.82h-14.72v-15.39h14.84v14.85h15.19v15.17h15.09v-30.06h14.55v45.5h-14.41v15.11h-15.07v-14.82h-15.17v15h-15.19l.07.07Z"/><path fill="currentColor" d="m485.48,364.33v15.12h14.47v30.22h-14.37v15.12h-15.08v-30.17h-15.32l.08.08v-15.27h15.22v-15.02h15.07l-.08-.08Z"/><path fill="currentColor" d="m31.32,182.52h-15.7v-14.88H.57v-15.55h14.98v-15.17h15.1v-15h15.59v15.17h-14.91v45.43Z"/><path fill="currentColor" d="m485.48,470.34v15.11h14.47v14.43h-44.51v-29.46h30.12l-.08-.08Z"/><path fill="currentColor" d="m273.49,167.49v14.98h-45.39v-15.19h15.09v-14.87l.17-.19h15.08v15.07c2.1,0,3.86-.03,5.62,0,3.16.06,6.32.17,9.48.25l-.05-.05Z"/><path fill="currentColor" d="m273.56,394.62h-45.43v-15.15l-.07.07h30.4v-14.96h15.02v30.12l.08-.08Z"/><path fill="currentColor" d="m197.85,334.13v-14.99h30.11v14.99h15.31l-.07-.07v15.15h-30.28l.06.06c-.1-4.98-.2-9.95-.3-15.2h-14.9l.08.06Z"/><path fill="currentColor" d="m379.48,470.33v29.57h-30.21v-29.56s-.08.08-.08.08c10.12,0,20.24,0,30.36,0l-.08-.08Z"/><path fill="currentColor" d="m212.92,379.49v30.29h-15.14s.05.05.05.05c-.11-5-.22-10-.34-15.31h-14.85v-14.97h30.34l-.06-.05Z"/><path fill="currentColor" d="m303.77,485.56h30.11v14.35h-30.04v-14.43l-.08.08Z"/><path fill="currentColor" d="m121.84,106.75v-15.16h15.2v15.16h-15.2Z"/><path fill="currentColor" d="m197.58,15.93h-14.98V.57h14.98v15.36Z"/><path fill="currentColor" d="m106.79,212.97v14.96h-15.25v-14.96h15.25Z"/><path fill="currentColor" d="m167.63,319.03c-.11-2.03-.28-4.07-.32-6.1-.06-2.89-.01-5.79-.01-8.9h15.22v14.94h-14.96l.08.07Z"/><path fill="currentColor" d="m197.91,167.38h14.89v15.09h-15.08v-14.88c.07-.07.13-.14.2-.21Z"/><path fill="currentColor" d="m303.85,485.48h-14.99v-14.92h14.91v15l.08-.08Z"/><path fill="currentColor" d="m258.58,470.49h14.79v14.8h-14.79v-14.8Z"/><path fill="currentColor" d="m349.28,470.34h-14.99v-14.92h14.91v15l.08-.08Z"/><path fill="currentColor" d="m455.19,440.12h14.99v14.92h-14.91v-15l-.08.08Z"/><path fill="currentColor" d="m364.42,364.33c-5.07,0-10.15,0-15.22,0l.08.08v-14.99h15.06v14.99l.08-.08Z"/><path fill="currentColor" d="m288.62,440.04v14.99h-14.92v-14.91h15l-.08-.08Z"/><path fill="currentColor" d="m228.13,379.47c-5.07,0-10.14.01-15.2.02l.06.05v-15.21l-.06.06h15.14v15.14l.07-.07Z"/><path fill="currentColor" d="m243.24,455.04v-14.76h14.93v14.76h-14.93Z"/><path fill="currentColor" d="m349.19,364.33v14.99h-15.07v-14.99l-.08.08h15.22l-.08-.08Z"/><path fill="currentColor" d="m485.55,470.42v-14.99h14.36v14.91h-14.44l.08.08Z"/><path fill="currentColor" d="m227.91,500h-14.9v-14.32h14.9v14.32Z"/><path fill="currentColor" d="m409.76,288.7v-15.22c10.12,0,20.24,0,30.36,0v15.22h-30.36Z"/><path fill="currentColor" d="m394.62,349.27v-15.22h14.99v15.22h-14.99Z"/><path fill="currentColor" d="m349.19,303.83h14.99v30.07h-14.91v-30.15l-.08.08Z"/><path fill="currentColor" d="m280.56,242.85c3.03.02,3.16.23,2.75,4.74-.81.06-1.67.12-2.75.2v-4.95Z"/><path fill="currentColor" d="m394.83,394.71h14.76v14.9h-14.76v-14.9Z"/><path fill="currentColor" d="m31.34,74.77V31.38h43.4v43.39H31.34Z"/><path fill="currentColor" d="m74.85,424.58v43.4H31.45v-43.4h43.4Z"/><path fill="currentColor" d="m424.58,31.35h43.4v43.4h-43.4V31.35Z"/></svg>