<?xml version="1.0" encoding="UTF-8"?><svg id="a" xmlns="http://www.w3.org/2000/svg" viewBox="0 0 1000 1000"><defs><style>.b{fill:#fff;stroke-width:0px;}</style></defs><path class="b" d="m936.28,805.95h.38v-.37h-.38v.37Z"/><path class="b" d="m554.96,555.26l1.7-.57,13.09,7.37-3.66-12.62,2.25-1.69c10.02-7.45,16.09-17.94,16.09-29.89,0-22.09-21.16-40.42-48.32-40.42s-48.32,18.33-48.32,40.42,21.16,40.42,48.32,40.42c6.79,0,13.23-1.14,18.86-3.03Zm-.74-53.56c3.22,0,6.04,2.83,6.04,6.06s-2.82,6.06-6.04,6.06-6.04-2.83-6.04-6.06,2.82-6.06,6.04-6.06Zm-36.24,12.13c-3.22,0-6.04-2.83-6.04-6.06s2.82-6.06,6.04-6.06,6.04,2.83,6.04,6.06-2.82,6.06-6.04,6.06Z"/><path class="b" d="m534.91,469.41c-5.54-22.88-29.77-40.47-59.2-40.47-33.6,0-60.4,22.8-60.4,50.53,0,15.95,8.38,29.59,22.4,39.1l2.52,1.71-5.51,16.6,17.57-10.91,1.81.63c6.31,2.24,13.97,3.41,21.61,3.41,1.95,0,3.89-.08,5.79-.24-1.12-3.79-1.76-7.77-1.76-11.89,0-26.86,24.9-47.91,55.18-48.46Zm-83.36-.05c-4.44,0-8.05-3.63-8.05-8.08s3.62-8.08,8.05-8.08,8.05,3.63,8.05,8.08-3.62,8.08-8.05,8.08Zm48.32-16.17c4.44,0,8.05,3.63,8.05,8.08s-3.62,8.08-8.05,8.08-8.05-3.63-8.05-8.08,3.62-8.08,8.05-8.08Z"/><path class="b" d="m909.84,779.41h-26.38v-26.75h-26.65v-26.54h-52.16v-26.55h26.36v-26.77h25.94v-52.38h-26.21v25.83h-52.77v-26.81h26.07v-25.91h-52.64v-53.47h-26.33c0-8.73,0-17.46,0-26.19h52.7v52.76h26.64v26.54h25.69v-52.99h-24.97v-79.4h51.8v26.18h52.89v-26.59h78.98v-52.33h-25.91v25.48h-25.5v-79.92h24.65v-26.48h-26.22v-25.65h-25.61v78.95h-26.54v-25.86h-52.8v25.91h26.07v26.83h-26.34v26.92h-52.62v26h-78.98v26.73h25.7v26.55h-25.34v26.92h25.34v25.49h-52.63v-25.51h-26.7v-26.52h-13.04v-26.94h13.04c0-8.73,0-17.46,0-26.18h-13.04v-56.75c0-20.45-16.73-37.17-37.17-37.17h-3.38v-65.16h-25.58v53.15h-26.56c.22,4.59.4,8.47.57,12.01h-26.2v-39.82h25.36v-25.76h-51.64v65.59h-27.76v-11.62h-25.53v11.62h-27.11v-38.83h-25.5v25.95h-53.51v53.7h-26.4c0,8.72,0,17.45,0,26.17,17.5,0,35,0,52.5.01v-25.89c5.09-.31,9.17-.56,13.01-.8v27.06h-12.63v53.22h-25.94v52.02h38.58v27.89h-12.62v25.81h12.62v2.46c0,20.45,16.73,37.17,37.17,37.17h30.11c.08,3.75.17,11.07-.27,14.67h25.5v24.62h-25.5v-24.62c-7.87,1.36-26.8.23-26.8.23v25.14h-25.96v26.51h51.64v26.49h-52.46v26.65c-8.68.12-17.37.24-26.05.36v78.95h-26.55v-52.39h-52.8c-.13,8.72-.25,17.45-.38,26.17h-26.44v-26.16h-25.39v105.81h25.39v-25.42h26.82v25.42c17.51,0,35.02,0,52.53,0v-26.07h78.99v-26.84h-25.37v-26.38h79.01v-26.54h25.32v-26.92h-25.32v-25.99h26.17v-26.73h26.34v52.9h26.96v26.74h25.93v52.73h-26.39v-25.48h-52.57v25.48h26.44v26.54h26.72v26.94h25.79v25.91h-105.41v26.81h105.8v26.19h105.65v-25.46h26.39v52.03h26.38v-25.89h26.85v-53.97h26.85v-24.93h26.37v52.03h25.61v-53h132.38v-26.82h25.6v-26.89h-52.19v-25.67h-26.44v-26.54Zm-52.53-371.75h52.19v26.31h-25.77v26.43h-26.42c0-17.58,0-35.16,0-52.74Zm-556.51,424.13h-25.37v-25.84h25.37v25.84Zm105.79-53.11h-25.37v-25.83h25.37v25.83Zm53.62.35h-25.33v-26.18h25.33c0,8.73,0,17.46,0,26.18Zm24.32-241.49c-2.91.33-5.84.55-8.84.55-7.72,0-15.35-1.18-22.26-3.36l-33.39,20.76,10.7-32.26c-14.27-10.69-23.5-25.99-23.5-43.76,0-32.91,31.19-58.62,68.45-58.62,33.52,0,62,20.72,67.45,48.94,27.57,2.95,49.33,22.98,49.33,48.08,0,13.72-6.79,25.77-17.18,34.42l7.69,26.48-27.57-15.49c-5.96,1.78-12.38,3.09-19.32,3.09-22.84,0-42.77-11.7-51.56-28.85Zm28.94,161.84v-26.18h26.08c0,8.73,0,17.46,0,26.18-8.69,0-17.39,0-26.08,0Zm52.9,185.87v-52.74h26.08c0,17.58,0,35.16,0,52.74-8.7,0-17.39,0-26.09,0Zm0-106.21v-53.3h-26.45v-25.99h26.45v-26.55c8.69,0,17.39,0,26.08,0v52.09h25.68v106.84h-25.32v-53.09h-26.45Zm131.54,132.32h-105.08v-25.72h52.02v-79.11h26.23v-26.51h-24.64v-53.97h25.59v-25.93h25.88v211.24Zm52.66-26.22h-24.94v-52.05h24.94v52.05Zm.3-80.29h-25.08v-51.25h25.08v51.25Zm.26-158.59c-8.69,0-17.39.01-26.08.02-.12-8.73-.24-17.46-.36-26.18-8.7,0-17.39,0-26.09,0v26.55h26.07v25.51h-52.79v-25.17h-26.29v51.99h-26.29v-26.16h-26.49c-.09-8.69-.17-17.39-.26-26.08h-26.55v26.09c-8.69,0-17.38,0-26.07,0v-25.81h-25.7c-.28-4.02-.76-10.73-1-14.21h79.31c-.09.04-.19.08-.28.12.19,4.09.41,8.77.63,13.45h25.79v-22.04c8.31-6.83,13.63-17.18,13.63-28.71v-29.18c4.67.42,8.88.8,13.84,1.24v26.3h26.45v25.71h25.64v-25.42h26.82v25.42h26.08v26.55Zm26.43,79.66h-25.35v-25.83h25.35v25.83Zm.02-53.84h-26.08v-25.43c8.69,0,17.39,0,26.08,0v25.43Zm.36,54.22c8.77.06,17.54.13,26.31.19v25.29h-26.31v-25.48Zm78.63,132.04h-78.26v-78.57h78.26v78.57Zm52.66.22h-24.88v-25.45h24.88v25.45Z"/><path class="b" d="m856.95,672.8v.39h.37v-.39h-.37Z"/><path class="b" d="m592.84,88.66c-.13,0-.25,0-.38,0v.37c.13,0,.25,0,.38,0v-.37Z"/><path class="b" d="m830.5,354.18v.37h.37v-.37h-.37Z"/><path class="b" d="m327.98,885.22v.39h.37v-.39h-.37Z"/><path class="b" d="m248.63,885.22v.38h.37v-.38h-.37Z"/><path class="b" d="m195.17,9.49H11.54v184.81h183.63V9.49Zm-26.45,158.25H37.99V36.03h130.72v131.7Z"/><path class="b" d="m988.61,9.95h-184.08v184.34h184.08V9.95Zm-26.45,158.26h-130.72V36.51h130.72v131.7Z"/><path class="b" d="m11.54,991.34h183.62v-184.81H11.54v184.81Zm26.23-158.48h131.16v131.67H37.77v-131.67Z"/><path class="b" d="m37.43,327.63h-.38v.37h.38c0-.12,0-.25,0-.37Z"/><path class="b" d="m169.29,593.14v.39h.37c0-.13,0-.26,0-.39h-.37Z"/><path class="b" d="m910.21,301.46v-.38h0c-.12,0-.24,0-.37,0v.38h.37Z"/><path class="b" d="m858.04,593.39h25.01v79.8h-25.74v25.74h52.9v-25.35h52.78v25.45h25.45v-79.9h-52.68v-26.45h-25.94v-25.7h-51.78v26.41Z"/><path class="b" d="m909.83,566.97h.38v-.37h-.38v.37Z"/><path class="b" d="m249,779.02h-.37v.38h.37v-.38Z"/><path class="b" d="m354.43,752.47v.37c.12,0,.25,0,.37,0v-.37h-.37Z"/><path class="b" d="m275.08,752.47h79.35v-25.61h-26.67v-80.43h-79.14v52.93c-8.68.12-17.37.25-26.05.37v53.31h26.43v25.99c8.69,0,17.39,0,26.08,0v-26.55Zm-26.09-26.9v-25.84h52.2v25.84h-52.2Z"/><path class="b" d="m275.08,779.02v.37h.36c0-.12,0-.25,0-.37h-.37Z"/><path class="b" d="m512.84,274.91h26.72c.05,8.66.1,17.32.15,25.98,8.7.13,17.41.27,26.11.4.18-8.79.37-17.59.55-26.38,17.51,0,35.02,0,52.53,0v25.42h26.82v-25.44c8.69,0,17.38,0,26.06,0v25.99h26.57v27.13h26.34v26.54h26.44c0,8.73,0,17.45,0,26.18h-78.95v26.55h25.45v26.55h79.95c.12-8.72.25-17.44.37-26.17h25.82v-53.49h26.72v-26.04h-25.77v-53.24h25.77v26.54h26.45v25.43h26.82v-25.42c8.69-.12,17.39-.25,26.08-.37v-52.74h-52.53c-.12,8.73-.25,17.46-.37,26.18-8.69,0-17.38,0-26.07,0v-26.55h26.07v-25.77h-52.82v25.41h-26.33v-26.39h-52.69v-79.08c8.68-.13,17.37-.26,26.05-.38v-26.64h26.08V10.05h-185.24v25.88h-25.59v26.82h26.45v25.91c26.32.13,52.63.26,78.95.38v52.91h-26.45v52.92c-8.69,0-17.38,0-26.07,0v-53.1h-52.88v-25.91h26.06v-26.83c-17.58.07-35.15.15-52.73.22.07,17.51.13,35.01.2,52.52,8.69.12,17.39.24,26.08.36,0,8.73,0,17.46,0,26.19-8.69,0-17.39,0-26.08,0-.12-8.72-.24-17.44-.36-26.17h-26.48v-26.18h-26.04v132.01h25.79v26.94Zm370.55-.02v26.19c-8.69,0-17.39,0-26.08,0,0-8.73,0-17.46,0-26.19h26.08Zm-131.87,53.11h25.33v26.18h-25.33c0-8.73,0-17.46,0-26.18Zm0,53.1h26.08v26.19h-26.08v-26.19Zm-.38-53.47c-8.69,0-17.38,0-26.07,0v-25.43h26.07v25.43ZM619.99,62.98v-26.33h130.79v51.6h-25.71v-25.34h-26.37v25.75h-26.53v-25.69h-52.18Zm104.72,52.95v25.85h-25.37v-25.85h25.37Zm-78.99,79.32h25.57v-25.85h26.76v78.72h52.7v26.41h-78.59v-53.11h-26.45c0-8.73,0-17.46,0-26.18Zm-.37,26.55v52.73c-8.69,0-17.39,0-26.08,0,0-17.58,0-35.16,0-52.73,8.69,0,17.39,0,26.08,0Zm-105.41-26.55h26.43v-26.55h26.72v26.55h25.81c0,8.72,0,17.45,0,26.17h-78.96v-26.17Zm-.01,53.85h26.08v25.43c-8.69,0-17.39,0-26.08,0v-25.43Zm-25.7-80.39h25.33c0,8.72,0,17.45,0,26.17h-25.33v-26.17Z"/><path class="b" d="m487.05,247.97h-.38v.37h.38v-.37Z"/><path class="b" d="m301.89,142.14c0-.12,0-.25,0-.37h-.37v.37h.36Z"/><path class="b" d="m327.23,142.14h-25.34c-.12,8.72-.25,17.45-.37,26.17-8.69.12-17.38.25-26.07.37v52.03h79.03v-105.5h26.38v-52.37h-26.26v26.32h-52.69v26.05h25.32v26.92Zm.02,52.39h-25.37v-25.85h25.37v25.85Z"/><path class="b" d="m301.91,115.21h-.38v.37h.38v-.37Z"/><path class="b" d="m169.29,673.2c-17.5,0-35.01,0-52.51,0v26.55h25.69v26.73H63.87v25.98h26.41v26.23h26.23v-26.22h52.75v-26.82h26.46v-25.91h-26.44v-26.54Z"/><path class="b" d="m195.72,699.74h.38v-.37h-.38v.37Z"/><path class="b" d="m248.36,168.32h26.71v-26.55h26.45c0-8.73,0-17.46,0-26.18h-26.47v-53.1c-8.68,0-17.36,0-26.04,0v79.47h-26.47v79.47h25.82v-53.11Z"/><path class="b" d="m222.55,221.42h-.37v.38h.37v-.38Z"/><path class="b" d="m275.08,168.32v.37l.07-.07s-.07.07-.07.07c.12,0,.25,0,.37,0v-.37h-.37Z"/><path class="b" d="m408.02,9.73v25.95h52.69v52.29h26.8v-25.88h25.58V9.73h-105.08Z"/><path class="b" d="m513.1,62.1v.38h.37v-.38h-.37Z"/><path class="b" d="m89.92,646.19v-25.73h-52.74v52.51H11.33v25.68h53.09v-25.83h51.98v-26.62h-26.48Z"/><path class="b" d="m116.4,672.82v.38c.12,0,.25,0,.37,0v-.38h-.37Z"/><path class="b" d="m434.14,168.7v-.38c-.12,0-.24,0-.37,0v.38h.37Z"/><path class="b" d="m962.41,912.76h-26.46v25.82h-25.13v52.27h77.77v-26.3h-26.18v-51.78Z"/><path class="b" d="m381.24,115.58v-.37h-.38v.37h.38Z"/><path class="b" d="m407.31,141.49v26.83h-25.34v26.92h25.34v25.62h26.23v53.3h53.12v-25.82h-26.71v-79.64h-25.82v26.17h-26.45c0-8.73,0-17.46,0-26.19,8.69-.12,17.39-.24,26.08-.36V62.82h-26.56v52.76h-25.97v25.91h26.07Z"/><path class="b" d="m910.21,487.32v-.37h-.38v.37h.38Z"/><path class="b" d="m962.42,566.61v-53.3h-26.69v-25.99h-25.52v79.29h52.21Z"/><path class="b" d="m222.19,699.37c0,.12,0,.25,0,.37.13,0,.25,0,.38,0v-.36h-.38Z"/><path class="b" d="m169.65,672.81h-.37v.38c.12,0,.25,0,.37,0,0-.13,0-.26,0-.38Z"/><path class="b" d="m962.74,752.86h.37v-.37h-.37v.37Z"/><path class="b" d="m910.21,779.02h-.37v.38h.37v-.38Z"/><path class="b" d="m936.34,726.6h-26.13v52.42h26.45v26.55h26.08v-52.72h-26.39v-26.26Z"/><path class="b" d="m63.11,274.51v-25.86H11.64v52.43h25.41v-26.58h26.05Z"/><path class="b" d="m37.06,301.08v.38h.37c0-.12,0-.25,0-.38h-.37Z"/><path class="b" d="m89.94,354.55h.37v-.37h-.37v.37Z"/><path class="b" d="m89.94,354.55h-52.51v26.83h26.45v25.91h26.07v-52.73Z"/><path class="b" d="m63.87,407.29h-.38v.37h.38v-.37Z"/><path class="b" d="m857.31,248.34c0-.12,0-.25,0-.37h-.38v.37h.38Z"/><path class="b" d="m539.93,141.77c-.12,0-.24,0-.37,0,0,.13,0,.26,0,.39h.36c0-.13,0-.25,0-.38Z"/><path class="b" d="m274.79,965.55h-25.68v25.31h51.85v-51.58h-26.17v26.27Z"/><path class="b" d="m407.7,991.13h26.57v-26.25h25.93c0-8.72.01-17.45.02-26.17-17.51,0-35.01,0-52.52,0v52.42Z"/><path class="b" d="m460.22,938.71h.37v-.38h-.37c0,.13,0,.26,0,.38Z"/><path class="b" d="m857.32,964.88v26.2h25.33v-52.37h-51.8c0,8.72.01,17.45.02,26.17h26.44Z"/><path class="b" d="m830.86,938.7c0-.13,0-.25,0-.38h-.37v.38h.37Z"/><path class="b" d="m89.94,513.5v.37c.13,0,.26,0,.38,0v-.37h-.38Z"/><path class="b" d="m37.43,487.32v26.18h52.51v-26.18h-52.51Z"/><path class="b" d="m354.01,10.14h-51.88v25.62h51.88V10.14Z"/><path class="b" d="m302.12,35.76h-.38v.36h.38v-.36Z"/><path class="b" d="m751.51,142.13v-.38h-.37v.38h.37Z"/><path class="b" d="m776.91,194.53v-52.4h-25.4v52.4h25.4Z"/><path class="b" d="m11.31,778.33h52.19v-25.5H11.31v25.5Z"/><path class="b" d="m63.5,752.83h.38v-.38h-.38v.38Z"/><path class="b" d="m63.49,407.66h-26.07v52.74h26.07v-52.74Z"/><path class="b" d="m37.43,460.39h-.38v.37h.38v-.37Z"/><path class="b" d="m380.87,911.77v.39c.12,0,.25,0,.37,0v-.38h-.37Z"/><path class="b" d="m328.34,885.6v26.17h52.53v-26.17h-52.53Z"/><path class="b" d="m566.02,35.56v.38h.37v-.38h-.37Z"/><path class="b" d="m540.66,9.72v25.84h25.37V9.72h-25.37Z"/><path class="b" d="m248.64,62.11v.38h.37v-.38h-.37Z"/><path class="b" d="m223.27,36.26v25.85h25.37v-25.85h-25.37Z"/><path class="b" d="m301.75,36.12h-26.31v25.99h26.31v-25.99Z"/><path class="b" d="m275.44,62.11h-.37v.37h.37v-.37Z"/><path class="b" d="m169.67,619.71h-.38v.37h.38c0-.12,0-.25,0-.37Z"/><path class="b" d="m195.73,619.71v.37c.12,0,.25,0,.37,0v-.37h-.37Z"/><path class="b" d="m195.73,593.53h.37v-.37c-.12,0-.25,0-.37,0v.37Z"/><path class="b" d="m195.73,593.53c-8.69,0-17.39,0-26.08,0,0,8.73,0,17.45.01,26.18,8.69,0,17.38,0,26.07,0,0-8.73,0-17.45,0-26.18Z"/><path class="b" d="m513.48,62.47v26.4h25.9v-26.4h-25.9Z"/><path class="b" d="m539.37,88.88v.38c.12,0,.24,0,.36,0,0-.13,0-.25,0-.38h-.36Z"/><path class="b" d="m169.29,646.26v.37h.38c0-.12,0-.24,0-.37h-.38Z"/><path class="b" d="m143.95,620.08v26.19h25.34c0-8.73,0-17.46,0-26.19h-25.33Z"/><path class="b" d="m962.72,247.96v.38h.37v-.38h-.37Z"/><path class="b" d="m937.37,222.13v25.83h25.35v-25.83h-25.35Z"/><path class="b" d="m963.11,727.01v25.47h25.74v-25.47h-25.74Z"/><path class="b" d="m988.47,274.19v-25.85h-25.37v25.85h25.37Z"/><path class="b" d="m195.01,778.68v-25.83h-25.38v25.83h25.38Z"/><path class="b" d="m169.64,752.84v-.37h-.37v.37h.37Z"/><path class="b" d="m37.04,354.19v.37h.38v-.37h-.38Z"/><path class="b" d="m11.71,328v26.19h25.33c0-8.73,0-17.46,0-26.19H11.71Z"/><path class="b" d="m275.08,885.6h.37v-.39h-.37v.39Z"/><path class="b" d="m249,911.04h26.08v-25.43c-8.69,0-17.39,0-26.08,0v25.43Z"/><path class="b" d="m407.33,938.34c0,.12,0,.25,0,.37h.38v-.37h-.38Z"/><path class="b" d="m11.71,460.76v26.19h25.33c0-8.73,0-17.46,0-26.19H11.71Z"/><path class="b" d="m37.04,486.95v.37h.38v-.37h-.38Z"/><path class="b" d="m328.89,990.9h25v-25.5h-25v25.5Z"/><path class="b" d="m460.58,965.26v-.38h-.37c0,.12,0,.25,0,.38h.37Z"/><path class="b" d="m485.94,991.11v-25.85h-25.37v25.85h25.37Z"/><path class="b" d="m514.18,990.74h25.16v-24.79h-25.16v24.79Z"/><path class="b" d="m804.76,990.72h25.75v-25.47h-25.75v25.47Z"/><path class="b" d="m830.5,965.25h.37c0-.13,0-.25,0-.38h-.37v.38Z"/><path class="b" d="m248.63,460.38v.38h.37v-.38h-.37Z"/><path class="b" d="m301.53,407.29v.37h.37v-.37h-.37Z"/><path class="b" d="m777.59,433.84c0,.12,0,.25,0,.37h.38v-.37h-.38Z"/><path class="b" d="m354.77,434.22v-.37c-.12,0-.25,0-.37,0v.38h.37Z"/><path class="b" d="m328.36,301.08h-.38v.37h.38v-.37Z"/><path class="b" d="m407.31,274.53h-26.34v-25.87h-26.73v26.79h-25.89v25.63c26.32,0,52.63,0,78.95,0v-26.55Z"/><path class="b" d="m328.14,646.07h-.38v.36h.38c0-.12,0-.24,0-.36Z"/><path class="b" d="m354.41,593.54c.12,0,.25,0,.37,0v-.38h-.37v.38Z"/><path class="b" d="m354.41,593.54c-8.68,0-17.36,0-26.04,0-.08,17.52-.16,35.03-.23,52.55h26.27v-52.54Z"/><path class="b" d="m459.91,327.64v-26.19h-52.22c0,8.73,0,17.46,0,26.19h52.22Z"/><path class="b" d="m407.69,327.64h-.38v.37h.38v-.37Z"/><path class="b" d="m407.69,301.45v-.37h-.38v.37h.38Z"/><path class="b" d="m645.74,460.39h-.38v.37h.38v-.37Z"/><path class="b" d="m645.74,460.39h26.07v-52.74h-26.07v52.74Z"/><path class="b" d="m671.81,407.66h.38v-.37h-.38v.37Z"/><path class="b" d="m275.45,327.63h-.37v.39h.37v-.39Z"/><path class="b" d="m327.98,301.45h-52.53v26.18h52.53v-26.18Z"/><path class="b" d="m645.74,487.31c0-.12,0-.25,0-.37h-.38v.37h.38Z"/><path class="b" d="m671.06,513.5v-26.18h-25.32c0,8.73,0,17.46-.01,26.18h25.34Z"/><path class="b" d="m645.73,513.5h-.37v.38h.37c0-.13,0-.26,0-.38Z"/><path class="b" d="m328,593.15v.37c.12,0,.25,0,.37,0,0-.12,0-.25,0-.37-.12,0-.25,0-.37,0Z"/><path class="b" d="m301.91,567.72v25.42c8.7,0,17.39,0,26.09.01v-25.44h-26.09Z"/><path class="b" d="m247.89,620.08v-26.92h-25.32v-52.55h78.63v-27.12h-105.09c0-8.72.01-17.44.02-26.16h26.71v-26.94h25.8v-26.06h-78.63v-27.03h131.53v-25.99h-26.45v-53.28h-26.42v52.37h-26.67v-52.76h-52.31v-25.91h26.45v-26.82h25.54v25.46h26.77v-25.66h26.3v-26.37h-52.54v-26.53h-105.63v26.32h-26.76v53.34h-52.36c0,8.72,0,17.45,0,26.17h52.88v26.55h25.81v26.94h26.72v26.57h-26.41v26.41h-25.8v26.87h26.73v26.87h25.48v25.64c-17.5.13-35.01.25-52.51.38v26.57H11.34v26.8h79.6v25.9h78.34v-25.42h26.82v25.44c8.69.12,17.39.24,26.08.36,0,8.73,0,17.46,0,26.19-8.69.12-17.39.24-26.08.36v26.56h-26.44c0,8.73,0,17.45-.01,26.18h26.45v26.55c8.69,0,17.39,0,26.08,0,.13-26.43.25-52.86.38-79.29h25.32Zm-77.51-371.39h25.37v25.84h-25.37v-25.84Zm-27.53,317.19h-25.75v-25.47h25.75v25.47Zm0-238.24h-25.37v-25.85h25.37v25.85Zm.37.38c8.69,0,17.38,0,26.06-.01v26.5h26.14v26.23h-52.22c0-17.57.01-35.15.02-52.72Zm52.52,212.02h-52.52c0-8.72,0-17.44-.01-26.17,17.51,0,35.02,0,52.53,0v26.17Zm.01-53.09h-25.37v-25.84h25.37v25.84Z"/><path class="b" d="m698.25,619.7v.38h.37v-.38h-.37Z"/><path class="b" d="m725.07,619.7h-.37c0,.13,0,.26,0,.38h.36v-.38Z"/><path class="b" d="m539.72,300.89c-.13,0-.25,0-.38,0v.36h.38c0-.12,0-.24,0-.36Z"/><path class="b" d="m565.83,301.29c0,.13,0,.26,0,.38h.36v-.38c-.12,0-.23,0-.35,0Z"/><path class="b" d="m301.53,593.51h.37v-.38c-.12,0-.25,0-.37,0v.38Z"/><path class="b" d="m275.78,618.99h25.76v-25.47h-25.76v25.47Z"/><path class="b" d="m275.45,460.38h26.08v-26.17h-26.08v26.17Z"/><path class="b" d="m301.53,434.21h.37v-.38c-.12,0-.24,0-.37,0v.38Z"/><path class="b" d="m275.08,460.77h.37v-.39h-.37v.39Z"/><path class="b" d="m249,486.2h26.08v-25.43c-8.69,0-17.39,0-26.08,0v25.43Z"/><path class="b" d="m592.9,646.37h-.33c0,.12,0,.24,0,.35h.35c0-.12-.01-.24-.02-.35Z"/><path class="b" d="m804.42,593.16h-.38v.37h.38v-.37Z"/><path class="b" d="m882.7,514.56h-25.16v24.79h25.16v-24.79Z"/><path class="b" d="m486.67,832.5h.38v-.37h-.38v.37Z"/><path class="b" d="m486.67,858.67v.38h.37v-.38c-.12,0-.24,0-.37,0Z"/><path class="b" d="m487.03,884.49h26.09v-25.43c-8.7,0-17.39,0-26.09,0v25.43Z"/><path class="b" d="m513.12,859.05h.37v-.38h-.37v.38Z"/><path class="b" d="m434.14,912.16v-26.55h26.45v-26.56c8.69-.12,17.39-.25,26.08-.37,0-8.73,0-17.45,0-26.18h-26.45v26.18h-26.45v26.55h-26.45v26.56c-8.69.12-17.39.24-26.08.36v26.19h26.09c.12-8.73.25-17.46.37-26.18h26.44Z"/><path class="b" d="m830.22,806.35h-25.42v25.37h25.42v-25.37Z"/><path class="b" d="m142.26,63.05H63.96v78.13h78.3V63.05Z"/><path class="b" d="m935.9,62.87h-78.2v78.5h78.2V62.87Z"/><path class="b" d="m64.42,937.77h78.29v-78.16h-78.29v78.16Z"/></svg>