<?xml version="1.0" encoding="UTF-8"?><svg id="a" xmlns="http://www.w3.org/2000/svg" viewBox="0 0 400 200"><g id="b"><path d="m48.36,126.27c-.29-.15-.62-.29-.88-.44v-12.93c2.59-2.53,6.55-4.67,11.78-5.82,4.91-1.06,9.81-1.26,15.04-1.47,1.35-.06,2.73-.12,4.11-.18-3.06,11.78-7.14,19.13-16.95,21.24-6.76,1.47-10.87.62-13.13-.41h.03Z" style="fill:#b5b5b6; stroke-width:0px;"/><path d="m57.56,99.12c-3.88.85-7.23,2.12-10.08,3.7v-44.19h27.44c5.58,0,10.93,1.12,15.78,3.11-5.26,9.7-7.49,20.92-9.55,31.29-.29,1.38-.56,2.76-.82,4.05-2.12.15-4.23.24-6.35.32-5.35.21-10.84.44-16.43,1.67v.03Z" style="fill:#b5b5b6; stroke-width:0px;"/><path d="m89.18,94.65c2.03-10.14,4.08-20.51,8.73-29.06,6.08,4.08,11.02,9.73,14.25,16.37-7.82,8.7-15.37,12.34-22.95,13.99-.09.03-.21.06-.32.06.09-.44.18-.88.26-1.32l.03-.03Z" style="fill:#b5b5b6; stroke-width:0px;"/><path d="m116.3,100c0,22.86-18.51,41.37-41.37,41.37h-27.44v-6.7c4.44,1.26,9.81,1.29,15.72,0,15.25-3.29,20.54-15.96,23.86-30.09,9.02-1.32,18.51-4.67,28.12-14.02.73,3.03,1.09,6.17,1.09,9.4l.03.03Z" style="fill:#b5b5b6; stroke-width:0px;"/><path d="m189.35,121.04v-31.5h7.67v31.5h-7.67Zm3.79-36.61c-2.85,0-4.61-1.79-4.61-4.67s1.73-4.67,4.61-4.67,4.73,1.79,4.73,4.67-1.82,4.67-4.73,4.67Z" style="fill:#b5b5b6; stroke-width:0px;"/><path d="m205.42,121.04v-24.33h-4.5v-7.17h4.5v-2.62c0-7.05,3.67-10.96,10.34-10.96,2.06,0,4.03.26,5.49.76v7.11c-1.12-.41-2.29-.73-3.56-.73-2.79,0-4.61,1.73-4.61,4.44v2h7.93v7.17h-7.93v24.33s-7.67,0-7.67,0Z" style="fill:#b5b5b6; stroke-width:0px;"/><path d="m232.19,121.16c-4.91,0-7.49-2.38-7.49-6.91v-35.2h7.67v32.29c0,1.67.97,2.64,2.64,2.64h.94v7.17h-3.79.03Z" style="fill:#b5b5b6; stroke-width:0px;"/><path d="m253.35,121.83c-9.31,0-15.1-6.35-15.1-16.57s5.79-16.51,15.1-16.51,15.1,6.32,15.1,16.51-5.79,16.57-15.1,16.57Zm0-25.89c-4.41,0-7.26,3.67-7.26,9.31s2.85,9.43,7.26,9.43,7.26-3.7,7.26-9.43-2.85-9.31-7.26-9.31Z" style="fill:#b5b5b6; stroke-width:0px;"/><polygon points="299.45 121.04 293.66 99.5 292.34 99.5 286.61 121.04 278.32 121.04 268.45 89.54 276.71 89.54 282.11 111.43 283.46 111.43 288.9 89.54 297.1 89.54 302.59 111.43 303.97 111.43 309.29 89.54 317.55 89.54 307.68 121.04 299.45 121.04" style="fill:#b5b5b6; stroke-width:0px;"/><polygon points="323.9 141.37 332.1 121.71 319.28 89.54 327.86 89.54 335.53 111.58 336.8 111.58 344.02 89.54 352.52 89.54 332.27 141.37 323.9 141.37" style="fill:#b5b5b6; stroke-width:0px;"/><path d="m164.46,79.05h-13.93v42.02h13.93c11.61,0,21.01-9.4,21.01-21.01s-9.4-21.01-21.01-21.01Zm0,34.29h-6.23v-26.56h6.23c7.32,0,13.28,5.96,13.28,13.28s-5.96,13.28-13.28,13.28Z" style="fill:#b5b5b6; stroke-width:0px;"/></g></svg>