<?xml version="1.0" encoding="UTF-8"?>
<svg id="a" data-name="图层 1" xmlns="http://www.w3.org/2000/svg" viewBox="0 0 400 200">
  <defs>
    <style>
      .b {
        fill: #b5b5b6;
        stroke-width: 0px;
      }
    </style>
  </defs>
  <g>
    <path class="b" d="m155.54,118.78h-3.73l-.04.13c-.97,3.12-2.24,6.83-4.29,10.73l-.11.21h3.9l.05-.11c1.77-3.57,3.18-7.2,4.17-10.8l.05-.18Z"/>
    <path class="b" d="m173.47,118c.08-.47.35-.98.72-1.29l1.47-1.34c.9-.81,1.32-1.8,1.11-2.58-.19-.68-.85-1.07-1.81-1.07h-5.49c.7-.73,1.3-1.47,1.81-2.28h6.53l.21-3.21-5.17-.03c.21-.63.43-1.33.7-2.24l.05-.18h-3.47l-.04.13c-.81,2.55-1.71,4.25-3.05,5.74l.39-2.49h-2.83l.54-3.38h-3.58l-.54,3.38h-3.17l-.19,3.23h.95l-.72,4.54c-1.01,6.37-2.42,10.49-5.19,15.19l-.13.22h3.73l.06-.1c.68-1.24,1.25-2.37,1.75-3.48l.33,2.97.08.02c.69.21,1.1.27,1.9.27,1.58,0,3.09-1.26,3.44-2.86.97-4.15,1.62-8.12,1.95-11.78.15-1.53-.66-2.48-2.1-2.48h-2.18l.4-2.51h4.36c-.09.09-.19.18-.28.27l-.07.07.86,3.23.26-.19c.33-.25.64-.48.93-.73l-.12,1.73h4.07l-.69.7c-.78.79-1.3,1.72-1.43,2.55l-.06.37h-3.84l-.19,3.23h3.51l-.72,4.54c-.09.58-.3.75-.92.75-.86,0-1.81-.09-2.61-.26l-.25-.05.39,3.11.09.02c1.07.22,2.27.32,3.28.29,1.94-.03,3.21-1.08,3.5-2.87l.88-5.53h3.35l.21-3.21-3.05-.03.06-.4Zm-12.44-1.97h1.04c.17,0,.26.1.23.29-.31,3.09-.93,6.75-1.67,9.78-.12.55-.54.67-.88.67-.61,0-.97-.03-1.42-.22l-.12-.05c1.3-2.99,2.04-5.87,2.81-10.47Z"/>
    <polygon class="b" points="157.3 106.1 152.83 104.34 152.27 107.82 156.74 109.59 157.3 106.1"/>
    <polygon class="b" points="156.23 112.81 151.06 111.05 150.51 114.53 155.68 116.3 156.23 112.81"/>
    <polygon class="b" points="181.22 120.3 176.91 128.78 181.01 128.78 185.23 120.3 181.22 120.3"/>
    <polygon class="b" points="196.69 120.3 198.22 128.78 202.32 128.78 200.7 120.3 196.69 120.3"/>
    <path class="b" d="m203.96,114.81l-9.35-.03.76-4.78h-3.88l-.76,4.78h-6.5l1.38-6.18c.05-.21.17-.29.39-.29h8.37c3.29,0,6.69-.27,9.57-.76l.13-.02.53-3.35-.19.03c-2.08.34-5.41.76-9.51.76h-9.68c-1.63,0-2.65.84-3.03,2.51l-1.94,8.17c-.2.85-.14,1.47.19,1.89.32.41.88.61,1.71.61h8.07l-1.14,7.22c-.14.88-.57,1.25-1.55,1.33-.97.09-2.08-.04-2.97-.34l-.26-.09.33,3.49.09.02c1.12.3,2.23.45,3.27.45.15,0,.3,0,.44,0,2.41-.09,4-1.46,4.36-3.75l1.32-8.33h9.65l.22-3.33Z"/>
    <path class="b" d="m224.77,115.8c.97.07,1.82.11,2.67.11s1.72-.04,2.75-.11c1.9-.13,3.6-1.54,3.87-3.22l.51-3.23-3.41-.51-.42,2.63c-.1.62-.54.98-1.35,1.1-.88.12-1.77.12-2.55,0-.8-.12-1.1-.45-1-1.1l.19-1.22c2.92-.77,5.58-1.65,7.51-2.49l.1-.04.58-3.65-.24.11c-2.33,1.03-4.82,1.9-7.39,2.59l.47-2.98h-3.73l-1.39,8.79c-.27,1.68.98,3.1,2.84,3.22Z"/>
    <path class="b" d="m229.16,122.9l-.41,2.6c-.1.62-.54.98-1.35,1.1-.88.11-2,.12-2.79,0-.8-.12-1.1-.45-1-1.1l.37-2.34c3.03-.96,5.98-2.11,7.91-3.1l.09-.05.59-3.72-.26.13c-2.25,1.17-4.94,2.27-7.76,3.18l.49-3.12h-3.73l-1.61,10.13c-.27,1.68.98,3.1,2.84,3.22.97.07,1.87.11,2.79.11s1.85-.04,2.86-.11c1.9-.13,3.6-1.54,3.87-3.22l.51-3.23-3.42-.51Z"/>
    <path class="b" d="m217.95,113.29h-7.12c-1.49,0-2.65,1-2.89,2.49l-2.29,14.43h3.73l.78-4.92h4.64l-.19,1.19c-.06.39-.4.66-.86.69-.79.03-1.6-.07-2.42-.29l-.26-.07.42,3.16.09.02c1.05.23,2.02.33,3.17.3,1.65-.03,3.19-1.32,3.44-2.87l1.84-11.64c.24-1.49-.61-2.49-2.1-2.49Zm-6.61,4.63l.18-1.11c.03-.2.12-.28.32-.28h4.08c.2,0,.27.08.24.28l-.18,1.11h-4.64Zm4.16,3.03l-.19,1.23h-4.64l.19-1.23h4.64Z"/>
    <path class="b" d="m220.05,105.89h-3.93c.5-.63.95-1.27,1.31-1.88l.13-.22h-4.19l-.06.1c-.84,1.41-2.31,3.44-4.61,5.16h-.48l-.04,3.29h10.73c1.16,0,2.06-.37,2.53-1.03.44-.62.47-1.43.08-2.27l-1.47-3.14Zm-2.62,3.15h-4.34c.93-.79,2.03-1.9,2.97-3.08l1.37,3.08Z"/>
  </g>
  <g>
    <path class="b" d="m45.06,148.38l-14.01-8.16c.24-.68,8.88-18.06,18.53-34.34,2.97-5.01,6-9.51,9.08-13.47-7.85-11.95-14.01-24.01-14.01-24.01l14.89-6.66c.01.09.43,5.83,5.45,18.96.37.98.96,1.92,1.5,2.9.37-.36.75-.72,1.12-1.06,8.43-7.8,17.11-11.69,25.8-11.56,7.99.11,14.35,1.93,18.39,5.25,4.05,3.33,5.66,7.96,4.53,13.05-2.08,9.33-13.71,19.11-31.18,18.86-8.57-.12-15.2-3.48-20.3-8.27-2.2,3.05-4.21,6.2-6,9.21-9.1,15.31-13.74,39.15-13.8,39.31Zm26.92-57.2c3.85,4.04,8.88,7.07,15.35,7.16,8.08.12,17.22-3.3,18.54-9.22,1.16-5.21-4.13-8.21-13.26-8.34-9.9-.14-14.79,4.29-20.63,10.4Z"/>
    <path class="b" d="m130.78,64.2c-3.22,5.05-6.67,10.43-9.29,13.5,1.66,3.47,1.34,10.22,1.24,10.57,5.37-4.26,11.15-9.29,16.58-14.94-3.01-2.91-5.94-5.89-8.53-9.14Z"/>
    <path class="b" d="m110.1,130.35c2.83-1.64,5.73-3.18,8.62-4.76,1.45-.79,2.87-1.62,4.31-2.45-.78-8.39-2.14-15.93-4.18-24.59-1.58,1.35-7.01,6.11-8.59,7.08,1,6.64.47,14.61-.16,24.71Z"/>
  </g>
  <g>
    <path class="b" d="m173.13,61.74l-1.7,8.94h-7.59l1.71-8.94h-7.32l-5.55,27.1h7.8l2.51-13.55h7.59l-2.51,13.55h7.32l5.07-27.1h-7.31Z"/>
    <path class="b" d="m199.27,79.88c-.12-.64-.27-1.28-.46-1.92-.43-1.5-1.03-2.98-1.85-4.33-.3-.49-.62-.95-.97-1.39-.29-.35-.59-.69-.91-1.01-1.52-1.49-3.92-2.21-6.24-2.21-5.62,0-10.07,6.12-10.07,12.78,0,4.57,2.46,7.18,5.03,7.51,3.95.51,6.44-1.02,8.15-2.43.82-.67,1.64-1.48,2.45-2.41l-.12-1.35c-.07-.83-.17-1.62-.3-2.39-1.38,2.32-3.16,4.26-5.39,4.79-1.53.36-2.48-1.7-2.48-3.79,0-5.57,2.72-8.65,4.58-8.75,1.92-.11,2.9,1.14,3.48,2.95.09.28.18.57.26.85.21.71.38,1.4.53,2.08.33,1.48.53,2.88.64,4.13.07.74.11,1.41.12,2.03.07,2.61-.2,4.26-.2,4.26h4.16s.56-4.51-.41-9.4Zm-1.5-9.41s-.1.54-.33,1.41l.65,1.06c.61.99,1.14,2.11,1.56,3.32,1.09-2.36,1.92-4.84,2.33-7.23l-4.21,1.45Z"/>
    <path class="b" d="m218.76,70.43c-3.89-1.94-8.82-1.64-11.58,1.06-3.05,2.99-3.54,5.16-4.67,10.53-1.13,5.38-3.46,16.53-3.46,16.53h6.88l2.43-12.87c1.9-8.9,2.82-11.14,5.81-11.59s5.82,2.14,5.25,5.77c-.39,2.48-2.54,4.23-4.56,4.49-1.83.24-3.27-.32-4.52-.9l-.66,3.29c1.21.64,4.25.95,5.53.86,2.36-.16,6.49-1.79,7.74-6.62,1.34-5.18-1.24-9.08-4.19-10.55Z"/>
    <path class="b" d="m240.48,70.43c-3.89-1.94-8.82-1.64-11.58,1.06-3.05,2.99-3.54,5.16-4.67,10.53s-3.46,16.53-3.46,16.53h6.88l2.43-12.87c1.9-8.9,2.82-11.14,5.81-11.59,3.09-.47,5.82,2.14,5.25,5.77-.39,2.48-2.54,4.23-4.56,4.49-1.83.24-3.27-.32-4.52-.9l-.66,3.29c1.21.64,4.25.95,5.53.86,2.36-.16,6.49-1.79,7.74-6.62,1.34-5.18-1.24-9.08-4.19-10.55Z"/>
    <path class="b" d="m259.7,69.09c-1.9,3.64-3.76,7.4-5.85,12.63h-.07c-.04-5.23-.39-8.98-.7-12.63l-7.17.85,2.79,17.81-5.93,10.77,6.82-.08c4.53-9.48,9.87-18.97,15.37-28.45l-5.26-.9Z"/>
    <path class="b" d="m277.81,61.74h-10.03l-5.45,27.1h7.66l4.22-22.49h1.9c1.74,0,5.29-.23,4.68,3.3-.62,3.54-4.91,4.71-5.92,4.71h-.65l-.85,4.53c8.01.51,12.97-4.06,12.97-9.95,0-3.48-2.43-7.2-8.51-7.2Z"/>
    <path class="b" d="m295.27,69.02c-6.51,0-11.85,5.26-11.85,11.31,0,3.79,2.87,8.98,8.98,8.98,7.98,0,12-5.88,12-11.22,0-3.8-2.32-9.06-9.14-9.06Zm2.77,8.69c-.63,7.75-4.55,8.11-5.02,8.11-1.7,0-2.82-2.17-2.82-5.19s1.97-8.13,4.95-8.13c1.47,0,3.18,1.58,2.88,5.21Z"/>
    <path class="b" d="m330.86,69.09c-1.79,3.68-3.56,7.36-5.62,13.01h-.08c-.07-5.54-.54-9.06-.96-12.62h-5.23c-1.85,3.56-3.71,7.09-6,12.62l-.08-.07c.23-5.58-.04-9.25-.31-12.94l-7.09,1.12,2.25,18.63h6.08c1.66-3.25,3.33-6.51,5.15-11.23h.08c.12,4.73.43,7.98.77,11.23h6.47l10.07-19.01-5.5-.74Z"/>
    <path class="b" d="m352.53,74.13c0-3.71-3.14-5.11-6.93-5.11-4.95,0-12.08,3.52-12.35,12.62-.08,2.59,1.55,7.67,6.78,7.67,3.87,0,7.59-1.55,10.34-3.09l-1.47-3.1c-1.74.85-3.09,1.63-4.95,1.63-3.64,0-3.33-3.33-3.26-4.18,5.65.15,11.85-2.25,11.85-6.43Zm-7.47-1.78c1.24,0,2.01.82,1.94,1.93-.15,2.09-2.13,3.18-6,3.02.58-2.63,1.79-4.8,4.06-4.95Z"/>
    <path class="b" d="m365.77,69.02c-2.55,0-3.91,3.06-4.37,3.91l-.46.74-.31-.07.81-4.11h-6.97l-3.83,19.36h7.2l1.54-8.28c.74-3.95,2.83-4.8,4.42-4.8,1.12,0,1.51.23,1.9.38l3.25-5.65c-.81-.85-1.7-1.47-3.18-1.47Z"/>
  </g>
</svg>