<?xml version="1.0" encoding="UTF-8"?>
<svg id="_图层_1" data-name="图层 1" xmlns="http://www.w3.org/2000/svg" xmlns:xlink="http://www.w3.org/1999/xlink" viewBox="0 0 400 200">
  <defs>
    <linearGradient id="_未命名的渐变_3" data-name="未命名的渐变 3" x1="51.32" y1="99.48" x2="110.29" y2="138.52" gradientTransform="translate(0 200.14) scale(1 -1)" gradientUnits="userSpaceOnUse">
      <stop offset="0" stop-color="#006a63"/>
      <stop offset=".69" stop-color="#00b6a1"/>
      <stop offset="1" stop-color="#85e6d5"/>
    </linearGradient>
    <linearGradient id="_未命名的渐变_3-2" data-name="未命名的渐变 3" x1="107.75" y1="94.83" x2="126.02" y2="117.29" xlink:href="#_未命名的渐变_3"/>
    <linearGradient id="_未命名的渐变_3-3" data-name="未命名的渐变 3" x1="80.26" y1="72.19" x2="112.17" y2="121.63" xlink:href="#_未命名的渐变_3"/>
  </defs>
  <path d="M166.16,127.63l.88-2.14h-8.24l6.91-4.95c1.75-1.28,3.13-3,3.99-5h-28.61l-1.27,2.98h21.75l-9.01,6.89h-.79l-.32-4.14h-6.43l.32,4.14h-9.7l-1.33,3.11h12.18l-2.98,7.04c-1.26,2.95-3.23,5.55-5.73,7.57h7.04c.73-.02,1.44-.26,2.04-.69,.65-.42,1.15-1.03,1.46-1.74l5.19-12.18h5.92l-2.96,3.82h6.31l2.14-2.66c.5-.62,.92-1.31,1.24-2.04Z" style="fill: #005c6a;"/>
  <path d="M197.24,127.13c1.76,.02,3.34-1.04,4.01-2.66l3.75-8.82h-28.42l-.45,1.07-4.44,10.4h10.72l-1.07,2.42h-12.36l-1.27,2.98h6.43l-10.98,10.04h6.43l8.75-8,.71,.49-3.47,8.22h6.76l4.16-9.76,2.14,9.05h6.82l-2.4-10.04h3.88c1.41,0,2.69-.84,3.24-2.14l.34-.84h-12.38l1.07-2.42h8Zm-3.97-9.31h4.76l-1.09,2.42h-4.83l1.16-2.42Zm-1.97,4.63h4.78l-1.03,2.42h-4.85l1.09-2.42Zm-7.85,2.42h-4.72l1.01-2.42h4.89l-1.18,2.42Zm1.99-4.63h-4.85l1.09-2.42h4.83l-1.07,2.42Z" style="fill: #005c6a;"/>
  <path d="M236.15,125.57h-8.22l6.89-4.95c1.74-1.26,3.11-2.97,3.97-4.93h-28.59l-1.24,2.98h21.66l-9.01,6.89h-.82l-.3-4.14h-6.43l.3,4.14h-9.7l-1.33,3.11h12.2l-3,7.04c-1.26,2.96-3.22,5.56-5.73,7.57h7.04c.73-.01,1.44-.25,2.04-.69,.65-.42,1.16-1.02,1.46-1.74l5.21-12.18h5.94l-2.96,3.82h6.33l2.96-3.67,1.33-3.24Z" style="fill: #005c6a;"/>
  <path d="M262.39,122.56h-6.65l-4.08,9.67h-15.44l-1.24,2.9h11.24l-13.71,8.11h7.89l10.51-6.18,3.65,6.18h7.83l-4.44-8.11h6.26c1.41,0,2.69-.84,3.24-2.14l.32-.77h-9.46l4.08-9.65Z" style="fill: #005c6a;"/>
  <polygon points="242.61 130.46 248.79 130.46 248.4 126.58 242.2 126.58 242.61 130.46" style="fill: #005c6a;"/>
  <polygon points="253.08 122.56 246.81 122.56 247.07 126.58 253.31 126.58 253.08 122.56" style="fill: #005c6a;"/>
  <path d="M263.33,114.89h-7.76l-.36,.99-.56,1.33h-11.97l-2.27,5.3h5.94l1.03-2.53h19.52l-1.07,2.45h3.6c1.4,0,2.67-.85,3.22-2.14l1.37-3.17h-11.63l.94-2.21Z" style="fill: #005c6a;"/>
  <path d="M145.16,110.23c1.88,.28,3.78,.41,5.68,.39h8.15l1.67-5.23h-7.83c-2.1,.26-4.23-.27-5.96-1.48-1.04-1.55-1.25-3.52-.56-5.26l1.69-5.26c.4-1.02,.86-2.02,1.37-2.98,.38-.78,.86-1.5,1.44-2.14,.84-.8,1.85-1.39,2.96-1.72,1.54-.27,3.11-.36,4.68-.28l4.29,.17c2.39,0,4.5-1.55,5.23-3.82l.45-1.44h-10.51c-1.72-.04-3.44,.15-5.11,.58-1.48,.48-2.88,1.2-4.12,2.14-4.05,2.83-5.49,6.97-7.14,12.08-1.48,4.61-2.94,8.13-1.59,10.72,1.05,1.95,2.99,3.27,5.19,3.52Z" style="fill: #005c6a;"/>
  <polygon points="149.97 98.71 161.38 98.56 163.05 93.31 152.16 92.99 149.97 98.71" style="fill: #005c6a;"/>
  <path d="M174.23,110.62c2.08,.05,4.16-.07,6.22-.36,1.45-.27,2.84-.75,4.14-1.44,2.26-1.27,4.15-3.1,5.49-5.32,1.51-2.34,2.71-4.86,3.56-7.51,.82-2.43,1.24-4.97,1.24-7.53,.1-2.81-1.63-5.37-4.29-6.31-2.24-.72-4.58-1.03-6.93-.92h-12.46l-9.46,29.39h12.48Zm1.54-24.13h6.22c1.74-.24,3.5,.31,4.8,1.5,.61,.95,.9,2.07,.82,3.2-.03,1.62-.31,3.23-.84,4.76-.49,1.55-1.16,3.03-1.99,4.42-.71,1.2-1.59,2.28-2.62,3.22-1.81,1.32-4.03,1.96-6.26,1.8h-6.2l6.07-18.9Z" style="fill: #005c6a;"/>
  <path d="M193.17,104.4c0,1.24,.39,2.46,1.14,3.45,1.46,1.99,4.44,3,9.01,3,3.84,.11,7.62-.95,10.83-3.05,1.35-.97,2.5-2.2,3.39-3.6,1.09-1.76,1.94-3.66,2.55-5.64l5.56-17.33h-6.16l-5.68,17.63c-.43,1.53-1.11,2.98-2.02,4.29-.76,.88-1.74,1.56-2.83,1.97-1.24,.49-2.57,.74-3.9,.73-1.73,.21-3.45-.48-4.57-1.82-.39-.59-.58-1.29-.56-1.99,.09-1.12,.33-2.22,.71-3.28l5.66-17.63h-6.2l-5.71,17.76c-.68,1.77-1.09,3.62-1.22,5.51Z" style="fill: #005c6a;"/>
  <path d="M223.2,108.34c.85,.86,1.9,1.47,3.07,1.78,1.72,.38,3.48,.54,5.23,.49h13.13l3.95-12.29c.68-2.1-.48-4.35-2.57-5.02-.37-.12-.76-.19-1.16-.19h-8.97l-1.8,5.64,8.26-.24-2.14,6.97h-5.68c-1.18,.03-2.36-.12-3.5-.45-.78-.2-1.44-.7-1.84-1.39-.48-1-.66-2.12-.49-3.22,.13-1.65,.47-3.28,1.01-4.85,.58-2.8,2-5.35,4.08-7.31,1.76-1.28,3.9-1.93,6.07-1.84l7.14,.17c3.29,0,6.2-2.12,7.21-5.26h-12.87c-2.63-.06-5.25,.37-7.72,1.29-2.2,.89-4.17,2.27-5.75,4.05-2.41,2.74-4.2,5.97-5.26,9.46-1.89,5.76-1.68,9.83,.62,12.2Z" style="fill: #005c6a;"/>
  <path d="M281.22,85.65c-.2-1.11-.8-2.1-1.67-2.81-1.29-1.05-3.97-1.59-8.09-1.59h-14.37l-9.44,29.39h6.16l3.58-11.13h5.04c1.62-.16,3.25,.15,4.7,.88,.72,.51,1.21,1.28,1.35,2.14,.13,1.32,0,2.65-.36,3.93-.34,1.41-.57,2.84-.69,4.29h7.01c.07-1.5,.31-2.99,.71-4.44,.27-.94,.45-1.9,.56-2.87,.04-.67,0-1.35-.13-2.02-.11-.75-.44-1.45-.94-2.02-.62-.57-1.35-1.01-2.14-1.29,1.5-.45,2.91-1.17,4.14-2.14,2.04-1.67,3.53-3.91,4.29-6.43,.45-1.24,.55-2.58,.3-3.88Zm-7.44,4.55c-.36,1.41-1.25,2.63-2.49,3.39-1.04,.51-2.19,.73-3.35,.66h-8.77l2.49-7.74h8.77c.79-.04,1.58,.05,2.34,.26,1.24,.47,1.59,1.63,1.01,3.41v.02Z" style="fill: #005c6a;"/>
  <path d="M306.21,82.56c-2.27-1.08-4.76-1.6-7.27-1.5-3.98-.13-7.91,.93-11.28,3.05-3.97,2.96-6.81,7.19-8.04,11.99-.95,2.55-1.27,5.3-.94,8,.24,2.02,1.41,3.81,3.15,4.85,2.45,1.34,5.23,1.99,8.02,1.87,2.41,.02,4.8-.37,7.08-1.16,3-1.09,5.63-3,7.59-5.51,1.77-2.34,3.12-4.97,3.99-7.76,.88-2.49,1.31-5.12,1.27-7.76,.04-2.52-1.33-4.86-3.56-6.05Zm-4.44,13.38c-.78,2.82-2.25,5.4-4.29,7.51-1.75,1.61-4.06,2.48-6.43,2.42-2.68,0-4.29-.82-5.08-2.38-.69-2.52-.49-5.21,.58-7.59,.7-2.62,1.99-5.04,3.78-7.08,1.86-1.89,4.43-2.92,7.08-2.83,2.9,0,4.61,1.01,5.15,2.92,.41,2.37,.14,4.81-.77,7.04Z" style="fill: #005c6a;"/>
  <polygon points="350.72 81.23 336.99 103.35 337.93 81.23 330.98 81.23 317.7 103.35 318.2 81.23 311.72 81.23 311.78 110.62 318.93 110.62 331.82 89.42 331.09 110.62 338.23 110.62 357.15 81.23 350.72 81.23" style="fill: #005c6a;"/>
  <path d="M87.72,109.61H54.09c-7.72,0-13.13-5.47-10.62-10.72l16.3-34.04c3.3-6.93,12.36-11.58,22.52-11.58l39.72-2.9c-.77,2.97-2.02,5.79-3.71,8.34-2.32,2.92-7.19,4.5-11.48,4.5l-20.33-.94c-7.34,0-13.86,3.37-16.24,8.37l-12.63,26.36c-.84,1.76,.97,3.58,3.54,3.58l30.57-1.14-4.01,10.17Z" style="fill: url(#_未命名的渐变_3);"/>
  <path d="M117.77,81.98h0c2.72-5.71,8.11-8.09,15.14-7.79l7.94,.56c-14.5,8.39-25.18,22.06-29.82,38.16" style="fill: url(#_未命名的渐变_3-2);"/>
  <path d="M103.21,141.74l-9.72-15.57,10.72-33.72c.59-1.68-.29-3.51-1.96-4.11-.36-.13-.73-.19-1.11-.18l-26.53,.9,8.24-14.46,26.1,1.05c5.17,0,9.36,4.18,9.36,9.34,0,.94-.14,1.88-.42,2.78l-14.69,53.97Z" style="fill: url(#_未命名的渐变_3-3);"/>
</svg>