<?xml version="1.0" encoding="UTF-8"?>
<svg id="_图层_1" data-name="图层 1" xmlns="http://www.w3.org/2000/svg" viewBox="0 0 400 200">
  <g>
    <path d="M203.98,65.26c4.73,0,9.01,.95,12.86,2.85,3.84,1.9,6.89,4.67,9.12,8.32,2.23,3.65,3.35,7.99,3.35,13.03s-1.12,9.39-3.35,13.06c-2.23,3.67-5.26,6.46-9.08,8.39-3.82,1.92-8.12,2.89-12.89,2.89h-17.5v-48.53h17.49Zm-1.26,38.98c4.82,0,8.46-1.28,10.94-3.84,2.47-2.56,3.71-6.21,3.71-10.94s-1.25-8.3-3.75-10.84-6.13-3.81-10.9-3.81h-4.9v29.44h4.9Z" style="fill: #0075c9;"/>
    <path d="M262.98,94.24h-18.96v9.75h21.94v9.81h-33.28v-48.53h32.48v9.75h-21.15v9.55h18.96v9.68h0Z" style="fill: #0075c9;"/>
    <path d="M311.38,113.79l-13.46-.07-10.74-16.37h-6.43v16.44h-11.34v-48.53h17.63c4.02,0,7.52,.66,10.51,1.99,2.98,1.33,5.27,3.21,6.86,5.64,1.59,2.43,2.39,5.24,2.39,8.42s-.73,5.75-2.19,8.09c-1.46,2.35-3.56,4.2-6.3,5.57l13.06,18.83h0Zm-30.63-38.98v13.06h4.97c2.52,0,4.67-.5,6.46-1.49s2.69-2.69,2.69-5.07c0-4.33-3.05-6.5-9.15-6.5h-4.97Z" style="fill: #0075c9;"/>
    <path d="M351.09,99.68c0,4.42-1.65,7.88-4.97,10.38-3.32,2.5-7.87,3.75-13.66,3.75h-20.29v-48.53h18.63c5.21,0,9.5,1.17,12.86,3.52s5.04,5.75,5.04,10.21-1.72,7.56-5.17,9.68c5.04,2.03,7.56,5.7,7.56,11.01h0Zm-27.85-24.67v9.55h6.63c2.16,0,3.89-.47,5.17-1.39,1.28-.93,1.92-2.16,1.92-3.71,0-1.46-.62-2.56-1.85-3.32s-2.98-1.13-5.24-1.13h-6.63Zm8.55,28.97c2.39,0,4.24-.43,5.57-1.29s1.99-2.09,1.99-3.68-.67-2.84-2.02-3.75c-1.35-.9-3.21-1.36-5.6-1.36h-8.49v10.07h8.55Z" style="fill: #0075c9;"/>
    <path d="M368.72,84.22l10.14-18.96h12.2l-16.97,30.1v18.43h-11.34v-18.37l-17.7-30.16h13.19l10.47,18.96h0Z" style="fill: #0075c9;"/>
  </g>
  <g>
    <path d="M21.75,105.38c6.3-.05,9.78,1.93,12.92,4.81,1.42,1.31,2.92,2.74,4.66,3.47,3.93,1.64,7.81,1.24,11.05-1.75,2.05-1.89,4.09-3.87,5.76-6.1,2.56-3.41,2.59-8.44-.05-11.77-2.04-2.56-4.42-4.97-7.04-6.92-3.65-2.7-8.96-2.08-12.47,.85-1.98,1.65-3.89,3.46-6.07,4.78-7.8,4.68-18.68,.12-21-8.67-1.96-7.44,1.25-14.52,8.31-17.5,5.62-2.37,10.9-1.37,15.57,2.61,1.35,1.16,2.62,2.42,4.06,3.46,3.86,2.79,9.42,2.39,13.05-.75,1.88-1.62,3.71-3.38,5.83-4.64,9.33-5.55,21.59,1.5,21.71,12.35,.05,4.36-1.66,7.92-4.5,11.1-1.41,1.59-2.86,3.25-3.8,5.12-1.82,3.64-.72,8.61,2.12,11.54,1.89,1.95,3.69,3.96,4.89,6.45,2.58,5.36,1.22,12.6-3.19,16.59-5.85,5.3-13.65,5.48-19.75,.45-1.49-1.23-2.9-2.58-4.47-3.7-3.64-2.6-9.92-2.23-13.51,1.37-2.26,2.27-4.75,4.24-7.89,5.3-5.06,1.72-11.8-.05-15.26-4.15-3.59-4.29-4.85-10.18-2.47-15.66,2.06-4.86,7.22-8.52,11.55-8.68h.01Z" style="fill: #0075c9;"/>
    <path d="M88.01,119.96c.01-4.32,1.88-7.78,4.66-10.9,1.31-1.47,2.79-2.98,3.53-4.75,1.9-4.52,1.01-8.7-2.44-12.29-2.42-2.53-4.52-5.24-5.36-8.78-2.3-9.66,5.89-18.95,15.74-17.81,9.08,1.05,14.98,9.57,12.68,18.28-.82,3.12-2.69,5.57-4.84,7.86-1.53,1.63-3.04,3.3-3.53,5.56-.84,3.94-.07,7.43,2.78,10.44,1.52,1.61,3.01,3.32,4.13,5.21,4.64,7.8,.61,18.2-8.01,21-8.41,2.72-16.93-2.04-18.95-10.64-.24-1.04-.28-2.12-.41-3.18h0Z" style="fill: #0075c9;"/>
    <path d="M128.09,79.91c0-8.16,6.41-14.55,14.61-14.55s14.58,6.45,14.58,14.59-6.49,14.6-14.65,14.6c-8.12,0-14.54-6.47-14.54-14.64h0Z" style="fill: #0075c9;"/>
    <path d="M142.79,105.37c8.1,.02,14.52,6.52,14.49,14.69-.02,8.15-6.56,14.53-14.89,14.5-7.98-.02-14.33-6.6-14.31-14.83,.02-8.02,6.54-14.38,14.7-14.36h0Z" style="fill: #0075c9;"/>
  </g>
  <g>
    <path d="M194.38,129.01h-5.3v3.25h6.13v2.27h-8.72v-13.08h8.52v2.25h-5.93v3.07h5.3v2.23h0Z" style="fill: #0075c9;"/>
    <path d="M197.34,121.46h2.59v10.75h5.95v2.32h-8.54v-13.08h0Z" style="fill: #0075c9;"/>
    <path d="M215.6,129.01h-5.3v3.25h6.13v2.27h-8.72v-13.08h8.52v2.25h-5.93v3.07h5.3v2.23h0Z" style="fill: #0075c9;"/>
    <path d="M225.61,131.87c.46-.33,.82-.8,1.1-1.39l2.16,1.25c-.32,.88-.91,1.61-1.77,2.17s-1.89,.85-3.07,.85-2.21-.28-3.16-.84c-.95-.56-1.71-1.35-2.27-2.38s-.84-2.21-.84-3.55,.28-2.52,.83-3.54,1.31-1.82,2.27-2.38,2.02-.84,3.17-.84,2.21,.28,3.07,.85c.85,.56,1.45,1.29,1.77,2.17l-2.16,1.25c-.27-.59-.64-1.06-1.1-1.39s-1.01-.5-1.64-.5c-.67,0-1.26,.18-1.79,.53-.52,.36-.94,.87-1.24,1.53s-.45,1.43-.45,2.32,.15,1.65,.45,2.32,.72,1.18,1.24,1.53c.52,.36,1.12,.53,1.79,.53,.63,0,1.18-.17,1.64-.5v.02Z" style="fill: #0075c9;"/>
    <path d="M229.39,121.46h10.54v2.3h-3.96v10.77h-2.61v-10.77h-3.96v-2.3h0Z" style="fill: #0075c9;"/>
    <path d="M252.33,134.53l-3.09-.02-3.18-4.7h-2v4.72h-2.59v-13.08h4.52c1.02,0,1.92,.17,2.7,.52,.78,.35,1.37,.84,1.79,1.47s.62,1.36,.62,2.19-.21,1.56-.64,2.19-1.03,1.12-1.81,1.45l3.68,5.25h0Zm-8.27-10.87v3.96h1.62c.76,0,1.39-.16,1.9-.49s.76-.82,.76-1.49-.25-1.18-.75-1.5c-.5-.32-1.14-.48-1.91-.48h-1.62Z" style="fill: #0075c9;"/>
    <path d="M253.7,124.38c.55-1.02,1.3-1.81,2.24-2.35s2.01-.81,3.17-.81,2.22,.27,3.17,.81,1.7,1.33,2.25,2.35c.55,1.02,.83,2.22,.83,3.59s-.28,2.58-.83,3.61-1.3,1.81-2.25,2.35c-.95,.54-2.01,.81-3.17,.81s-2.22-.27-3.17-.81-1.7-1.33-2.24-2.35-.82-2.22-.82-3.61,.27-2.56,.82-3.59Zm2.35,5.9c.29,.67,.7,1.18,1.23,1.55,.53,.36,1.14,.55,1.83,.55s1.3-.18,1.83-.55c.53-.36,.94-.88,1.23-1.55,.29-.67,.44-1.44,.44-2.3s-.15-1.64-.44-2.3c-.29-.66-.7-1.18-1.23-1.53-.53-.36-1.14-.55-1.83-.55s-1.3,.18-1.83,.55c-.53,.36-.94,.87-1.23,1.53s-.44,1.42-.44,2.3,.15,1.64,.44,2.3Z" style="fill: #0075c9;"/>
    <path d="M269.58,121.46l6.34,8.64v-8.64h2.41v13.08h-2.11l-6.36-8.66v8.66h-2.38v-13.08h2.09Z" style="fill: #0075c9;"/>
    <path d="M283.66,134.53h-2.59v-13.08h2.59v13.08Z" style="fill: #0075c9;"/>
    <path d="M293.62,131.87c.46-.33,.82-.8,1.1-1.39l2.16,1.25c-.32,.88-.91,1.61-1.77,2.17s-1.88,.85-3.07,.85-2.21-.28-3.16-.84c-.95-.56-1.71-1.35-2.27-2.38s-.84-2.21-.84-3.55,.28-2.52,.83-3.54,1.31-1.82,2.27-2.38,2.02-.84,3.17-.84,2.21,.28,3.07,.85c.86,.56,1.45,1.29,1.77,2.17l-2.16,1.25c-.27-.59-.64-1.06-1.1-1.39s-1-.5-1.64-.5-1.26,.18-1.79,.53c-.52,.36-.94,.87-1.24,1.53s-.45,1.43-.45,2.32,.15,1.65,.45,2.32,.72,1.18,1.24,1.53c.52,.36,1.12,.53,1.79,.53,.63,0,1.18-.17,1.64-.5v.02Z" style="fill: #0075c9;"/>
    <path d="M314.36,121.46h1.96v13.08h-2.47v-8.43l-3.32,4.95h-1.36l-3.34-4.98v8.47h-2.45v-13.08h2.05l4.47,6.77,4.45-6.77h0Z" style="fill: #0075c9;"/>
    <path d="M325.2,121.46l5.29,13.08h-2.75l-1.15-2.98h-5.09l-1.11,2.98h-2.59l5.13-13.08h2.27Zm.55,7.88l-1.75-4.59-1.7,4.59h3.45Z" style="fill: #0075c9;"/>
    <path d="M329.11,121.46h10.54v2.3h-3.96v10.77h-2.61v-10.77h-3.96v-2.3h0Z" style="fill: #0075c9;"/>
    <path d="M349.08,129.01h-5.3v3.25h6.13v2.27h-8.72v-13.08h8.52v2.25h-5.93v3.07h5.3v2.23h0Z" style="fill: #0075c9;"/>
    <path d="M362.91,134.53l-3.09-.02-3.18-4.7h-2v4.72h-2.59v-13.08h4.52c1.02,0,1.92,.17,2.7,.52,.78,.35,1.37,.84,1.79,1.47s.62,1.36,.62,2.19-.21,1.56-.64,2.19-1.03,1.12-1.81,1.45l3.68,5.25h0Zm-8.27-10.87v3.96h1.62c.76,0,1.39-.16,1.9-.49s.76-.82,.76-1.49-.25-1.18-.75-1.5c-.5-.32-1.14-.48-1.91-.48h-1.62Z" style="fill: #0075c9;"/>
    <path d="M366.88,134.53h-2.59v-13.08h2.59v13.08Z" style="fill: #0075c9;"/>
    <path d="M375.74,121.46l5.29,13.08h-2.75l-1.15-2.98h-5.09l-1.11,2.98h-2.59l5.13-13.08h2.27Zm.55,7.88l-1.75-4.59-1.7,4.59h3.45Z" style="fill: #0075c9;"/>
    <path d="M382.52,121.46h2.59v10.75h5.95v2.32h-8.54v-13.08h0Z" style="fill: #0075c9;"/>
  </g>
</svg>