<?xml version="1.0" encoding="UTF-8"?><svg id="a" xmlns="http://www.w3.org/2000/svg" viewBox="0 0 400 200"><defs><style>.b{fill:#00ae42;stroke-width:0px;}</style></defs><path class="b" d="m148.23,98.67c-3.47-5.74-8.42-11.05-14.32-15.37-5.45-3.99-11.19-6.72-16.15-7.7-4.17-.82-7.62-.33-9.98,1.43-3.7,2.75-6.09,7.8-6.09,12.87,0,1.01.1,2.01.3,2.95.69,3.3,2.51,5.99,5.29,7.83-1.07.94-2,2-2.77,3.14-1.59,2.36-2.49,5.07-2.58,7.85,0,.17,0,.33,0,.5,0,4.78,2.42,9.21,6.18,11.3,5.09,2.84,12.57,1.57,21.05-3.58,7.33-4.44,14.44-11.24,19.03-18.18.31-.46.48-1.01.48-1.57,0-.53-.15-1.05-.43-1.49Zm-40.71,13.2c.13-3.72,2.49-6.99,6.47-8.98,4.24-1.31,7.56-1.75,7.59-1.75l2.1-.27-1.94-.86c-.13-.06-3.15-1.39-7.36-2.43-.17-.06-.5-.14-.62-.16-3.56-.84-5.67-2.76-6.29-5.71-.12-.59-.19-1.21-.19-1.84,0-3.6,1.93-6.92,3.83-8.34,1.03-.76,3.05-.92,5.55-.43,7.41,1.46,18.92,8.6,25.83,18.99-4.14,5.75-10.19,11.35-16.26,15.03-6.49,3.94-12.26,5.24-15.43,3.47-2.01-1.12-3.3-3.63-3.3-6.41,0-.1,0-.21,0-.31Z"/><path class="b" d="m63.22,97.34c4.23,1.83,9.8,1.37,14.18-1.16.88-.51,1.69-1.09,2.41-1.73,2.51-2.25,3.93-5.17,4.14-8.49,1.35.45,2.73.73,4.11.83,2.84.2,5.64-.38,8.09-1.69.15-.08.29-.16.44-.24,4.14-2.39,6.77-6.71,6.7-11-.09-5.83-4.93-11.67-13.62-16.45-7.51-4.12-16.95-6.89-25.26-7.39-.56-.04-1.11.09-1.6.37-.46.27-.83.66-1.08,1.12-3.24,5.87-5.36,12.82-6.15,20.08-.73,6.72-.23,13.05,1.41,17.84,1.37,4.02,3.53,6.76,6.23,7.92Zm23.75-35.03c6.66,3.65,10.66,8,10.72,11.62.04,2.3-1.49,4.68-3.9,6.06-.09.05-.18.1-.27.15-3.28,1.75-7.3,1.34-11.02-1.11-3.26-3.02-5.29-5.67-5.31-5.7l-1.28-1.69.23,2.11c.01.14.38,3.42,1.57,7.59.04.18.13.5.17.62,1.05,3.5.44,6.29-1.8,8.3-.45.4-.95.76-1.5,1.08-3.12,1.8-6.96,1.79-9.14.85-1.17-.51-2.32-2.18-3.15-4.59-2.44-7.15-2.02-20.69,3.54-31.86,7.05.71,14.92,3.15,21.14,6.57Z"/><path class="b" d="m94.98,114.09c-.88-.51-1.79-.92-2.7-1.22-3.2-1.05-6.44-.82-9.43.66-.28-1.4-.73-2.73-1.33-3.97-1.24-2.56-3.15-4.69-5.51-6.17-.14-.09-.29-.18-.43-.26-4.14-2.39-9.19-2.51-12.88-.3-5,2.99-7.64,10.1-7.43,20.02.18,8.57,2.51,18.13,6.23,25.57.25.51.63.92,1.12,1.2.46.27.99.39,1.5.37,6.7-.13,13.78-1.77,20.47-4.72,6.18-2.73,11.41-6.33,14.74-10.14,2.79-3.2,4.09-6.43,3.75-9.35-.53-4.58-3.71-9.17-8.1-11.7Zm-34.11,8.65c-.16-7.59,1.6-13.24,4.71-15.1,1.97-1.18,4.8-1.04,7.2.34.09.05.18.11.27.16,3.16,1.97,4.81,5.65,4.54,10.1-.98,4.33-2.27,7.41-2.28,7.44l-.82,1.96,1.71-1.25c.11-.08,2.78-2.04,5.79-5.16.14-.12.37-.36.45-.45,2.51-2.66,5.23-3.53,8.09-2.59.57.19,1.14.44,1.68.76,3.12,1.8,5.03,5.13,5.31,7.49.15,1.27-.73,3.1-2.41,5.02-4.97,5.69-16.91,12.09-29.36,12.87-2.91-6.46-4.73-14.5-4.88-21.59Z"/><path class="b" d="m217.42,86.18c-10.78,0-16.86,10.29-16.86,17.95,0,.57.03,1.11.08,1.63l-4.93,2.31h0c-2.08.88-4.21,1.42-6.95,1.42-8.43,0-10.62-7.33-10.62-12.04,0-9.09,5.97-16.86,14.67-16.86,2.63,0,4.6.66,6.9,1.64l2.85-4.38c-1.37-1.2-5.2-2.63-8.76-2.63-13.41,0-22.82,10.07-23.1,22.33-.11,7.72,4.21,17.3,16.26,17.3,3.34,0,6.84-.99,9.8-2.19,1.83-.79,3.57-1.64,5.07-2.42,1.43,2.92,3.98,4.61,7.22,4.61,2.96,0,7.44-.55,11.88-3.83l-1.86-3.61c-2.52,1.86-5.14,2.57-6.9,2.57-2.7,0-4.7-.74-5.04-2.72,6.03-2.62,17.19-8.28,17.19-15.4,0-3.94-3.83-5.69-6.9-5.69Zm-10.25,16.54c1.1-10.25,5.6-12.38,8.56-12.38,1.75,0,2.63.77,2.52,2.52-.22,3.5-4.11,6.62-11.07,9.86Z"/><path class="b" d="m288.87,86.18c-10.78,0-16.86,10.29-16.86,17.95,0,.74.05,1.45.13,2.13-.68.39-1.41.83-2.29,1.37-2.42,1.53-4.78,2.52-5.66,2.38-.97-.16-1.72-.19-.57-5.83l2.85-13.63h6.46l.71-3.72h-6.46l1.23-6.57h-6.54l-1.26,6.57h-3.45l-.66,3.72h3.45l-3.01,14.5c-1.53,7.33,1.15,9.8,5.97,9.8,2.13,0,4.19-.63,6.8-2.05,1.72-.94,2.87-1.61,3.77-2.17,1.46,2.68,3.92,4.22,7.01,4.22s7.44-.55,11.88-3.83l-1.86-3.61c-2.52,1.86-5.14,2.57-6.9,2.57-2.7,0-4.65-.54-5-2.51,6.44-3.22,17.15-8.49,17.15-15.6,0-3.94-3.83-5.69-6.9-5.69Zm-10.41,16.87c.86-10.57,5.76-12.71,8.72-12.71,1.75,0,2.63.77,2.52,2.52-.22,3.5-4.27,6.95-11.23,10.19Z"/><path class="b" d="m246.43,86.18c-3.56,0-7.01,1.31-11.17,5.91l-.11-.11,1.2-5.14h-6.46l-5.15,27.37h6.57l1.64-9.14c1.42-7.77,6.57-14.07,9.69-14.07,1.81,0,3.12.77,2.96,3.72,0,.99-.16,2.19-.49,3.78l-3.17,15.71h6.51l3.23-15.76c.49-2.41.71-4.38.71-5.97,0-4.54-2.08-6.29-5.97-6.29Z"/><path class="b" d="m313.61,86.18c-2.03,0-3.89,2.19-4.87,3.34l-1.75,2.13-.11-.11.93-4.71h-6.51l-5.09,27.37h6.51l2.57-13.52c1.09-5.91,3.67-7.94,5.97-7.94,1.31,0,1.92.33,2.57.55l3.5-5.15c-.82-1.09-2.24-1.97-3.72-1.97Z"/><path class="b" d="m338.38,86.29c-3.39,6.29-10.4,20.69-10.4,20.69h-.11c-.81-5.37-2.46-20.69-2.46-20.69h-7.09l5.22,27.26-7.38,14.45h5.9c6.29-13.36,15.01-28.35,22.67-41.71h-6.36Z"/><path class="b" d="m170.63,147.71c.4-.03.76-.03,1.16-.06-.34-.95-.55-1.95-.64-2.77l1.83-.24c.12.95.3,1.95.61,2.9.24,0,.49-.03.73-.03l.43-3.84h-3.11l.21-1.92h3.11l.12-1.37h-1.46l.12-1.1c-.55.34-1.07.64-1.65.95l-1.31-1.77c2.29-.94,3.9-2.23,5.34-3.84h-3.72l.21-2.04h3.75c-.27-.67-.46-1.31-.61-1.95h-1.83l.21-2.04h6.98l.15-1.37h-2.87l.15-1.49c-1.56.7-3.26,1.31-5.12,1.8l-.79-2.16c4.73-1.25,7.96-2.99,10.82-5.46l1.77,1.37c-.24.24-.49.49-.73.73,1.83,1.34,4.94,2.68,8.17,3.44l-.64,2.35c-2.1-.49-3.99-1.16-5.61-1.95l-.15,1.37h-2.59l-.15,1.37h7.07l-.21,2.04h-1.98c-.27.64-.64,1.31-1.07,1.95h4.36l-.21,2.04h-3.08c-.15.24-.3.49-.49.7.95,1.07,2.47,2.32,4.21,3.11l-1.07,1.74c-.73-.34-1.4-.73-1.98-1.16l-.15,1.46h-1.59l-.15,1.34h3.38l-.21,1.95h-3.38l-.34,3.35h.7c.43-.82.79-1.65,1.04-2.53l1.8.24c-.24.76-.55,1.52-.91,2.29h1.34l-.21,2.07h-10l.24-2.07h1.28c-.24-.79-.4-1.59-.46-2.29l1.8-.24c.12.82.27,1.68.49,2.53h.79l.37-3.35h-3.45l.18-1.95h3.48l.12-1.34h-1.83l.12-1.13c-.49.3-1.01.64-1.52.91l-1.28-1.8c2.23-.94,3.81-2.23,5.18-3.84h-7.23c-.15.18-.27.4-.43.58.91.79,1.83,1.65,2.68,2.59l-1.4,1.49c-.18-.21-.37-.43-.58-.61l-.18,1.71h-1.59l-.12,1.37h3.11l-.21,1.92h-3.11l-.37,3.66c.12-.03.24-.03.4-.06.43-.85.79-1.71,1.07-2.62l1.83.27c-.21.67-.49,1.37-.82,2.07.27-.06.58-.09.85-.15l.27,1.95c-2.96.55-6.07.76-9.36.91l-.09-1.98Zm8.2-9.21c-.64-.64-1.28-1.25-1.92-1.77-.61.61-1.34,1.19-2.1,1.77h4.02Zm1.86-5.94l.18-1.95h-2.87c.15.64.34,1.31.58,1.95h2.1Zm4.54-7.35c-.98-.55-1.83-1.16-2.56-1.8-.91.64-1.92,1.25-3.05,1.8h5.61Zm-.27,7.35c.43-.64.79-1.28,1.1-1.95h-2.74l-.21,1.95h1.86Zm3.51,6.01c-.7-.58-1.31-1.19-1.83-1.77-.61.61-1.28,1.19-2.04,1.77h3.87Z"/><path class="b" d="m193.52,145.46c.64-.43,1.25-.85,1.89-1.34l1.28-12.1h-1.86l.24-2.59h1.92c1.65,0,2.26,1.16,2.1,2.35l-1.07,10.09c.4-.37.79-.76,1.16-1.19l.88,1.04c.27-1.31.46-2.68.61-4.24l1.16-11.68h6.77c.18-1.86.37-3.66.58-5.4h2.35c-.21,1.71-.43,3.51-.61,5.4h4.45l-.24,2.44h-4.42c-.27,3.23-.46,6.74-.52,10.52,1.1-2.65,1.65-5.4,1.98-7.59l2.13.21c-.49,3.48-1.71,7.96-4.05,11.8.12,2.62.43,3.9.82,3.87.52-.03.79-1.89,1.13-5.49l2.13.21c-.46,4.88-1.04,8.23-3.32,8.23-1.65,0-2.41-1.52-2.74-4.05-1.07,1.22-2.29,2.35-3.69,3.23l-1.25-1.74c1.95-1.19,3.48-2.77,4.69-4.51-.06-1.4-.06-2.96-.06-4.6.03-3.41.18-6.83.43-10.09h-4.45l-.37,3.54h1.74c1.55,0,2.04.95,1.89,2.41l-.73,7.26c-.18,1.8-.67,2.83-2.77,2.83h-.55l-.03-2.59h.52c.43,0,.67-.24.73-.91l.67-6.58h-1.71l-.37,3.38c-.49,4.79-1.1,8.26-3.26,12.35l-2.13-1.28c.91-1.68,1.59-3.29,2.07-5.06-1.59,1.52-3.2,2.84-4.88,3.93l-1.25-2.04Zm4.45-18.5c-.34-1.86-.91-3.72-1.83-5.55l2.53-.98c.95,2.01,1.49,3.72,1.83,5.55l-2.53.98Zm17.25-3.11l-1.95,1.04c-.43-1.1-.91-2.01-1.49-2.93l1.92-.98c.58.88,1.07,1.86,1.52,2.87Z"/><path class="b" d="m221.45,135.79c-1.19,1.74-2.53,3.38-4.05,5.03l-2.04-1.83c3.84-4.05,6.25-8.02,8.14-12.53h-5.21l.3-2.71h5.98c.4-1.1.79-2.23,1.16-3.38l2.44.64c-.27.95-.58,1.86-.85,2.74h9.88l-.3,2.71h-10.58c-.46,1.16-.95,2.32-1.46,3.41h7.8c1.55,0,2.53.82,2.38,2.26l-1.37,12.9c-.4,3.84-2.32,4.97-4.45,4.97-1.98,0-3.63-1.4-4.05-3.9l2.23-.58c.34,1.28.79,1.92,1.8,1.92s1.62-.67,1.89-3.32l.15-1.49h-7.8l-.76,7.29h-2.68l1.49-14.11Zm10,4.51l.3-3.02h-7.8l-.3,3.02h7.8Zm.55-5.34l.27-2.68h-7.77l-.3,2.68h7.8Z"/><path class="b" d="m236.94,142.35c2.04-4.18,3.75-8.75,4.79-13.26h-2.5l.27-2.56h3.26l.64-6.13h2.62l-.64,6.13h2.13l-.27,2.56h-2.16l-.3,2.71c.76.79,1.46,1.62,2.29,2.59l-1.46,1.65c-.4-.55-.73-1.07-1.1-1.52l-1.65,15.4h-2.56l1.74-15.82c-.85,3.29-1.92,6.49-3.32,9.76l-1.77-1.49Zm6.89,6.28c2.23-3.96,3.2-8.9,4.21-17.59l1.13-9.66h5.43c1.68,0,2.29.88,2.1,2.5l-2.26,21.16c-.15,1.37.03,2.1.64,2.1.82,0,1.16-1.34,1.59-4.18l2.29.52c-.67,4.45-1.68,6.4-4.15,6.4-1.92,0-3.2-1.8-2.9-4.66l2.26-21.31h-2.87l-.82,7.23c-1.01,9.05-2.01,14.45-4.45,18.84l-2.19-1.34Z"/><path class="b" d="m261.84,147.29c.85-.3,1.71-.64,2.56-1.01l.88-8.38c-1.49,1.37-3.05,2.5-4.6,3.44l-1.28-2.44c3.72-2.16,7.59-5.67,9.97-11.74h-4.48l-.4,3.87h-2.74l.7-6.62h7.84c.34-1.25.64-2.59.85-4.02h2.65c-.21,1.43-.52,2.77-.82,4.02h5.37c1.83,0,2.62,1.07,2.47,2.62l-.37,3.51h-2.74l.34-3.38h-5.76c.06,3.35.61,6.49,1.49,9.27,1.68-1.34,3.08-2.9,4.24-4.85l2.07,1.43c-1.37,2.29-3.17,4.15-5.46,5.76,1.43,3.38,3.35,6.13,5.52,8.05l-1.92,2.13c-4.15-3.84-7.29-10.64-7.93-17.59-.61,1.16-1.28,2.23-2.01,3.17l-1.13,10.49c1.31-.61,2.56-1.31,3.81-2.04l1.19,2.5c-2.96,1.71-6.07,3.17-9.33,4.39l-.98-2.59Z"/><path class="b" d="m301.35,149.21h-19.33l.3-2.8h5.85l.61-5.94-2.53.7c-.85-5.27-1.62-10.64-2.1-15.3l2.59-.49c.37,4.66,1.22,9.27,2.07,15.03l2.1-20h2.65l-2.74,26h2.5l2.74-26h2.65l-2.74,26h5.67l-.3,2.8Zm-1.8-7.84l-2.35-1.07c1.83-4.73,3.23-10,4.15-14.97l2.53.43c-.98,4.94-2.26,10.33-4.33,15.61Z"/></svg>