<?xml version="1.0" encoding="UTF-8"?>
<svg id="a" data-name="图层 1" xmlns="http://www.w3.org/2000/svg" viewBox="0 0 400 200">
  <defs>
    <style>
      .b {
        fill: #b5b5b6;
        stroke-width: 0px;
      }
    </style>
  </defs>
  <path class="b" d="m199.85,56.33l-33.96,28.12-14.16-17-44.11,24.64-14.91-36.17-44.37,26.6,53.25,48.15,40.55-20.26,16.37,16.61,82.65-43.16-41.31-27.52Zm-51.85,34.97h-5.56v-9.44h5.56v9.44Zm11.31,0h-5.56v-9.44h5.56v9.44Z"/>
  <g>
    <polygon class="b" points="309.69 123.91 304.41 123.69 304.17 129.4 299.53 129.2 299.74 124.11 294.46 123.89 294.12 132.14 304.04 132.53 303.7 140.73 299.88 140.57 299.74 143.71 308.68 144.08 308.68 144.08 308.85 144.08 309.33 132.75 318.68 133.14 318.81 130 309.46 129.62 309.69 123.91"/>
    <polygon class="b" points="331.25 117.25 331.14 120.39 346.37 120.97 346.37 142.76 351.66 142.76 351.66 117.96 331.25 117.25"/>
    <polygon class="b" points="245.37 132.5 245.37 135.64 252.19 135.63 252.19 140.55 244.9 140.56 244.5 133.94 239.22 134.26 239.8 143.85 257.48 143.69 257.48 132.5 245.37 132.5"/>
    <polygon class="b" points="268.45 127.88 270.64 128.01 267.94 141.82 271.28 142.47 273.13 133 274.43 133.1 273.93 139.59 272.88 139.5 272.64 142.63 277.41 143.01 278.4 130.26 273.73 129.9 274.06 128.22 278.52 128.5 278.71 125.36 268.64 124.74 268.45 127.88"/>
    <rect class="b" x="296.88" y="118.18" width="19.35" height="3.14" transform="translate(-10.14 30.2) rotate(-5.55)"/>
    <rect class="b" x="331.19" y="122.77" width="11.4" height="3.14"/>
    <polygon class="b" points="341.27 135.09 341.05 131.43 337.92 131.62 338.32 138.42 345.06 138.01 344.88 134.88 341.27 135.09"/>
    <polygon class="b" points="329.4 131.75 332.29 131.49 330.14 137.03 333.06 138.17 335.78 131.17 344.67 130.37 344.39 127.24 329.12 128.62 329.4 131.75"/>
    <polygon class="b" points="328.75 140.64 328.26 121.83 322.98 121.97 323.55 143.91 343.64 143.39 343.56 140.25 328.75 140.64"/>
    <rect class="b" x="246.13" y="136.62" width="4.68" height="3.14"/>
    <rect class="b" x="263.36" y="120.72" width="3.14" height="5.59" transform="translate(22.33 286.59) rotate(-58.91)"/>
    <rect class="b" x="271.86" y="118.73" width="3.14" height="4.9" transform="translate(-25.24 105.59) rotate(-20.91)"/>
    <rect class="b" x="314.08" y="135.35" width="3.14" height="6.23" transform="translate(-24.38 194.93) rotate(-33.11)"/>
    <rect class="b" x="292.63" y="135.69" width="6.23" height="3.14" transform="translate(-.94 272.47) rotate(-49.4)"/>
    <polygon class="b" points="285.07 120.32 282.31 118.82 278.99 124.92 281.75 126.42 282.41 125.21 289.74 125.66 289.93 122.53 284.06 122.17 285.07 120.32"/>
    <polygon class="b" points="289.2 130.47 289.19 130.47 289.2 130.47 289.12 127.33 280.34 127.55 280.42 130.69 285.28 130.57 283.32 133.33 279.87 133.27 279.82 136.41 283.09 136.46 283.03 139.87 280.49 139.83 280.44 142.97 287 143.07 287.1 136.53 289.61 136.57 289.65 133.43 287.13 133.39 289.2 130.47"/>
    <rect class="b" x="262.89" y="128.72" width="3.14" height="5.59" transform="translate(112.97 385.06) rotate(-85.58)"/>
    <rect class="b" x="261.47" y="138.25" width="5.59" height="3.14" transform="translate(-14.19 248.65) rotate(-49.23)"/>
    <rect class="b" x="251.97" y="124.05" width="3.44" height="3.14" transform="translate(-9.86 228.97) rotate(-47.76)"/>
    <rect class="b" x="240.66" y="124.32" width="3.14" height="3.44" transform="translate(-13.93 220.59) rotate(-47.75)"/>
    <polygon class="b" points="250.45 128.22 250.45 123.28 255.74 123.12 255.66 119.98 250.45 120.13 250.45 118.12 245.16 118.12 245.16 120.27 240.42 120.39 240.5 123.53 245.16 123.41 245.16 128.54 238.67 128.94 238.87 132.07 258.89 130.81 258.7 127.67 250.45 128.22"/>
    <polygon class="b" points="236.12 136.24 236.36 131.1 238.05 131.22 238.26 128.09 236.5 127.96 236.72 123.1 231.44 122.86 231.22 127.6 229.23 127.47 229.02 130.6 231.08 130.74 230.81 136.56 228.84 136.68 229.03 139.82 238.49 139.24 238.3 136.11 236.12 136.24"/>
    <polygon class="b" points="214.15 129.3 217.15 123.25 223.03 123.1 222.95 119.96 204.3 120.44 204.38 123.58 211.17 123.4 208.14 129.51 200 129.79 200.11 132.93 206.56 132.7 202.33 141.23 207.07 143.58 212.56 132.49 226.09 132.02 225.98 128.89 214.15 129.3"/>
    <polygon class="b" points="226.04 138.02 222.21 138.13 222.28 140.16 219.52 140.16 220.11 135.1 214.86 134.49 213.83 143.3 226.15 143.3 226.04 138.02"/>
  </g>
</svg>